<?xml version="1.0" encoding="utf-8"?>
<svg version="1.1" xmlns:xlink="http://www.w3.org/1999/xlink" width="1260px" height="30px" xmlns="http://www.w3.org/2000/svg">
  <defs>
    <mask fill="white" id="clip1">
      <path d="M 0 30  L 0 0  L 157.318181818182 0  L 195.954545454545 0  L 918 0  L 1034.66666666667 0  L 1260 0  L 1260 30  C 1260 30  1076.44444444444 30  984.666666666667 30  C 721.762626262626 30  195.954545454545 30  195.954545454545 30  L 123.227272727273 30  L 0 30  Z " fill-rule="evenodd" />
    </mask>
  </defs>
  <g>
    <path d="M 0 30  L 0 0  L 157.318181818182 0  L 195.954545454545 0  L 918 0  L 1034.66666666667 0  L 1260 0  L 1260 30  C 1260 30  1076.44444444444 30  984.666666666667 30  C 721.762626262626 30  195.954545454545 30  195.954545454545 30  L 123.227272727273 30  L 0 30  Z " fill-rule="nonzero" fill="#3d3e53" stroke="none" />
    <path d="M 0 30  L 0 0  L 157.318181818182 0  L 195.954545454545 0  L 918 0  L 1034.66666666667 0  L 1260 0  L 1260 30  C 1260 30  1076.44444444444 30  984.666666666667 30  C 721.762626262626 30  195.954545454545 30  195.954545454545 30  L 123.227272727273 30  L 0 30  Z " stroke-width="2" stroke="#797979" fill="none" mask="url(#clip1)" />
  </g>
</svg>