<?xml version="1.0" encoding="utf-8"?>
<svg version="1.1" xmlns:xlink="http://www.w3.org/1999/xlink" width="30px" height="25px" xmlns="http://www.w3.org/2000/svg">
  <g transform="matrix(1 0 0 1 -114 -276 )">
    <path d="M 10.7142857142857 2.08333333333333  L 10.7142857142857 4.16666666666667  L 19.2857142857143 4.16666666666667  L 19.2857142857143 2.08333333333333  L 10.7142857142857 2.08333333333333  Z M 3.75 4.16666666666667  L 5 4.16666666666667  L 5 25  L 3.75 25  C 2.72321428571429 25  1.84151785714286 24.6419270833333  1.10491071428571 23.92578125  C 0.368303571428571 23.2096354166667  0 22.3524305555556  0 21.3541666666667  L 0 7.8125  C 0 6.81423611111111  0.368303571428571 5.95703125  1.10491071428571 5.24088541666667  C 1.84151785714286 4.52473958333333  2.72321428571429 4.16666666666667  3.75 4.16666666666667  Z M 21.4285714285714 4.16666666666667  L 23 4.16666666666667  L 23 25  L 7 25  L 7 4.16666666666667  L 8.57142857142857 4.16666666666667  L 8.57142857142857 1.5625  C 8.57142857142857 1.12847222222222  8.72767857142857 0.759548611111108  9.04017857142857 0.455729166666666  C 9.35267857142857 0.151909722222221  9.73214285714286 0  10.1785714285714 0  L 19.8214285714286 0  C 20.2678571428571 0  20.6473214285714 0.151909722222221  20.9598214285714 0.455729166666666  C 21.2723214285714 0.759548611111108  21.4285714285714 1.12847222222222  21.4285714285714 1.5625  L 21.4285714285714 4.16666666666667  Z M 28.8950892857143 5.24088541666667  C 29.6316964285714 5.95703125  30 6.81423611111111  30 7.8125  L 30 21.3541666666667  C 30 22.3524305555556  29.6316964285714 23.2096354166667  28.8950892857143 23.92578125  C 28.1584821428571 24.6419270833333  27.2767857142857 25  26.25 25  L 25 25  L 25 4.16666666666667  L 26.25 4.16666666666667  C 27.2767857142857 4.16666666666667  28.1584821428571 4.52473958333333  28.8950892857143 5.24088541666667  Z " fill-rule="nonzero" fill="#ea9518" stroke="none" transform="matrix(1 0 0 1 114 276 )" />
  </g>
</svg>