<?xml version="1.0" encoding="utf-8"?>
<svg version="1.1" xmlns:xlink="http://www.w3.org/1999/xlink" width="21px" height="17px" xmlns="http://www.w3.org/2000/svg">
  <g transform="matrix(1 0 0 1 -253 -589 )">
    <path d="M 12.0081129807692 4.36383928571429  C 12.6517427884615 4.84449404761905  12.9735576923077 5.42633928571429  12.9735576923077 6.109375  C 12.9735576923077 6.78608630952381  12.6517427884615 7.36476934523809  12.0081129807692 7.84542410714286  C 11.3644831730769 8.32607886904762  10.5925480769231 8.56640625  9.69230769230769 8.56640625  C 8.79206730769231 8.56640625  8.02013221153846 8.32607886904762  7.37650240384615 7.84542410714286  C 6.73287259615385 7.36476934523809  6.41105769230769 6.78608630952381  6.41105769230769 6.109375  C 6.41105769230769 5.42633928571429  6.73287259615385 4.84449404761905  7.37650240384615 4.36383928571429  C 8.02013221153846 3.88318452380952  8.79206730769231 3.64285714285714  9.69230769230769 3.64285714285714  C 10.5925480769231 3.64285714285714  11.3644831730769 3.88318452380952  12.0081129807692 4.36383928571429  Z M 11.9639423076923 8.38141741071429  C 12.1742788461538 8.28338913690476  12.3088942307692 8.22172619047619  12.3677884615385 8.19642857142857  C 12.7548076923077 8.19642857142857  13.1018629807692 8.25018601190476  13.4089543269231 8.35770089285714  C 13.7160456730769 8.46521577380952  13.9684495192308 8.61542038690476  14.1661658653846 8.80831473214286  C 14.3638822115385 9.00120907738095  14.5300480769231 9.21307663690476  14.6646634615385 9.44391741071429  C 14.7992788461538 9.67475818452381  14.9002403846154 9.93089657738095  14.9675480769231 10.2123325892857  C 15.0348557692308 10.4937686011905  15.0832331730769 10.754650297619  15.1126802884615 10.9949776785714  C 15.1421274038462 11.2353050595238  15.1568509615385 11.485119047619  15.1568509615385 11.7444196428571  C 15.1568509615385 12.1681547619048  14.9906850961538 12.5428757440476  14.6583533653846 12.8685825892857  C 14.3260216346154 13.1942894345238  13.8822115384615 13.3571428571429  13.3269230769231 13.3571428571429  L 6.05769230769231 13.3571428571429  C 5.50240384615385 13.3571428571429  5.05859375 13.1942894345238  4.72626201923077 12.8685825892857  C 4.39393028846154 12.5428757440476  4.22776442307692 12.1681547619048  4.22776442307692 11.7444196428571  C 4.22776442307692 11.4408482142857  4.24669471153846 11.1451822916667  4.28455528846154 10.857421875  C 4.32241586538462 10.5696614583333  4.40024038461539 10.2581845238095  4.51802884615385 9.92299107142857  C 4.63581730769231 9.58779761904762  4.78936298076923 9.29845610119048  4.97866586538462 9.05496651785714  C 5.16796875 8.81147693452381  5.43299278846154 8.60751488095238  5.77373798076923 8.44308035714286  C 6.11448317307692 8.27864583333333  6.5078125 8.19642857142857  6.95372596153846 8.19642857142857  L 7.01682692307692 8.19642857142857  C 7.07572115384615 8.22172619047619  7.21033653846154 8.28338913690476  7.42067307692308 8.38141741071429  C 7.63100961538462 8.47944568452381  7.78034855769231 8.54585193452381  7.86868990384615 8.58063616071429  C 7.95703125 8.61542038690476  8.09585336538462 8.66917782738095  8.28515625 8.74190848214286  C 8.47445913461539 8.81463913690476  8.63010817307692 8.865234375  8.75210336538462 8.89369419642857  C 8.87409855769231 8.92215401785714  9.02133413461539 8.95061383928571  9.19381009615385 8.97907366071429  C 9.36628605769231 9.00753348214286  9.53245192307692 9.02176339285714  9.69230769230769 9.02176339285714  C 9.85216346153846 9.02176339285714  10.0183293269231 9.00753348214286  10.1908052884615 8.97907366071429  C 10.36328125 8.95061383928571  10.5105168269231 8.92215401785714  10.6325120192308 8.89369419642857  C 10.7545072115385 8.865234375  10.91015625 8.81463913690476  11.0994591346154 8.74190848214286  C 11.2887620192308 8.66917782738095  11.4275841346154 8.61542038690476  11.5159254807692 8.58063616071429  C 11.6042668269231 8.54585193452381  11.7536057692308 8.47944568452381  11.9639423076923 8.38141741071429  Z M 21 3.94642857142857  L 21 5.76785714285714  C 21 5.8500744047619  20.9600360576923 5.92122395833333  20.8801081730769 5.98130580357143  C 20.8001802884615 6.04138764880952  20.7055288461538 6.07142857142857  20.5961538461538 6.07142857142857  L 19.3846153846154 6.07142857142857  L 19.3846153846154 7.28571428571429  L 20.5961538461538 7.28571428571429  C 20.7055288461538 7.28571428571429  20.8001802884615 7.31575520833333  20.8801081730769 7.37583705357143  C 20.9600360576923 7.43591889880952  21 7.50706845238095  21 7.58928571428571  L 21 9.41071428571429  C 21 9.49293154761905  20.9600360576923 9.56408110119048  20.8801081730769 9.62416294642857  C 20.8001802884615 9.68424479166667  20.7055288461538 9.71428571428571  20.5961538461538 9.71428571428571  L 19.3846153846154 9.71428571428571  L 19.3846153846154 10.9285714285714  L 20.5961538461538 10.9285714285714  C 20.7055288461538 10.9285714285714  20.8001802884615 10.9586123511905  20.8801081730769 11.0186941964286  C 20.9600360576923 11.0787760416667  21 11.1499255952381  21 11.2321428571429  L 21 13.0535714285714  C 21 13.1357886904762  20.9600360576923 13.2069382440476  20.8801081730769 13.2670200892857  C 20.8001802884615 13.3271019345238  20.7055288461538 13.3571428571429  20.5961538461538 13.3571428571429  L 19.3846153846154 13.3571428571429  L 19.3846153846154 15.4821428571429  C 19.3846153846154 15.8995535714286  19.1868990384615 16.2568824404762  18.7914663461538 16.5541294642857  C 18.3960336538462 16.8513764880952  17.9206730769231 17  17.3653846153846 17  L 2.01923076923077 17  C 1.46394230769231 17  0.988581730769231 16.8513764880952  0.593149038461538 16.5541294642857  C 0.197716346153846 16.2568824404762  0 15.8995535714286  0 15.4821428571429  L 0 1.51785714285714  C 0 1.10044642857143  0.197716346153846 0.743117559523809  0.593149038461538 0.445870535714286  C 0.988581730769231 0.148623511904762  1.46394230769231 0  2.01923076923077 0  L 17.3653846153846 0  C 17.9206730769231 0  18.3960336538462 0.148623511904762  18.7914663461538 0.445870535714286  C 19.1868990384615 0.743117559523809  19.3846153846154 1.10044642857143  19.3846153846154 1.51785714285714  L 19.3846153846154 3.64285714285714  L 20.5961538461538 3.64285714285714  C 20.7055288461538 3.64285714285714  20.8001802884615 3.67289806547619  20.8801081730769 3.73297991071429  C 20.9600360576923 3.79306175595238  21 3.86421130952381  21 3.94642857142857  Z M 17.6493389423077 15.6955915178571  C 17.7292668269231 15.635509672619  17.7692307692308 15.5643601190476  17.7692307692308 15.4821428571429  L 17.7692307692308 1.51785714285714  C 17.7692307692308 1.43563988095238  17.7292668269231 1.36449032738095  17.6493389423077 1.30440848214286  C 17.5694110576923 1.24432663690476  17.4747596153846 1.21428571428571  17.3653846153846 1.21428571428571  L 2.01923076923077 1.21428571428571  C 1.90985576923077 1.21428571428571  1.81520432692308 1.24432663690476  1.73527644230769 1.30440848214286  C 1.65534855769231 1.36449032738095  1.61538461538462 1.43563988095238  2 1.51785714285714  L 2 15.4821428571429  C 1.61538461538462 15.5643601190476  1.65534855769231 15.635509672619  1.73527644230769 15.6955915178571  C 1.81520432692308 15.7556733630952  1.90985576923077 15.7857142857143  2.01923076923077 15.7857142857143  L 17.3653846153846 15.7857142857143  C 17.4747596153846 15.7857142857143  17.5694110576923 15.7556733630952  17.6493389423077 15.6955915178571  Z " fill-rule="nonzero" fill="#d9001b" stroke="none" transform="matrix(1 0 0 1 253 589 )" />
  </g>
</svg>