<?xml version="1.0" encoding="utf-8"?>
<svg version="1.1" xmlns:xlink="http://www.w3.org/1999/xlink" width="10px" height="10px" xmlns="http://www.w3.org/2000/svg">
  <g transform="matrix(1 0 0 1 -1166 -638 )">
    <path d="M 2.5 6.66666666666667  L 2.5 9.16666666666667  L 7.5 9.16666666666667  L 7.5 6.66666666666667  L 2.5 6.66666666666667  Z M 8.33333333333333 6.45833333333333  L 8.33333333333333 9.16666666666667  L 9.16666666666667 9.16666666666667  L 9.16666666666667 3.33333333333333  C 9.16666666666667 3.27256944444444  9.14496527777778 3.18901909722222  9.1015625 3.08268229166667  C 9.05815972222222 2.97634548611111  9.01475694444444 2.90147569444444  8.97135416666667 2.85807291666667  L 7.14192708333333 1.02864583333333  C 7.09852430555556 0.985243055555555  7.02473958333333 0.941840277777777  6.92057291666667 0.8984375  C 6.81640625 0.855034722222222  6.73177083333333 0.833333333333334  6.66666666666667 0.833333333333334  L 6.66666666666667 3.54166666666667  C 6.66666666666667 3.71527777777778  6.60590277777778 3.86284722222222  6.484375 3.984375  C 6.36284722222222 4.10590277777778  6.21527777777778 4.16666666666667  6.04166666666667 4.16666666666667  L 2.29166666666667 4.16666666666667  C 2.11805555555556 4.16666666666667  1.97048611111111 4.10590277777778  1.84895833333333 3.984375  C 1.72743055555556 3.86284722222222  1.66666666666667 3.71527777777778  1.66666666666667 3.54166666666667  L 1.66666666666667 0.833333333333334  L 0.833333333333333 0.833333333333334  L 0.833333333333333 9.16666666666667  L 1.66666666666667 9.16666666666667  L 1.66666666666667 6.45833333333333  C 1.66666666666667 6.28472222222222  1.72743055555556 6.13715277777778  1.84895833333333 6.015625  C 1.97048611111111 5.89409722222222  2.11805555555556 5.83333333333333  2.29166666666667 5.83333333333333  L 7.70833333333333 5.83333333333333  C 7.88194444444445 5.83333333333333  8.02951388888889 5.89409722222222  8.15104166666667 6.015625  C 8.27256944444444 6.13715277777778  8.33333333333333 6.28472222222222  8.33333333333333 6.45833333333333  Z M 5.771484375 3.271484375  C 5.81271701388889 3.23025173611111  5.83333333333333 3.18142361111111  5.83333333333333 3.125  L 5.83333333333333 1.04166666666667  C 5.83333333333333 0.985243055555555  5.81271701388889 0.936414930555555  5.771484375 0.895182291666666  C 5.73025173611111 0.853949652777777  5.68142361111111 0.833333333333334  5.625 0.833333333333334  L 4.375 0.833333333333334  C 4.31857638888889 0.833333333333334  4.26974826388889 0.853949652777777  4.228515625 0.895182291666666  C 4.18728298611111 0.936414930555555  4.16666666666667 0.985243055555555  4.16666666666667 1.04166666666667  L 4.16666666666667 3.125  C 4.16666666666667 3.18142361111111  4.18728298611111 3.23025173611111  4.228515625 3.271484375  C 4.26974826388889 3.31271701388889  4.31857638888889 3.33333333333333  4.375 3.33333333333333  L 5.625 3.33333333333333  C 5.68142361111111 3.33333333333333  5.73025173611111 3.31271701388889  5.771484375 3.271484375  Z M 9.86979166666667 2.76041666666667  C 9.95659722222222 2.96875  10 3.15972222222222  10 3.33333333333333  L 10 9.375  C 10 9.54861111111111  9.93923611111111 9.69618055555556  9.81770833333333 9.81770833333333  C 9.69618055555556 9.93923611111111  9.54861111111111 10  9.375 10  L 0.625 10  C 0.451388888888889 10  0.303819444444444 9.93923611111111  0.182291666666667 9.81770833333333  C 0.0607638888888889 9.69618055555556  0 9.54861111111111  0 9.375  L 0 0.625  C 0 0.451388888888888  0.0607638888888889 0.303819444444443  0.182291666666667 0.182291666666666  C 0.303819444444444 0.0607638888888884  0.451388888888889 0  0.625 0  L 6.66666666666667 0  C 6.84027777777778 0  7.03125 0.0434027777777768  7.23958333333333 0.130208333333334  C 7.44791666666667 0.217013888888888  7.61284722222222 0.321180555555555  7.734375 0.442708333333334  L 9.55729166666667 2.265625  C 9.67881944444444 2.38715277777778  9.78298611111111 2.55208333333333  9.86979166666667 2.76041666666667  Z " fill-rule="nonzero" fill="#ffffff" stroke="none" transform="matrix(1 0 0 1 1166 638 )" />
  </g>
</svg>