<?xml version="1.0" encoding="utf-8"?>
<svg version="1.1" xmlns:xlink="http://www.w3.org/1999/xlink" width="6px" height="7px" xmlns="http://www.w3.org/2000/svg">
  <g transform="matrix(1 0 0 1 -141 -597 )">
    <path d="M 4.423828125 3.70454545454546  L 0.263671875 6.93181818181818  C 0.189453125 6.98939393939394  0.126953125 7.00909090909091  0.076171875 6.99090909090909  C 0.025390625 6.97272727272727  0 6.92424242424242  0 6.84545454545455  L 0 0.154545454545454  C 0 0.0757575757575751  0.025390625 0.0272727272727269  0.076171875 0.00909090909090871  C 0.126953125 -0.00909090909090948  0.189453125 0.0106060606060603  0.263671875 0.068181818181818  L 4.423828125 3.29545454545455  C 4.458984375 3.32272727272727  4.484375 3.35151515151515  4.5 3.38181818181818  L 4.5 0.3  C 4.5 0.221212121212121  4.537109375 0.153030303030303  4.611328125 0.0954545454545457  C 4.685546875 0.0378787878787872  4.7734375 0.00909090909090871  4.875 0.00909090909090871  L 5.625 0.00909090909090871  C 5.7265625 0.00909090909090871  5.814453125 0.0378787878787872  5.888671875 0.0954545454545457  C 5.962890625 0.153030303030303  6 0.221212121212121  6 0.3  L 6 6.7  C 6 6.77878787878788  5.962890625 6.8469696969697  5.888671875 6.90454545454545  C 5.814453125 6.96212121212121  5.7265625 6.99090909090909  5.625 6.99090909090909  L 4.875 6.99090909090909  C 4.7734375 6.99090909090909  4.685546875 6.96212121212121  4.611328125 6.90454545454545  C 4.537109375 6.8469696969697  4.5 6.77878787878788  4.5 6.7  L 4.5 3.61818181818182  C 4.484375 3.64848484848485  4.458984375 3.67727272727273  4.423828125 3.70454545454546  Z " fill-rule="nonzero" fill="#7f7f7f" stroke="none" transform="matrix(1 0 0 1 141 597 )" />
  </g>
</svg>