<?xml version="1.0" encoding="utf-8"?>
<svg version="1.1" xmlns:xlink="http://www.w3.org/1999/xlink" width="13px" height="16px" xmlns="http://www.w3.org/2000/svg">
  <g transform="matrix(1 0 0 1 -1150 -94 )">
    <path d="M 1 12.2857142857143  L 1 14.8571428571429  L 3.25 14.8571428571429  L 3.25 12.2857142857143  L 1 12.2857142857143  Z M 3.75 12.2857142857143  L 3.75 14.8571428571429  L 6.25 14.8571428571429  L 6.25 12.2857142857143  L 3.75 12.2857142857143  Z M 1 8.85714285714286  L 1 11.7142857142857  L 3.25 11.7142857142857  L 3.25 8.85714285714286  L 1 8.85714285714286  Z M 3.75 8.85714285714286  L 3.75 11.7142857142857  L 6.25 11.7142857142857  L 6.25 8.85714285714286  L 3.75 8.85714285714286  Z M 1 5.71428571428571  L 1 8.28571428571428  L 3.25 8.28571428571428  L 3.25 5.71428571428571  L 1 5.71428571428571  Z M 6.75 12.2857142857143  L 6.75 14.8571428571429  L 9.25 14.8571428571429  L 9.25 12.2857142857143  L 6.75 12.2857142857143  Z M 3.75 5.71428571428571  L 3.75 8.28571428571428  L 6.25 8.28571428571428  L 6.25 5.71428571428571  L 3.75 5.71428571428571  Z M 9.75 12.2857142857143  L 9.75 14.8571428571429  L 12 14.8571428571429  L 12 12.2857142857143  L 9.75 12.2857142857143  Z M 6.75 8.85714285714286  L 6.75 11.7142857142857  L 9.25 11.7142857142857  L 9.25 8.85714285714286  L 6.75 8.85714285714286  Z M 3.92578125 4.20089285714286  C 3.97526041666667 4.14434523809524  4 4.07738095238095  4 4  L 4 1.42857142857143  C 4 1.35119047619048  3.97526041666667 1.28422619047619  3.92578125 1.22767857142857  C 3.87630208333333 1.17113095238095  3.81770833333333 1.14285714285714  3.75 1.14285714285714  L 3.25 1.14285714285714  C 3.18229166666667 1.14285714285714  3.12369791666667 1.17113095238095  3.07421875 1.22767857142857  C 3.02473958333333 1.28422619047619  3 1.35119047619048  3 1.42857142857143  L 3 4  C 3 4.07738095238095  3.02473958333333 4.14434523809524  3.07421875 4.20089285714286  C 3.12369791666667 4.25744047619048  3.18229166666667 4.28571428571429  3.25 4.28571428571429  L 3.75 4.28571428571429  C 3.81770833333333 4.28571428571429  3.87630208333333 4.25744047619048  3.92578125 4.20089285714286  Z M 9.75 8.85714285714286  L 9.75 11.7142857142857  L 12 11.7142857142857  L 12 8.85714285714286  L 9.75 8.85714285714286  Z M 6.75 5.71428571428571  L 6.75 8.28571428571428  L 9.25 8.28571428571428  L 9.25 5.71428571428571  L 6.75 5.71428571428571  Z M 9.75 5.71428571428571  L 9.75 8.28571428571428  L 12 8.28571428571428  L 12 5.71428571428571  L 9.75 5.71428571428571  Z M 9.92578125 4.20089285714286  C 9.97526041666667 4.14434523809524  10 4.07738095238095  10 4  L 10 1.42857142857143  C 10 1.35119047619048  9.97526041666667 1.28422619047619  9.92578125 1.22767857142857  C 9.87630208333333 1.17113095238095  9.81770833333333 1.14285714285714  9.75 1.14285714285714  L 9.25 1.14285714285714  C 9.18229166666667 1.14285714285714  9.12369791666667 1.17113095238095  9.07421875 1.22767857142857  C 9.02473958333333 1.28422619047619  9 1.35119047619048  9 1.42857142857143  L 9 4  C 9 4.07738095238095  9.02473958333333 4.14434523809524  9.07421875 4.20089285714286  C 9.12369791666667 4.25744047619048  9.18229166666667 4.28571428571429  9.25 4.28571428571429  L 9.75 4.28571428571429  C 9.81770833333333 4.28571428571429  9.87630208333333 4.25744047619048  9.92578125 4.20089285714286  Z M 12.703125 2.625  C 12.9010416666667 2.85119047619048  13 3.11904761904762  13 3.42857142857143  L 13 14.8571428571429  C 13 15.1666666666667  12.9010416666667 15.4345238095238  12.703125 15.6607142857143  C 12.5052083333333 15.8869047619048  12.2708333333333 16  12 16  L 1 16  C 0.729166666666667 16  0.494791666666667 15.8869047619048  0.296875 15.6607142857143  C 0.0989583333333333 15.4345238095238  0 15.1666666666667  0 14.8571428571429  L 0 3.42857142857143  C 0 3.11904761904762  0.0989583333333333 2.85119047619048  0.296875 2.625  C 0.494791666666667 2.39880952380952  0.729166666666667 2.28571428571429  1 2.28571428571429  L 2 2.28571428571429  L 2 1.42857142857143  C 2 1.03571428571429  2.12239583333333 0.699404761904761  2.3671875 0.419642857142858  C 2.61197916666667 0.139880952380953  2.90625 0  3.25 0  L 3.75 0  C 4.09375 0  4.38802083333333 0.139880952380953  4.6328125 0.419642857142858  C 4.87760416666667 0.699404761904761  5 1.03571428571429  5 1.42857142857143  L 5 2.28571428571429  L 8 2.28571428571429  L 8 1.42857142857143  C 8 1.03571428571429  8.12239583333333 0.699404761904761  8.3671875 0.419642857142858  C 8.61197916666667 0.139880952380953  8.90625 0  9.25 0  L 9.75 0  C 10.09375 0  10.3880208333333 0.139880952380953  10.6328125 0.419642857142858  C 10.8776041666667 0.699404761904761  11 1.03571428571429  11 1.42857142857143  L 11 2.28571428571429  L 12 2.28571428571429  C 12.2708333333333 2.28571428571429  12.5052083333333 2.39880952380952  12.703125 2.625  Z " fill-rule="nonzero" fill="#7f7f7f" stroke="none" transform="matrix(1 0 0 1 1150 94 )" />
  </g>
</svg>