<?xml version="1.0" encoding="utf-8"?>
<svg version="1.1" xmlns:xlink="http://www.w3.org/1999/xlink" width="10px" height="10px" xmlns="http://www.w3.org/2000/svg">
  <g transform="matrix(1 0 0 1 -95 -623 )">
    <path d="M 3.57244318181818 8.27473958333333  C 3.61505681818182 8.23567708333333  3.63636363636364 8.18576388888889  3.63636363636364 8.125  L 3.63636363636364 3.54166666666667  C 3.63636363636364 3.48090277777778  3.61505681818182 3.43098958333333  3.57244318181818 3.39192708333333  C 3.52982954545455 3.35286458333333  3.47537878787879 3.33333333333333  3.40909090909091 3.33333333333333  L 2.95454545454545 3.33333333333333  C 2.88825757575758 3.33333333333333  2.83380681818182 3.35286458333333  2.79119318181818 3.39192708333333  C 2.74857954545455 3.43098958333333  2.72727272727273 3.48090277777778  2.72727272727273 3.54166666666667  L 2.72727272727273 8.125  C 2.72727272727273 8.18576388888889  2.74857954545455 8.23567708333333  2.79119318181818 8.27473958333333  C 2.83380681818182 8.31380208333333  2.88825757575758 8.33333333333333  2.95454545454545 8.33333333333333  L 3.40909090909091 8.33333333333333  C 3.47537878787879 8.33333333333333  3.52982954545455 8.31380208333333  3.57244318181818 8.27473958333333  Z M 5.390625 8.27473958333333  C 5.43323863636364 8.23567708333333  5.45454545454545 8.18576388888889  5.45454545454545 8.125  L 5.45454545454545 3.54166666666667  C 5.45454545454545 3.48090277777778  5.43323863636364 3.43098958333333  5.390625 3.39192708333333  C 5.34801136363636 3.35286458333333  5.29356060606061 3.33333333333333  5.22727272727273 3.33333333333333  L 4.77272727272727 3.33333333333333  C 4.70643939393939 3.33333333333333  4.65198863636364 3.35286458333333  4.609375 3.39192708333333  C 4.56676136363636 3.43098958333333  4.54545454545455 3.48090277777778  4.54545454545455 3.54166666666667  L 4.54545454545455 8.125  C 4.54545454545455 8.18576388888889  4.56676136363636 8.23567708333333  4.609375 8.27473958333333  C 4.65198863636364 8.31380208333333  4.70643939393939 8.33333333333333  4.77272727272727 8.33333333333333  L 5.22727272727273 8.33333333333333  C 5.29356060606061 8.33333333333333  5.34801136363636 8.31380208333333  5.390625 8.27473958333333  Z M 7.20880681818182 8.27473958333333  C 7.25142045454545 8.23567708333333  7.27272727272727 8.18576388888889  7.27272727272727 8.125  L 7.27272727272727 3.54166666666667  C 7.27272727272727 3.48090277777778  7.25142045454545 3.43098958333333  7.20880681818182 3.39192708333333  C 7.16619318181818 3.35286458333333  7.11174242424242 3.33333333333333  7.04545454545455 3.33333333333333  L 6.59090909090909 3.33333333333333  C 6.52462121212121 3.33333333333333  6.47017045454545 3.35286458333333  6.42755681818182 3.39192708333333  C 6.38494318181818 3.43098958333333  6.36363636363636 3.48090277777778  6.36363636363636 3.54166666666667  L 6.36363636363636 8.125  C 6.36363636363636 8.18576388888889  6.38494318181818 8.23567708333333  6.42755681818182 8.27473958333333  C 6.47017045454545 8.31380208333333  6.52462121212121 8.33333333333333  6.59090909090909 8.33333333333333  L 7.04545454545455 8.33333333333333  C 7.11174242424242 8.33333333333333  7.16619318181818 8.31380208333333  7.20880681818182 8.27473958333333  Z M 3.75710227272727 0.904947916666666  L 3.40909090909091 1.66666666666667  L 6.59090909090909 1.66666666666667  L 6.25 0.904947916666666  C 6.21685606060606 0.865885416666666  6.17660984848485 0.842013888888888  6.12926136363636 0.833333333333334  L 3.87784090909091 0.833333333333334  C 3.83049242424242 0.842013888888888  3.79024621212121 0.865885416666666  3.75710227272727 0.904947916666666  Z M 9.93607954545455 1.72526041666667  C 9.97869318181818 1.76432291666667  10 1.81423611111111  10 1.875  L 10 2.29166666666667  C 10 2.35243055555555  9.97869318181818 2.40234375  9.93607954545455 2.44140625  C 9.89346590909091 2.48046875  9.83901515151515 2.5  9.77272727272727 2.5  L 9.09090909090909 2.5  L 9.09090909090909 8.671875  C 9.09090909090909 9.03211805555556  8.97964015151515 9.34353298611111  8.75710227272727 9.60611979166667  C 8.53456439393939 9.86870659722222  8.26704545454545 10  7.95454545454545 10  L 2.04545454545455 10  C 1.73295454545455 10  1.46543560606061 9.873046875  1.24289772727273 9.619140625  C 1.02035984848485 9.365234375  0.909090909090909 9.05815972222222  0.909090909090909 8.69791666666667  L 0.909090909090909 2.5  L 0.227272727272727 2.5  C 0.160984848484848 2.5  0.106534090909091 2.48046875  0.0639204545454545 2.44140625  C 0.0213068181818182 2.40234375  0 2.35243055555555  0 2.29166666666667  L 0 1.875  C 0 1.81423611111111  0.0213068181818182 1.76432291666667  0.0639204545454545 1.72526041666667  C 0.106534090909091 1.68619791666667  0.160984848484848 1.66666666666667  0.227272727272727 1.66666666666667  L 2.421875 1.66666666666667  L 2.91903409090909 0.579427083333334  C 2.99005681818182 0.418836805555555  3.11789772727273 0.282118055555555  3.30255681818182 0.169270833333334  C 3.48721590909091 0.0564236111111105  3.67424242424242 0  3.86363636363636 0  L 6.13636363636364 0  C 6.32575757575758 0  6.51278409090909 0.0564236111111105  6.69744318181818 0.169270833333334  C 6.88210227272727 0.282118055555555  7.00994318181818 0.418836805555555  7.08096590909091 0.579427083333334  L 7.578125 1.66666666666667  L 9.77272727272727 1.66666666666667  C 9.83901515151515 1.66666666666667  9.89346590909091 1.68619791666667  9.93607954545455 1.72526041666667  Z " fill-rule="nonzero" fill="#ffffff" stroke="none" transform="matrix(1 0 0 1 95 623 )" />
  </g>
</svg>