<?xml version="1.0" encoding="utf-8"?>
<svg version="1.1" xmlns:xlink="http://www.w3.org/1999/xlink" width="11px" height="11px" xmlns="http://www.w3.org/2000/svg">
  <g transform="matrix(1 0 0 1 -21 -413 )">
    <path d="M 10.8897795591182 1.20703933747412  C 10.9632598530394 1.13112491373361  11 1.04382332643202  11 0.945134575569359  C 11 0.846445824706693  10.9632598530394 0.759144237405108  10.8897795591182 0.683229813664596  L 10.3386773547094 0.113871635610766  C 10.2651970607882 0.0379572118702545  10.1806947227789 0  10.0851703406814 0  C 9.98964595858383 0  9.90514362057448 0.0379572118702545  9.83166332665331 0.113871635610766  L 5.5 4.58902691511387  L 1.16833667334669 0.113871635610766  C 1.09485637942552 0.0379572118702545  1.01035404141617 0  0.914829659318637 0  C 0.819305277221109 0  0.734802939211757 0.0379572118702545  0.661322645290581 0.113871635610766  L 0.110220440881764 0.683229813664596  C 0.036740146960588 0.759144237405108  0 0.846445824706693  0 0.945134575569359  C 0 1.04382332643202  0.036740146960588 1.13112491373361  0.110220440881764 1.20703933747412  L 5.24649298597194 6.51345755693582  C 5.31997327989312 6.58937198067633  5.40447561790247 6.62732919254658  5.5 6.62732919254658  C 5.59552438209753 6.62732919254658  5.68002672010688 6.58937198067633  5.75350701402806 6.51345755693582  L 10.8897795591182 1.20703933747412  Z M 10.8897795591182 5.57971014492754  C 10.9632598530394 5.50379572118703  11 5.41649413388544  11 5.31780538302277  C 11 5.21911663216011  10.9632598530394 5.13181504485852  10.8897795591182 5.05590062111801  L 10.3386773547094 4.48654244306418  C 10.2651970607882 4.41062801932367  10.1806947227789 4.37267080745342  10.0851703406814 4.37267080745342  C 9.98964595858383 4.37267080745342  9.90514362057448 4.41062801932367  9.83166332665331 4.48654244306418  L 5.5 8.96169772256729  L 1.16833667334669 4.48654244306418  C 1.09485637942552 4.41062801932367  1.01035404141617 4.37267080745342  0.914829659318637 4.37267080745342  C 0.819305277221109 4.37267080745342  0.734802939211757 4.41062801932367  0.661322645290581 4.48654244306418  L 0.110220440881764 5.05590062111801  C 0.036740146960588 5.13181504485852  0 5.21911663216011  0 5.31780538302277  C 0 5.41649413388544  0.036740146960588 5.50379572118703  0.110220440881764 5.57971014492754  L 5.24649298597194 10.8861283643892  C 5.31997327989312 10.9620427881297  5.40447561790247 11  5.5 11  C 5.59552438209753 11  5.68002672010688 10.9620427881297  5.75350701402806 10.8861283643892  L 10.8897795591182 5.57971014492754  Z " fill-rule="nonzero" fill="#000000" stroke="none" transform="matrix(1 0 0 1 21 413 )" />
  </g>
</svg>