<?xml version="1.0" encoding="utf-8"?>
<svg version="1.1" xmlns:xlink="http://www.w3.org/1999/xlink" width="16px" height="16px" viewBox="4 3761  16 16" xmlns="http://www.w3.org/2000/svg">
  <path d="M 5 3769  A 7 7 0 0 1 12 3762 A 7 7 0 0 1 19 3769 A 7 7 0 0 1 12 3776 A 7 7 0 0 1 5 3769 Z " fill-rule="nonzero" fill="#027db4" stroke="none" fill-opacity="0.976470588235294" />
  <path d="M 4.5 3769  A 7.5 7.5 0 0 1 12 3761.5 A 7.5 7.5 0 0 1 19.5 3769 A 7.5 7.5 0 0 1 12 3776.5 A 7.5 7.5 0 0 1 4.5 3769 Z " stroke-width="1" stroke="#ffffff" fill="none" stroke-opacity="0.976470588235294" />
</svg>