<?xml version="1.0" encoding="utf-8"?>
<svg version="1.1" xmlns:xlink="http://www.w3.org/1999/xlink" width="19px" height="10px" xmlns="http://www.w3.org/2000/svg">
  <g transform="matrix(1 0 0 1 -335 -1859 )">
    <path d="M 18.809619238477 1.03092783505155  C 18.936539746159 1.14547537227949  19 1.27720504009164  19 1.42611683848797  C 19 1.57502863688431  18.936539746159 1.70675830469645  18.809619238477 1.8213058419244  L 9.93787575150301 9.82817869415807  C 9.81095524382098 9.94272623138602  9.66499665998664 10  9.5 10  C 9.33500334001336 10  9.18904475617903 9.94272623138602  9.06212424849699 9.82817869415807  L 0.190380761523046 1.8213058419244  C 0.0634602538410155 1.70675830469645  0 1.57502863688431  0 1.42611683848797  C 0 1.27720504009164  0.0634602538410155 1.14547537227949  0.190380761523046 1.03092783505155  L 1.14228456913828 0.171821305841925  C 1.26920507682031 0.0572737686139735  1.41516366065464 0  1.58016032064128 0  C 1.74515698062792 0  1.89111556446226 0.0572737686139735  2.01803607214429 0.171821305841925  L 9.5 6.92439862542955  L 16.9819639278557 0.171821305841925  C 17.1088844355377 0.0572737686139735  17.2548430193721 0  17.4198396793587 0  C 17.5848363393454 0  17.7307949231797 0.0572737686139735  17.8577154308617 0.171821305841925  L 18.809619238477 1.03092783505155  Z " fill-rule="nonzero" fill="#3d3e53" stroke="none" fill-opacity="0.501960784313725" transform="matrix(1 0 0 1 335 1859 )" />
  </g>
</svg>