<?xml version="1.0" encoding="utf-8"?>
<svg version="1.1" xmlns:xlink="http://www.w3.org/1999/xlink" width="10px" height="9px" xmlns="http://www.w3.org/2000/svg">
  <g transform="matrix(1 0 0 1 -961 -1074 )">
    <path d="M 2.30769230769231 6.75  L 2.30769230769231 8.25  L 7.69230769230769 8.25  L 7.69230769230769 6.75  L 2.30769230769231 6.75  Z M 2.30769230769231 0.75  L 2.30769230769231 4.5  L 7.69230769230769 4.5  L 7.69230769230769 2.25  L 6.73076923076923 2.25  C 6.57051282051282 2.25  6.43429487179487 2.1953125  6.32211538461538 2.0859375  C 6.2099358974359 1.9765625  6.15384615384615 1.84375  6.15384615384615 1.6875  L 6.15384615384615 0.75  L 2.30769230769231 0.75  Z M 9.11658653846154 5.138671875  C 9.19270833333333 5.064453125  9.23076923076923 4.9765625  9.23076923076923 4.875  C 9.23076923076923 4.7734375  9.19270833333333 4.685546875  9.11658653846154 4.611328125  C 9.04046474358974 4.537109375  8.95032051282051 4.5  8.84615384615385 4.5  C 8.74198717948718 4.5  8.65184294871795 4.537109375  8.57572115384615 4.611328125  C 8.49959935897436 4.685546875  8.46153846153846 4.7734375  8.46153846153846 4.875  C 8.46153846153846 4.9765625  8.49959935897436 5.064453125  8.57572115384615 5.138671875  C 8.65184294871795 5.212890625  8.74198717948718 5.25  8.84615384615385 5.25  C 8.95032051282051 5.25  9.04046474358974 5.212890625  9.11658653846154 5.138671875  Z M 9.66045673076923 4.0810546875  C 9.88681891025641 4.3017578125  10 4.56640625  10 4.875  L 10 7.3125  C 10 7.36328125  9.98096955128205 7.4072265625  9.94290865384615 7.4443359375  C 9.90484775641026 7.4814453125  9.85977564102564 7.5  9.80769230769231 7.5  L 8.46153846153846 7.5  L 8.46153846153846 8.4375  C 8.46153846153846 8.59375  8.40544871794872 8.7265625  8.29326923076923 8.8359375  C 8.18108974358974 8.9453125  8.0448717948718 9  7.88461538461538 9  L 2.11538461538462 9  C 1.95512820512821 9  1.81891025641026 8.9453125  1.70673076923077 8.8359375  C 1.59455128205128 8.7265625  1.53846153846154 8.59375  1.53846153846154 8.4375  L 1.53846153846154 7.5  L 0.192307692307692 7.5  C 0.140224358974359 7.5  0.0951522435897436 7.4814453125  0.0570913461538462 7.4443359375  C 0.0190304487179487 7.4072265625  0 7.36328125  0 7.3125  L 0 4.875  C 0 4.56640625  0.11318108974359 4.3017578125  0.339543269230769 4.0810546875  C 0.565905448717949 3.8603515625  0.837339743589744 3.75  1.15384615384615 3.75  L 1.53846153846154 3.75  L 1.53846153846154 0.5625  C 1.53846153846154 0.40625  1.59455128205128 0.273437499999999  1.70673076923077 0.1640625  C 1.81891025641026 0.0546874999999996  1.95512820512821 0  2.11538461538462 0  L 6.15384615384615 0  C 6.31410256410256 0  6.49038461538462 0.0390624999999991  6.68269230769231 0.1171875  C 6.875 0.1953125  7.02724358974359 0.289062499999999  7.13942307692308 0.3984375  L 8.05288461538462 1.2890625  C 8.1650641025641 1.3984375  8.26121794871795 1.546875  8.34134615384615 1.734375  C 8.42147435897436 1.921875  8.46153846153846 2.09375  8.46153846153846 2.25  L 8.46153846153846 3.75  L 8.84615384615385 3.75  C 9.16266025641026 3.75  9.43409455128205 3.8603515625  9.66045673076923 4.0810546875  Z " fill-rule="nonzero" fill="#ffffff" stroke="none" transform="matrix(1 0 0 1 961 1074 )" />
  </g>
</svg>