<?xml version="1.0" encoding="utf-8"?>
<svg version="1.1" xmlns:xlink="http://www.w3.org/1999/xlink" width="35px" height="37px" xmlns="http://www.w3.org/2000/svg">
  <g transform="matrix(1 0 0 1 -594 -2016 )">
    <path d="M 20.7246376811594 17.6472945891784  C 20.9661835748792 17.8944555778223  21.0869565217391 18.1786907147629  21.0869565217391 18.5  C 21.0869565217391 18.8213092852371  20.9661835748792 19.1055444221777  20.7246376811594 19.3527054108216  L 3.84057971014493 36.6292585170341  C 3.59903381642512 36.876419505678  3.32125603864734 37  3.00724637681159 37  C 2.69323671497585 37  2.41545893719807 36.876419505678  2.17391304347826 36.6292585170341  L 0.36231884057971 34.7755511022044  C 0.120772946859903 34.5283901135604  0 34.2441549766199  0 33.9228456913828  C 0 33.6015364061456  0.120772946859903 33.3173012692051  0.36231884057971 33.0701402805611  L 14.6014492753623 18.5  L 0.36231884057971 3.92985971943888  C 0.120772946859903 3.68269873079492  0 3.39846359385437  0 3.07715430861724  C 0 2.75584502338009  0.120772946859903 2.47160988643954  0.36231884057971 2.22444889779559  L 2.17391304347826 0.370741482965932  C 2.41545893719807 0.123580494321976  2.69323671497585 0  3.00724637681159 0  C 3.32125603864734 0  3.59903381642512 0.123580494321976  3.84057971014493 0.370741482965932  L 20.7246376811594 17.6472945891784  Z M 34.6376811594203 17.6472945891784  C 34.8792270531401 17.8944555778223  35 18.1786907147629  35 18.5  C 35 18.8213092852371  34.8792270531401 19.1055444221777  34.6376811594203 19.3527054108216  L 17.7536231884058 36.6292585170341  C 17.512077294686 36.876419505678  17.2342995169082 37  16.9202898550725 37  C 16.6062801932367 37  16.3285024154589 36.876419505678  16.0869565217391 36.6292585170341  L 14.2753623188406 34.7755511022044  C 14.0338164251208 34.5283901135604  13.9130434782609 34.2441549766199  13.9130434782609 33.9228456913828  C 13.9130434782609 33.6015364061456  14.0338164251208 33.3173012692051  14.2753623188406 33.0701402805611  L 28.5144927536232 18.5  L 14.2753623188406 3.92985971943888  C 14.0338164251208 3.68269873079492  13.9130434782609 3.39846359385437  13.9130434782609 3.07715430861724  C 13.9130434782609 2.75584502338009  14.0338164251208 2.47160988643954  14.2753623188406 2.22444889779559  L 16.0869565217391 0.370741482965932  C 16.3285024154589 0.123580494321976  16.6062801932367 0  16.9202898550725 0  C 17.2342995169082 0  17.512077294686 0.123580494321976  17.7536231884058 0.370741482965932  L 34.6376811594203 17.6472945891784  Z " fill-rule="nonzero" fill="#1b91b0" stroke="none" transform="matrix(1 0 0 1 594 2016 )" />
  </g>
</svg>