<?xml version="1.0" encoding="utf-8"?>
<svg version="1.1" xmlns:xlink="http://www.w3.org/1999/xlink" width="35px" height="37px" xmlns="http://www.w3.org/2000/svg">
  <g transform="matrix(1 0 0 1 -594 -2097 )">
    <path d="M 20.7246376811594 33.0701402805611  C 20.9661835748792 33.3173012692051  21.0869565217391 33.6015364061456  21.0869565217391 33.9228456913828  C 21.0869565217391 34.2441549766199  20.9661835748792 34.5283901135604  20.7246376811594 34.7755511022044  L 18.9130434782609 36.6292585170341  C 18.6714975845411 36.876419505678  18.3937198067633 37  18.0797101449275 37  C 17.7657004830918 37  17.487922705314 36.876419505678  17.2463768115942 36.6292585170341  L 0.36231884057971 19.3527054108216  C 0.120772946859903 19.1055444221777  0 18.8213092852371  0 18.5  C 0 18.1786907147629  0.120772946859903 17.8944555778223  0.36231884057971 17.6472945891784  L 17.2463768115942 0.370741482965932  C 17.487922705314 0.123580494321976  17.7657004830918 0  18.0797101449275 0  C 18.3937198067633 0  18.6714975845411 0.123580494321976  18.9130434782609 0.370741482965932  L 20.7246376811594 2.22444889779559  C 20.9661835748792 2.47160988643954  21.0869565217391 2.75584502338009  21.0869565217391 3.07715430861724  C 21.0869565217391 3.39846359385437  20.9661835748792 3.68269873079492  20.7246376811594 3.92985971943888  L 6.48550724637681 18.5  L 20.7246376811594 33.0701402805611  Z M 34.6376811594203 33.0701402805611  C 34.8792270531401 33.3173012692051  35 33.6015364061456  35 33.9228456913828  C 35 34.2441549766199  34.8792270531401 34.5283901135604  34.6376811594203 34.7755511022044  L 32.8260869565217 36.6292585170341  C 32.5845410628019 36.876419505678  32.3067632850242 37  31.9927536231884 37  C 31.6787439613527 37  31.4009661835749 36.876419505678  31.1594202898551 36.6292585170341  L 14.2753623188406 19.3527054108216  C 14.0338164251208 19.1055444221777  13.9130434782609 18.8213092852371  13.9130434782609 18.5  C 13.9130434782609 18.1786907147629  14.0338164251208 17.8944555778223  14.2753623188406 17.6472945891784  L 31.1594202898551 0.370741482965932  C 31.4009661835749 0.123580494321976  31.6787439613527 0  31.9927536231884 0  C 32.3067632850242 0  32.5845410628019 0.123580494321976  32.8260869565217 0.370741482965932  L 34.6376811594203 2.22444889779559  C 34.8792270531401 2.47160988643954  35 2.75584502338009  35 3.07715430861724  C 35 3.39846359385437  34.8792270531401 3.68269873079492  34.6376811594203 3.92985971943888  L 20.3985507246377 18.5  L 34.6376811594203 33.0701402805611  Z " fill-rule="nonzero" fill="#1b91b0" stroke="none" transform="matrix(1 0 0 1 594 2097 )" />
  </g>
</svg>