<?xml version="1.0" encoding="utf-8"?>
<svg version="1.1" xmlns:xlink="http://www.w3.org/1999/xlink" width="8px" height="11px" xmlns="http://www.w3.org/2000/svg">
  <g transform="matrix(1 0 0 1 60 -8 )">
    <path d="M 7.91983967935872 9.79296066252588  C 7.97327989311957 9.86887508626639  8 9.95617667356798  8 10.0548654244306  C 8 10.1535541752933  7.97327989311957 10.2408557625949  7.91983967935872 10.3167701863354  L 7.51903807615231 10.8861283643892  C 7.46559786239145 10.9620427881297  7.40414161656647 11  7.33466933867735 11  C 7.26519706078824 11  7.20374081496326 10.9620427881297  7.1503006012024 10.8861283643892  L 4 6.41097308488613  L 0.849699398797595 10.8861283643892  C 0.79625918503674 10.9620427881297  0.734802939211757 11  0.665330661322645 11  C 0.595858383433534 11  0.534402137608551 10.9620427881297  0.480961923847695 10.8861283643892  L 0.0801603206412826 10.3167701863354  C 0.0267201068804276 10.2408557625949  0 10.1535541752933  0 10.0548654244306  C 0 9.95617667356798  0.0267201068804276 9.86887508626639  0.0801603206412826 9.79296066252588  L 3.81563126252505 4.48654244306418  C 3.86907147628591 4.41062801932367  3.93052772211089 4.37267080745342  4 4.37267080745342  C 4.06947227788911 4.37267080745342  4.1309285237141 4.41062801932367  4.18436873747495 4.48654244306418  L 7.91983967935872 9.79296066252588  Z M 7.91983967935872 5.42028985507246  C 7.97327989311957 5.49620427881297  8 5.58350586611456  8 5.68219461697723  C 8 5.78088336783989  7.97327989311957 5.86818495514148  7.91983967935872 5.94409937888199  L 7.51903807615231 6.51345755693582  C 7.46559786239145 6.58937198067633  7.40414161656647 6.62732919254658  7.33466933867735 6.62732919254658  C 7.26519706078824 6.62732919254658  7.20374081496326 6.58937198067633  7.1503006012024 6.51345755693582  L 4 2.03830227743271  L 0.849699398797595 6.51345755693582  C 0.79625918503674 6.58937198067633  0.734802939211757 6.62732919254658  0.665330661322645 6.62732919254658  C 0.595858383433534 6.62732919254658  0.534402137608551 6.58937198067633  0.480961923847695 6.51345755693582  L 0.0801603206412826 5.94409937888199  C 0.0267201068804276 5.86818495514148  0 5.78088336783989  0 5.68219461697723  C 0 5.58350586611456  0.0267201068804276 5.49620427881297  0.0801603206412826 5.42028985507246  L 3.81563126252505 0.113871635610766  C 3.86907147628591 0.0379572118702545  3.93052772211089 0  4 0  C 4.06947227788911 0  4.1309285237141 0.0379572118702545  4.18436873747495 0.113871635610766  L 7.91983967935872 5.42028985507246  Z " fill-rule="nonzero" fill="#000000" stroke="none" transform="matrix(1 0 0 1 -60 8 )" />
  </g>
</svg>