<?xml version="1.0" encoding="utf-8"?>
<svg version="1.1" xmlns:xlink="http://www.w3.org/1999/xlink" width="10px" height="16px" xmlns="http://www.w3.org/2000/svg">
  <g transform="matrix(1 0 0 1 -890 -45 )">
    <path d="M 0.769230769230769 12.2857142857143  L 0.769230769230769 14.8571428571429  L 2.5 14.8571428571429  L 2.5 12.2857142857143  L 0.769230769230769 12.2857142857143  Z M 2.88461538461538 12.2857142857143  L 2.88461538461538 14.8571428571429  L 4.80769230769231 14.8571428571429  L 4.80769230769231 12.2857142857143  L 2.88461538461538 12.2857142857143  Z M 0.769230769230769 8.85714285714286  L 0.769230769230769 11.7142857142857  L 2.5 11.7142857142857  L 2.5 8.85714285714286  L 0.769230769230769 8.85714285714286  Z M 2.88461538461538 8.85714285714286  L 2.88461538461538 11.7142857142857  L 4.80769230769231 11.7142857142857  L 4.80769230769231 8.85714285714286  L 2.88461538461538 8.85714285714286  Z M 0.769230769230769 5.71428571428571  L 0.769230769230769 8.28571428571428  L 2.5 8.28571428571428  L 2.5 5.71428571428571  L 0.769230769230769 5.71428571428571  Z M 5.19230769230769 12.2857142857143  L 5.19230769230769 14.8571428571429  L 7.11538461538462 14.8571428571429  L 7.11538461538462 12.2857142857143  L 5.19230769230769 12.2857142857143  Z M 2.88461538461538 5.71428571428571  L 2.88461538461538 8.28571428571428  L 4.80769230769231 8.28571428571428  L 4.80769230769231 5.71428571428571  L 2.88461538461538 5.71428571428571  Z M 7.5 12.2857142857143  L 7.5 14.8571428571429  L 9.23076923076923 14.8571428571429  L 9.23076923076923 12.2857142857143  L 7.5 12.2857142857143  Z M 5.19230769230769 8.85714285714286  L 5.19230769230769 11.7142857142857  L 7.11538461538462 11.7142857142857  L 7.11538461538462 8.85714285714286  L 5.19230769230769 8.85714285714286  Z M 3.01983173076923 4.20089285714286  C 3.05789262820513 4.14434523809524  3.07692307692308 4.07738095238095  3.07692307692308 4  L 3.07692307692308 1.42857142857143  C 3.07692307692308 1.35119047619048  3.05789262820513 1.28422619047619  3.01983173076923 1.22767857142857  C 2.98177083333333 1.17113095238095  2.93669871794872 1.14285714285714  2.88461538461538 1.14285714285714  L 2.5 1.14285714285714  C 2.44791666666667 1.14285714285714  2.40284455128205 1.17113095238095  2.36478365384615 1.22767857142857  C 2.32672275641026 1.28422619047619  2.30769230769231 1.35119047619048  2.30769230769231 1.42857142857143  L 2.30769230769231 4  C 2.30769230769231 4.07738095238095  2.32672275641026 4.14434523809524  2.36478365384615 4.20089285714286  C 2.40284455128205 4.25744047619048  2.44791666666667 4.28571428571429  2.5 4.28571428571429  L 2.88461538461538 4.28571428571429  C 2.93669871794872 4.28571428571429  2.98177083333333 4.25744047619048  3.01983173076923 4.20089285714286  Z M 7.5 8.85714285714286  L 7.5 11.7142857142857  L 9.23076923076923 11.7142857142857  L 9.23076923076923 8.85714285714286  L 7.5 8.85714285714286  Z M 5.19230769230769 5.71428571428571  L 5.19230769230769 8.28571428571428  L 7.11538461538462 8.28571428571428  L 7.11538461538462 5.71428571428571  L 5.19230769230769 5.71428571428571  Z M 7.5 5.71428571428571  L 7.5 8.28571428571428  L 9.23076923076923 8.28571428571428  L 9.23076923076923 5.71428571428571  L 7.5 5.71428571428571  Z M 7.63521634615385 4.20089285714286  C 7.67327724358974 4.14434523809524  7.69230769230769 4.07738095238095  7.69230769230769 4  L 7.69230769230769 1.42857142857143  C 7.69230769230769 1.35119047619048  7.67327724358974 1.28422619047619  7.63521634615385 1.22767857142857  C 7.59715544871795 1.17113095238095  7.55208333333333 1.14285714285714  7.5 1.14285714285714  L 7.11538461538462 1.14285714285714  C 7.06330128205128 1.14285714285714  7.01822916666667 1.17113095238095  6.98016826923077 1.22767857142857  C 6.94210737179487 1.28422619047619  6.92307692307692 1.35119047619048  6.92307692307692 1.42857142857143  L 6.92307692307692 4  C 6.92307692307692 4.07738095238095  6.94210737179487 4.14434523809524  6.98016826923077 4.20089285714286  C 7.01822916666667 4.25744047619048  7.06330128205128 4.28571428571429  7.11538461538462 4.28571428571429  L 7.5 4.28571428571429  C 7.55208333333333 4.28571428571429  7.59715544871795 4.25744047619048  7.63521634615385 4.20089285714286  Z M 9.77163461538462 2.625  C 9.92387820512821 2.85119047619048  10 3.11904761904762  10 3.42857142857143  L 10 14.8571428571429  C 10 15.1666666666667  9.92387820512821 15.4345238095238  9.77163461538462 15.6607142857143  C 9.61939102564103 15.8869047619048  9.43910256410257 16  9.23076923076923 16  L 0.769230769230769 16  C 0.560897435897436 16  0.380608974358974 15.8869047619048  0.228365384615385 15.6607142857143  C 0.0761217948717949 15.4345238095238  0 15.1666666666667  0 14.8571428571429  L 0 3.42857142857143  C 0 3.11904761904762  0.0761217948717949 2.85119047619048  0.228365384615385 2.625  C 0.380608974358974 2.39880952380952  0.560897435897436 2.28571428571429  0.769230769230769 2.28571428571429  L 1.53846153846154 2.28571428571429  L 1.53846153846154 1.42857142857143  C 1.53846153846154 1.03571428571429  1.63261217948718 0.699404761904761  1.82091346153846 0.419642857142858  C 2.00921474358974 0.139880952380953  2.23557692307692 0  2.5 0  L 2.88461538461538 0  C 3.14903846153846 0  3.37540064102564 0.139880952380953  3.56370192307692 0.419642857142858  C 3.75200320512821 0.699404761904761  3.84615384615385 1.03571428571429  3.84615384615385 1.42857142857143  L 3.84615384615385 2.28571428571429  L 6.15384615384615 2.28571428571429  L 6.15384615384615 1.42857142857143  C 6.15384615384615 1.03571428571429  6.2479967948718 0.699404761904761  6.43629807692308 0.419642857142858  C 6.62459935897436 0.139880952380953  6.85096153846154 0  7.11538461538462 0  L 7.5 0  C 7.76442307692308 0  7.99078525641026 0.139880952380953  8.17908653846154 0.419642857142858  C 8.36738782051282 0.699404761904761  8.46153846153846 1.03571428571429  8.46153846153846 1.42857142857143  L 8.46153846153846 2.28571428571429  L 9.23076923076923 2.28571428571429  C 9.43910256410257 2.28571428571429  9.61939102564103 2.39880952380952  9.77163461538462 2.625  Z " fill-rule="nonzero" fill="#7f7f7f" stroke="none" transform="matrix(1 0 0 1 890 45 )" />
  </g>
</svg>