<?xml version="1.0" encoding="utf-8"?>
<svg version="1.1" xmlns:xlink="http://www.w3.org/1999/xlink" width="12px" height="10px" xmlns="http://www.w3.org/2000/svg">
  <g transform="matrix(1 0 0 1 -1208 -612 )">
    <path d="M 9.8984375 5.29296875  C 9.9921875 5.21484375  10.0390625 5.1171875  10.0390625 5  C 10.0390625 4.8828125  9.9921875 4.78515625  9.8984375 4.70703125  L 9.1875 4.11458333333333  L 6.359375 1.7578125  C 6.265625 1.6796875  6.1484375 1.640625  6.0078125 1.640625  C 5.8671875 1.640625  5.75 1.6796875  5.65625 1.7578125  L 4.9453125 2.35026041666667  C 4.8515625 2.42838541666667  4.8046875 2.52604166666667  4.8046875 2.64322916666667  C 4.8046875 2.76041666666667  4.8515625 2.85807291666667  4.9453125 2.93619791666667  L 6.421875 4.16666666666667  L 2.5 4.16666666666667  C 2.36458333333333 4.16666666666667  2.24739583333333 4.20789930555556  2.1484375 4.29036458333333  C 2.04947916666667 4.37282986111111  2 4.47048611111111  2 4.58333333333333  L 2 5.41666666666667  C 2 5.52951388888889  2.04947916666667 5.62717013888889  2.1484375 5.70963541666667  C 2.24739583333333 5.79210069444444  2.36458333333333 5.83333333333333  2.5 5.83333333333333  L 6.421875 5.83333333333333  L 4.9453125 7.06380208333333  C 4.84635416666667 7.14626736111111  4.796875 7.24392361111111  4.796875 7.35677083333333  C 4.796875 7.46961805555556  4.84635416666667 7.56727430555555  4.9453125 7.64973958333333  L 5.65625 8.2421875  C 5.75 8.3203125  5.8671875 8.359375  6.0078125 8.359375  C 6.1484375 8.359375  6.265625 8.3203125  6.359375 8.2421875  L 9.1875 5.88541666666667  L 9.8984375 5.29296875  Z M 11.1953125 2.490234375  C 11.7317708333333 3.25629340277778  12 4.09288194444444  12 5  C 12 5.90711805555556  11.7317708333333 6.74370659722222  11.1953125 7.509765625  C 10.6588541666667 8.27582465277778  9.93098958333333 8.88237847222222  9.01171875 9.32942708333333  C 8.09244791666667 9.77647569444444  7.08854166666667 10  6 10  C 4.91145833333333 10  3.90755208333333 9.77647569444444  2.98828125 9.32942708333333  C 2.06901041666667 8.88237847222222  1.34114583333333 8.27582465277778  0.8046875 7.509765625  C 0.268229166666667 6.74370659722222  0 5.90711805555556  0 5  C 0 4.09288194444444  0.268229166666667 3.25629340277778  0.8046875 2.490234375  C 1.34114583333333 1.72417534722222  2.06901041666667 1.11762152777778  2.98828125 0.670572916666666  C 3.90755208333333 0.223524305555555  4.91145833333333 0  6 0  C 7.08854166666667 0  8.09244791666667 0.223524305555555  9.01171875 0.670572916666666  C 9.93098958333333 1.11762152777778  10.6588541666667 1.72417534722222  11.1953125 2.490234375  Z " fill-rule="nonzero" fill="#ffffff" stroke="none" transform="matrix(1 0 0 1 1208 612 )" />
  </g>
</svg>