<?xml version="1.0" encoding="utf-8"?>
<svg version="1.1" xmlns:xlink="http://www.w3.org/1999/xlink" width="179px" height="24px" xmlns="http://www.w3.org/2000/svg">
  <defs>
    <mask fill="white" id="clip432">
      <path d="M 0 23  L 0 0  L 132.771869328494 0  L 179 0  L 179 23  L 0 23  Z " fill-rule="evenodd" />
    </mask>
    <filter x="476px" y="73px" width="179px" height="24px" filterUnits="userSpaceOnUse" id="filter433">
      <feOffset dx="0" dy="-1" in="SourceAlpha" result="shadowOffsetInner" />
      <feGaussianBlur stdDeviation="0" in="shadowOffsetInner" result="shadowGaussian" />
      <feComposite in2="shadowGaussian" operator="atop" in="SourceAlpha" result="shadowComposite" />
      <feColorMatrix type="matrix" values="0 0 0 0 0.23921568627451  0 0 0 0 0.243137254901961  0 0 0 0 0.325490196078431  0 0 0 0.501960784313725 0  " in="shadowComposite" />
    </filter>
    <g id="widget434">
      <path d="M 0 23  L 0 0  L 132.771869328494 0  L 179 0  L 179 23  L 0 23  Z " fill-rule="nonzero" fill="#f2f2f2" stroke="none" transform="matrix(1 0 0 1 476 74 )" />
      <path d="M 0 23  L 0 0  L 132.771869328494 0  L 179 0  L 179 23  L 0 23  Z " stroke-width="2" stroke="#3d3e53" fill="none" stroke-opacity="0.23921568627451" transform="matrix(1 0 0 1 476 74 )" mask="url(#clip432)" />
    </g>
  </defs>
  <g transform="matrix(1 0 0 1 -476 -73 )">
    <use xlink:href="#widget434" filter="url(#filter433)" />
    <use xlink:href="#widget434" />
  </g>
</svg>