<?xml version="1.0" encoding="utf-8"?>
<svg version="1.1" xmlns:xlink="http://www.w3.org/1999/xlink" width="15px" height="17px" xmlns="http://www.w3.org/2000/svg">
  <g transform="matrix(1 0 0 1 -632 -144 )">
    <path d="M 1.15384615384615 13.0535714285714  L 1.15384615384615 15.7857142857143  L 3.75 15.7857142857143  L 3.75 13.0535714285714  L 1.15384615384615 13.0535714285714  Z M 4.32692307692308 13.0535714285714  L 4.32692307692308 15.7857142857143  L 7.21153846153846 15.7857142857143  L 7.21153846153846 13.0535714285714  L 4.32692307692308 13.0535714285714  Z M 1.15384615384615 9.41071428571429  L 1.15384615384615 12.4464285714286  L 3.75 12.4464285714286  L 3.75 9.41071428571429  L 1.15384615384615 9.41071428571429  Z M 4.32692307692308 9.41071428571429  L 4.32692307692308 12.4464285714286  L 7.21153846153846 12.4464285714286  L 7.21153846153846 9.41071428571429  L 4.32692307692308 9.41071428571429  Z M 1.15384615384615 6.07142857142857  L 1.15384615384615 8.80357142857143  L 3.75 8.80357142857143  L 3.75 6.07142857142857  L 1.15384615384615 6.07142857142857  Z M 7.78846153846154 13.0535714285714  L 7.78846153846154 15.7857142857143  L 10.6730769230769 15.7857142857143  L 10.6730769230769 13.0535714285714  L 7.78846153846154 13.0535714285714  Z M 4.32692307692308 6.07142857142857  L 4.32692307692308 8.80357142857143  L 7.21153846153846 8.80357142857143  L 7.21153846153846 6.07142857142857  L 4.32692307692308 6.07142857142857  Z M 11.25 13.0535714285714  L 11.25 15.7857142857143  L 13.8461538461538 15.7857142857143  L 13.8461538461538 13.0535714285714  L 11.25 13.0535714285714  Z M 7.78846153846154 9.41071428571429  L 7.78846153846154 12.4464285714286  L 10.6730769230769 12.4464285714286  L 10.6730769230769 9.41071428571429  L 7.78846153846154 9.41071428571429  Z M 4.52974759615385 4.46344866071429  C 4.58683894230769 4.40336681547619  4.61538461538462 4.33221726190476  4.61538461538462 4.25  L 4.61538461538462 1.51785714285714  C 4.61538461538462 1.43563988095238  4.58683894230769 1.36449032738095  4.52974759615385 1.30440848214286  C 4.47265625 1.24432663690476  4.40504807692308 1.21428571428571  4.32692307692308 1.21428571428571  L 3.75 1.21428571428571  C 3.671875 1.21428571428571  3.60426682692308 1.24432663690476  3.54717548076923 1.30440848214286  C 3.49008413461538 1.36449032738095  3.46153846153846 1.43563988095238  3.46153846153846 1.51785714285714  L 3.46153846153846 4.25  C 3.46153846153846 4.33221726190476  3.49008413461538 4.40336681547619  3.54717548076923 4.46344866071429  C 3.60426682692308 4.52353050595238  3.671875 4.55357142857143  3.75 4.55357142857143  L 4.32692307692308 4.55357142857143  C 4.40504807692308 4.55357142857143  4.47265625 4.52353050595238  4.52974759615385 4.46344866071429  Z M 11.25 9.41071428571429  L 11.25 12.4464285714286  L 13.8461538461538 12.4464285714286  L 13.8461538461538 9.41071428571429  L 11.25 9.41071428571429  Z M 7.78846153846154 6.07142857142857  L 7.78846153846154 8.80357142857143  L 10.6730769230769 8.80357142857143  L 10.6730769230769 6.07142857142857  L 7.78846153846154 6.07142857142857  Z M 11.25 6.07142857142857  L 11.25 8.80357142857143  L 13.8461538461538 8.80357142857143  L 13.8461538461538 6.07142857142857  L 11.25 6.07142857142857  Z M 11.4528245192308 4.46344866071429  C 11.5099158653846 4.40336681547619  11.5384615384615 4.33221726190476  11.5384615384615 4.25  L 11.5384615384615 1.51785714285714  C 11.5384615384615 1.43563988095238  11.5099158653846 1.36449032738095  11.4528245192308 1.30440848214286  C 11.3957331730769 1.24432663690476  11.328125 1.21428571428571  11.25 1.21428571428571  L 10.6730769230769 1.21428571428571  C 10.5949519230769 1.21428571428571  10.52734375 1.24432663690476  10.4702524038462 1.30440848214286  C 10.4131610576923 1.36449032738095  10.3846153846154 1.43563988095238  10.3846153846154 1.51785714285714  L 10.3846153846154 4.25  C 10.3846153846154 4.33221726190476  10.4131610576923 4.40336681547619  10.4702524038462 4.46344866071429  C 10.52734375 4.52353050595238  10.5949519230769 4.55357142857143  10.6730769230769 4.55357142857143  L 11.25 4.55357142857143  C 11.328125 4.55357142857143  11.3957331730769 4.52353050595238  11.4528245192308 4.46344866071429  Z M 14.6574519230769 2.7890625  C 14.8858173076923 3.02938988095238  15 3.31398809523809  15 3.64285714285714  L 15 15.7857142857143  C 15 16.1145833333333  14.8858173076923 16.399181547619  14.6574519230769 16.6395089285714  C 14.4290865384615 16.8798363095238  14.1586538461538 17  13.8461538461538 17  L 1.15384615384615 17  C 0.841346153846154 17  0.570913461538462 16.8798363095238  0.342548076923077 16.6395089285714  C 0.114182692307692 16.399181547619  0 16.1145833333333  0 15.7857142857143  L 0 3.64285714285714  C 0 3.31398809523809  0.114182692307692 3.02938988095238  0.342548076923077 2.7890625  C 0.570913461538462 2.54873511904762  0.841346153846154 2.42857142857143  1.15384615384615 2.42857142857143  L 2.30769230769231 2.42857142857143  L 2.30769230769231 1.51785714285714  C 2.30769230769231 1.10044642857143  2.44891826923077 0.743117559523809  2.73137019230769 0.445870535714286  C 3.01382211538462 0.148623511904762  3.35336538461538 0  3.75 0  L 4.32692307692308 0  C 4.72355769230769 0  5.06310096153846 0.148623511904762  5.34555288461538 0.445870535714286  C 5.62800480769231 0.743117559523809  5.76923076923077 1.10044642857143  5.76923076923077 1.51785714285714  L 5.76923076923077 2.42857142857143  L 9.23076923076923 2.42857142857143  L 9.23076923076923 1.51785714285714  C 9.23076923076923 1.10044642857143  9.37199519230769 0.743117559523809  9.65444711538462 0.445870535714286  C 9.93689903846154 0.148623511904762  10.2764423076923 0  10.6730769230769 0  L 11.25 0  C 11.6466346153846 0  11.9861778846154 0.148623511904762  12.2686298076923 0.445870535714286  C 12.5510817307692 0.743117559523809  12.6923076923077 1.10044642857143  12.6923076923077 1.51785714285714  L 12.6923076923077 2.42857142857143  L 13.8461538461538 2.42857142857143  C 14.1586538461538 2.42857142857143  14.4290865384615 2.54873511904762  14.6574519230769 2.7890625  Z " fill-rule="nonzero" fill="#7f7f7f" stroke="none" transform="matrix(1 0 0 1 632 144 )" />
  </g>
</svg>