<?xml version="1.0" encoding="utf-8"?>
<svg version="1.1" xmlns:xlink="http://www.w3.org/1999/xlink" width="161px" height="23px" xmlns="http://www.w3.org/2000/svg">
  <defs>
    <mask fill="white" id="clip2424">
      <path d="M 0 22  L 0 0  L 119.420508166969 0  L 161 0  L 161 22  L 32.4496124031008 22  L 27.9203550887722 22  L 0 22  Z " fill-rule="evenodd" />
    </mask>
    <filter x="69px" y="73px" width="161px" height="23px" filterUnits="userSpaceOnUse" id="filter2425">
      <feOffset dx="0" dy="-1" in="SourceAlpha" result="shadowOffsetInner" />
      <feGaussianBlur stdDeviation="0" in="shadowOffsetInner" result="shadowGaussian" />
      <feComposite in2="shadowGaussian" operator="atop" in="SourceAlpha" result="shadowComposite" />
      <feColorMatrix type="matrix" values="0 0 0 0 0.23921568627451  0 0 0 0 0.243137254901961  0 0 0 0 0.325490196078431  0 0 0 0.501960784313725 0  " in="shadowComposite" />
    </filter>
    <g id="widget2426">
      <path d="M 0 22  L 0 0  L 119.420508166969 0  L 161 0  L 161 22  L 32.4496124031008 22  L 27.9203550887722 22  L 0 22  Z " fill-rule="nonzero" fill="#f0f0f0" stroke="none" transform="matrix(1 0 0 1 69 74 )" />
      <path d="M 0 22  L 0 0  L 119.420508166969 0  L 161 0  L 161 22  L 32.4496124031008 22  L 27.9203550887722 22  L 0 22  Z " stroke-width="2" stroke="#3d3e53" fill="none" stroke-opacity="0.23921568627451" transform="matrix(1 0 0 1 69 74 )" mask="url(#clip2424)" />
    </g>
  </defs>
  <g transform="matrix(1 0 0 1 -69 -73 )">
    <use xlink:href="#widget2426" filter="url(#filter2425)" />
    <use xlink:href="#widget2426" />
  </g>
</svg>