<?xml version="1.0" encoding="utf-8"?>
<svg version="1.1" xmlns:xlink="http://www.w3.org/1999/xlink" width="14px" height="14px" xmlns="http://www.w3.org/2000/svg">
  <g transform="matrix(1 0 0 1 -254 -637 )">
    <path d="M 3.486328125 0.938802083333333  C 4.55881076388889 0.312934027777777  5.73003472222222 0  7 0  C 8.26996527777778 0  9.44118923611111 0.312934027777777  10.513671875 0.938802083333333  C 11.5861545138889 1.56467013888889  12.4353298611111 2.41384548611111  13.0611979166667 3.486328125  C 13.6870659722222 4.55881076388889  14 5.73003472222222  14 7  C 14 8.26996527777778  13.6870659722222 9.44118923611111  13.0611979166667 10.513671875  C 12.4353298611111 11.5861545138889  11.5861545138889 12.4353298611111  10.513671875 13.0611979166667  C 9.44118923611111 13.6870659722222  8.26996527777778 14  7 14  C 5.73003472222222 14  4.55881076388889 13.6870659722222  3.486328125 13.0611979166667  C 2.41384548611111 12.4353298611111  1.56467013888889 11.5861545138889  0.938802083333333 10.513671875  C 0.312934027777778 9.44118923611111  0 8.26996527777778  0 7  C 0 5.73003472222222  0.312934027777778 4.55881076388889  0.938802083333333 3.486328125  C 1.56467013888889 2.41384548611111  2.41384548611111 1.56467013888889  3.486328125 0.938802083333333  Z M 8.08463541666667 11.580078125  C 8.13932291666667 11.5223524305556  8.16666666666667 11.4509548611111  8.16666666666667 11.3658854166667  L 8.16666666666667 9.63411458333333  C 8.16666666666667 9.54904513888889  8.13932291666667 9.47764756944444  8.08463541666667 9.419921875  C 8.02994791666667 9.36219618055556  7.96310763888889 9.33333333333333  7.88411458333333 9.33333333333333  L 6.13411458333333 9.33333333333333  C 6.05512152777778 9.33333333333333  5.98524305555556 9.36371527777778  5.92447916666667 9.42447916666667  C 5.86371527777778 9.48524305555555  5.83333333333333 9.55512152777778  5.83333333333333 9.63411458333333  L 5.83333333333333 11.3658854166667  C 5.83333333333333 11.4448784722222  5.86371527777778 11.5147569444444  5.92447916666667 11.5755208333333  C 5.98524305555556 11.6362847222222  6.05512152777778 11.6666666666667  6.13411458333333 11.6666666666667  L 7.88411458333333 11.6666666666667  C 7.96310763888889 11.6666666666667  8.02994791666667 11.6378038194444  8.08463541666667 11.580078125  Z M 8.052734375 8.38997395833333  C 8.11046006944444 8.34440104166667  8.14236111111111 8.29123263888889  8.1484375 8.23046875  L 8.3125 2.5703125  C 8.3125 2.49739583333333  8.28211805555556 2.44270833333333  8.22135416666667 2.40625  C 8.16059027777778 2.35763888888889  8.08767361111111 2.33333333333333  8.00260416666667 2.33333333333333  L 5.99739583333333 2.33333333333333  C 5.91232638888889 2.33333333333333  5.83940972222222 2.35763888888889  5.77864583333333 2.40625  C 5.71788194444444 2.44270833333333  5.6875 2.49739583333333  5.6875 2.5703125  L 5.84244791666667 8.23046875  C 5.84244791666667 8.29123263888889  5.87282986111111 8.34440104166667  5.93359375 8.38997395833333  C 5.99435763888889 8.435546875  6.06727430555556 8.45833333333333  6.15234375 8.45833333333333  L 7.83854166666667 8.45833333333333  C 7.92361111111111 8.45833333333333  7.99500868055556 8.435546875  8.052734375 8.38997395833333  Z " fill-rule="nonzero" fill="#ec808d" stroke="none" transform="matrix(1 0 0 1 254 637 )" />
  </g>
</svg>