<?xml version="1.0" encoding="utf-8"?>
<svg version="1.1" xmlns:xlink="http://www.w3.org/1999/xlink" width="12px" height="10px" xmlns="http://www.w3.org/2000/svg">
  <g transform="matrix(1 0 0 1 -1141 -613 )">
    <path d="M 11.5234375 3.05989583333333  C 11.8411458333333 3.67621527777778  12 4.32291666666667  12 5  C 12 5.67708333333333  11.8411458333333 6.32378472222222  11.5234375 6.94010416666667  C 11.2057291666667 7.55642361111111  10.7786458333333 8.08810763888889  10.2421875 8.53515625  C 9.70572916666667 8.98220486111111  9.06770833333333 9.33810763888889  8.328125 9.60286458333333  C 7.58854166666667 9.86762152777778  6.8125 10  6 10  C 5.10416666666667 10  4.25260416666667 9.84266493055556  3.4453125 9.52799479166667  C 2.63802083333333 9.21332465277778  1.95052083333333 8.76953125  1.3828125 8.19661458333333  C 1.34635416666667 8.15321180555556  1.32942708333333 8.10438368055556  1.33203125 8.05013020833333  C 1.33463541666667 7.99587673611111  1.35677083333333 7.95138888888889  1.3984375 7.91666666666667  L 2.46875 7.01822916666667  C 2.52083333333333 6.97916666666667  2.5859375 6.95963541666667  2.6640625 6.95963541666667  C 2.74739583333333 6.96831597222222  2.80729166666667 6.99435763888889  2.84375 7.03776041666667  C 3.22395833333333 7.45008680555556  3.69010416666667 7.76909722222222  4.2421875 7.99479166666667  C 4.79427083333333 8.22048611111111  5.38020833333333 8.33333333333333  6 8.33333333333333  C 6.54166666666667 8.33333333333333  7.05859375 8.24544270833333  7.55078125 8.06966145833333  C 8.04296875 7.89388020833333  8.46875 7.65625  8.828125 7.35677083333333  C 9.1875 7.05729166666667  9.47265625 6.70247395833333  9.68359375 6.29231770833333  C 9.89453125 5.88216145833333  10 5.45138888888889  10 5  C 10 4.54861111111111  9.89453125 4.11783854166667  9.68359375 3.70768229166667  C 9.47265625 3.29752604166667  9.1875 2.94270833333333  8.828125 2.64322916666667  C 8.46875 2.34375  8.04296875 2.10611979166667  7.55078125 1.93033854166667  C 7.05859375 1.75455729166667  6.54166666666667 1.66666666666667  6 1.66666666666667  C 5.48958333333333 1.66666666666667  5 1.74370659722222  4.53125 1.89778645833333  C 4.0625 2.05186631944444  3.64583333333333 2.27213541666667  3.28125 2.55859375  L 4.3515625 3.45703125  C 4.51302083333333 3.58723958333333  4.54947916666667 3.73697916666667  4.4609375 3.90625  C 4.37239583333333 4.07986111111111  4.21875 4.16666666666667  4 4.16666666666667  L 0.5 4.16666666666667  C 0.364583333333333 4.16666666666667  0.247395833333333 4.12543402777778  0.1484375 4.04296875  C 0.0494791666666667 3.96050347222222  0 3.86284722222222  0 3.75  L 0 0.833333333333334  C 0 0.651041666666666  0.104166666666667 0.523003472222222  0.3125 0.44921875  C 0.515625 0.375434027777777  0.6953125 0.405815972222222  0.8515625 0.540364583333334  L 1.8671875 1.38020833333333  C 2.42447916666667 0.941840277777777  3.06119791666667 0.602213541666666  3.77734375 0.361328125  C 4.49348958333333 0.120442708333334  5.234375 0  6 0  C 6.8125 0  7.58854166666667 0.132378472222222  8.328125 0.397135416666666  C 9.06770833333333 0.66189236111111  9.70572916666667 1.01779513888889  10.2421875 1.46484375  C 10.7786458333333 1.91189236111111  11.2057291666667 2.44357638888889  11.5234375 3.05989583333333  Z M 6.9296875 2.97526041666667  C 6.9765625 3.01432291666667  7 3.06423611111111  7 3.125  L 7 6.04166666666667  C 7 6.10243055555556  6.9765625 6.15234375  6.9296875 6.19140625  C 6.8828125 6.23046875  6.82291666666667 6.25  6.75 6.25  L 4.25 6.25  C 4.17708333333333 6.25  4.1171875 6.23046875  4.0703125 6.19140625  C 4.0234375 6.15234375  4 6.10243055555556  4 6.04166666666667  L 4 5.625  C 4 5.56423611111111  4.0234375 5.51432291666667  4.0703125 5.47526041666667  C 4.1171875 5.43619791666667  4.17708333333333 5.41666666666667  4.25 5.41666666666667  L 6 5.41666666666667  L 6 3.125  C 6 3.06423611111111  6.0234375 3.01432291666667  6.0703125 2.97526041666667  C 6.1171875 2.93619791666667  6.17708333333333 2.91666666666667  6.25 2.91666666666667  L 6.75 2.91666666666667  C 6.82291666666667 2.91666666666667  6.8828125 2.93619791666667  6.9296875 2.97526041666667  Z " fill-rule="nonzero" fill="#ffffff" stroke="none" transform="matrix(1 0 0 1 1141 613 )" />
  </g>
</svg>