<?xml version="1.0" encoding="utf-8"?>
<svg version="1.1" xmlns:xlink="http://www.w3.org/1999/xlink" width="12px" height="10px" xmlns="http://www.w3.org/2000/svg">
  <g transform="matrix(1 0 0 1 -1075 -613 )">
    <path d="M 9.890625 4.23828125  C 9.984375 4.16015625  10.03125 4.0625  10.03125 3.9453125  C 10.03125 3.82378472222222  9.984375 3.72395833333333  9.890625 3.64583333333333  L 9.1796875 3.05989583333333  C 9.08072916666667 2.97743055555555  8.96354166666667 2.93619791666667  8.828125 2.93619791666667  C 8.69270833333333 2.93619791666667  8.57552083333333 2.97743055555555  8.4765625 3.05989583333333  L 5.2890625 5.70963541666667  L 3.5234375 4.23828125  C 3.42447916666667 4.15581597222222  3.30729166666667 4.11458333333333  3.171875 4.11458333333333  C 3.03645833333333 4.11458333333333  2.91927083333333 4.15581597222222  2.8203125 4.23828125  L 2.109375 4.82421875  C 2.015625 4.90234375  1.96875 5.00217013888889  1.96875 5.12369791666667  C 1.96875 5.24088541666667  2.015625 5.33854166666667  2.109375 5.41666666666667  L 4.9375 7.7734375  C 5.03645833333333 7.85590277777778  5.15364583333333 7.89713541666667  5.2890625 7.89713541666667  C 5.4296875 7.89713541666667  5.54947916666667 7.85590277777778  5.6484375 7.7734375  L 9.890625 4.23828125  Z M 11.1953125 2.490234375  C 11.7317708333333 3.25629340277778  12 4.09288194444444  12 5  C 12 5.90711805555556  11.7317708333333 6.74370659722222  11.1953125 7.509765625  C 10.6588541666667 8.27582465277778  9.93098958333333 8.88237847222222  9.01171875 9.32942708333333  C 8.09244791666667 9.77647569444444  7.08854166666667 10  6 10  C 4.91145833333333 10  3.90755208333333 9.77647569444444  2.98828125 9.32942708333333  C 2.06901041666667 8.88237847222222  1.34114583333333 8.27582465277778  0.8046875 7.509765625  C 0.268229166666667 6.74370659722222  0 5.90711805555556  0 5  C 0 4.09288194444444  0.268229166666667 3.25629340277778  0.8046875 2.490234375  C 1.34114583333333 1.72417534722222  2.06901041666667 1.11762152777778  2.98828125 0.670572916666666  C 3.90755208333333 0.223524305555555  4.91145833333333 0  6 0  C 7.08854166666667 0  8.09244791666667 0.223524305555555  9.01171875 0.670572916666666  C 9.93098958333333 1.11762152777778  10.6588541666667 1.72417534722222  11.1953125 2.490234375  Z " fill-rule="nonzero" fill="#ffffff" stroke="none" transform="matrix(1 0 0 1 1075 613 )" />
  </g>
</svg>