<?xml version="1.0" encoding="utf-8"?>
<svg version="1.1" xmlns:xlink="http://www.w3.org/1999/xlink" width="13px" height="10px" xmlns="http://www.w3.org/2000/svg">
  <g transform="matrix(1 0 0 1 -1275 -645 )">
    <path d="M 12.3039598438371 0.0613154960981044  C 12.4731362706823 -0.016722408026757  12.6374790853318 -0.013006317354145  12.7969882877858 0.0724637681159424  C 12.9564974902398 0.161649944258639  13.0217512548801 0.280564845782236  12.9927495817066 0.429208472686734  L 11.1366424986057 8.99108138238573  C 11.1124744376278 9.09884801189149  11.0351366424986 9.18246005202527  10.9046291132181 9.24191750278707  C 10.83695854248 9.27164622816797  10.7620375534486 9.28651059085842  10.6798661461238 9.28651059085842  C 10.6266964119725 9.28651059085842  10.5686930656256 9.27722036417689  10.5058561070831 9.25863991081382  L 6.68488566648076 8.06020066889632  L 4.52426101505856 9.88294314381271  C 4.4372559955382 9.96098104793757  4.32366610894218 10  4.1834913552705 10  C 4.11582078453244 10  4.06023424428332 9.99256781865478  4.01673173452315 9.97770345596433  C 3.92489310280721 9.95169082125604  3.85238891987358 9.90802675585284  3.79921918572225 9.84671125975474  C 3.74604945157092 9.78539576365663  3.71946458449526 9.71757710888146  3.71946458449526 9.64325529542921  L 3.71946458449526 7.12374581939799  L 0.297267150027886 6.0479375696767  C 0.118423498791597 5.99591230026013  0.0217512548800892 5.89371980676328  0.00725041829336308 5.74136008918618  C -0.00725041829336308 5.59643255295429  0.0700873768358431 5.48680787811223  0.239263803680982 5.41248606465998  L 12.3039598438371 0.0613154960981044  Z M 6.75013943112103 7.30769230769231  L 10.3173452314557 8.42809364548495  L 11.9196876742889 1.05351170568562  L 1.52258784160625 5.66332218506131  L 3.95872838817624 6.42697881828317  L 10.2158393753486 2.86510590858417  L 6.75013943112103 7.30769230769231  Z " fill-rule="nonzero" fill="#ffffff" stroke="none" transform="matrix(1 0 0 1 1275 645 )" />
  </g>
</svg>