<?xml version="1.0" encoding="utf-8"?>
<svg version="1.1" xmlns:xlink="http://www.w3.org/1999/xlink" width="6px" height="9px" xmlns="http://www.w3.org/2000/svg">
  <g transform="matrix(1 0 0 1 -38 -624 )">
    <path d="M 1.576171875 4.23701298701299  L 5.736328125 0.0876623376623374  C 5.810546875 0.0136363636363632  5.873046875 -0.0116883116883122  5.923828125 0.0116883116883112  C 5.974609375 0.0350649350649346  6 0.0974025974025966  6 0.198701298701298  L 6 8.8012987012987  C 6 8.9025974025974  5.974609375 8.96493506493507  5.923828125 8.98831168831169  C 5.873046875 9.01168831168831  5.810546875 8.98636363636364  5.736328125 8.91233766233766  L 1.576171875 4.76298701298701  C 1.541015625 4.72792207792208  1.515625 4.69090909090909  1.5 4.65194805194805  L 1.5 8.61428571428571  C 1.5 8.71558441558441  1.462890625 8.80324675324675  1.388671875 8.87727272727273  C 1.314453125 8.9512987012987  1.2265625 8.98831168831169  1.125 8.98831168831169  L 0.375 8.98831168831169  C 0.2734375 8.98831168831169  0.185546875 8.9512987012987  0.111328125 8.87727272727273  C 0.037109375 8.80324675324675  0 8.71558441558441  0 8.61428571428571  L 0 0.385714285714285  C 0 0.284415584415584  0.037109375 0.196753246753246  0.111328125 0.122727272727273  C 0.185546875 0.0487012987012978  0.2734375 0.0116883116883112  0.375 0.0116883116883112  L 1.125 0.0116883116883112  C 1.2265625 0.0116883116883112  1.314453125 0.0487012987012978  1.388671875 0.122727272727273  C 1.462890625 0.196753246753246  1.5 0.284415584415584  1.5 0.385714285714285  L 1.5 4.34805194805195  C 1.515625 4.30909090909091  1.541015625 4.27207792207792  1.576171875 4.23701298701299  Z " fill-rule="nonzero" fill="#000000" stroke="none" transform="matrix(1 0 0 1 38 624 )" />
  </g>
</svg>