<?xml version="1.0" encoding="utf-8"?>
<svg version="1.1" xmlns:xlink="http://www.w3.org/1999/xlink" width="15px" height="14px" xmlns="http://www.w3.org/2000/svg">
  <g transform="matrix(1 0 0 1 -7 -28 )">
    <path d="M 6.91622103386809 4.57286432160804  C 7.24896019013666 4.24455611390285  7.41532976827094 3.84589614740368  7.41532976827094 3.37688442211055  C 7.41532976827094 2.90787269681742  7.24896019013666 2.50921273031826  6.91622103386809 2.18090452261307  C 6.58348187759953 1.85259631490787  6.17944147355912 1.68844221105528  5.70409982174688 1.68844221105528  C 5.22875816993464 1.68844221105528  4.82471776589424 1.85259631490787  4.49197860962567 2.18090452261307  C 4.1592394533571 2.50921273031826  3.99286987522282 2.90787269681742  3.99286987522282 3.37688442211055  C 3.99286987522282 3.62311557788945  4.04931669637552 3.86641541038526  4.16221033868093 4.10678391959799  C 3.91859774212715 3.99539363484087  3.67201426024955 3.93969849246231  3.42245989304813 3.93969849246231  C 2.94711824123589 3.93969849246231  2.54307783719548 4.10385259631491  2.21033868092692 4.4321608040201  C 1.87759952465835 4.76046901172529  1.71122994652406 5.15912897822446  1.71122994652406 5.62814070351759  C 1.71122994652406 6.09715242881072  1.87759952465835 6.49581239530988  2.21033868092692 6.82412060301507  C 2.54307783719548 7.15242881072027  2.94711824123589 7.31658291457286  3.42245989304813 7.31658291457286  C 3.89780154486037 7.31658291457286  4.30184194890077 7.15242881072027  4.63458110516934 6.82412060301507  C 4.96732026143791 6.49581239530988  5.13368983957219 6.09715242881072  5.13368983957219 5.62814070351759  C 5.13368983957219 5.38190954773869  5.07724301841949 5.13860971524288  4.96434937611408 4.89824120603015  C 5.20796197266786 5.00963149078727  5.45454545454546 5.06532663316583  5.70409982174688 5.06532663316583  C 6.17944147355912 5.06532663316583  6.58348187759953 4.90117252931323  6.91622103386809 4.57286432160804  Z M 14.7459893048128 9.2072864321608  C 14.9153297682709 9.40075376884422  15 9.52093802345059  15 9.5678391959799  C 15 9.66750418760469  14.8544266191325 9.86097152428811  14.5632798573975 10.1482412060301  C 14.2721330956625 10.4355108877722  14.07605466429 10.5791457286432  13.9750445632799 10.5791457286432  C 13.921568627451 10.5791457286432  13.8368983957219 10.5322445561139  13.7210338680927 10.4384422110553  C 13.6051693404635 10.3446398659966  13.4967320261438 10.2479061976549  13.3957219251337 10.1482412060301  C 13.2947118241236 10.0485762144054  13.1803327391563 9.93132328308208  13.0525846702317 9.7964824120603  C 12.9248366013072 9.66164154103853  12.8520499108734 9.58542713567839  12.8342245989305 9.5678391959799  L 11.9786096256684 10.4120603015075  L 13.9393939393939 12.3467336683417  C 14.1057635175282 12.5108877721943  14.1889483065954 12.7102177554439  14.1889483065954 12.9447236180905  C 14.1889483065954 13.1909547738693  14.0730837789661 13.428391959799  13.8413547237077 13.6570351758794  C 13.6096256684492 13.8856783919598  13.3689839572193 14  13.1194295900178 14  C 12.8817587641117 14  12.6797385620915 13.9179229480737  12.5133689839572 13.7537688442211  L 6.53297682709447 7.85301507537688  C 5.48722519310755 8.62102177554439  4.40285204991087 9.00502512562814  3.27985739750446 9.00502512562814  C 2.31134878193702 9.00502512562814  1.52257872846108 8.70456448911223  0.913547237076649 8.1036432160804  C 0.304515745692216 7.50272194304858  0 6.72445561139028  0 5.76884422110553  C 0 4.83082077051926  0.282234105763518 3.91331658291457  0.846702317290553 3.01633165829146  C 1.41117052881759 2.11934673366834  2.14795008912656 1.39237855946399  3.05704099821747 0.835427135678393  C 3.96613190730838 0.278475711892797  4.89601901366607 0  5.84670231729055 0  C 6.81521093285799 0  7.60398098633393 0.300460636515912  8.21301247771836 0.901381909547738  C 8.82204396910279 1.50230318257956  9.12655971479501 2.28056951423785  9.12655971479501 3.23618090452261  C 9.12655971479501 4.34422110552764  8.73737373737374 5.4141541038526  7.95900178253119 6.44597989949749  L 11.1229946524064 9.5678391959799  L 11.9786096256684 8.72361809045226  C 11.9607843137255 8.70603015075377  11.883541295306 8.63421273031826  11.74688057041 8.50816582914573  C 11.610219845514 8.3821189279732  11.4913844325609 8.26926298157454  11.3903743315508 8.16959798994975  C 11.2893642305407 8.06993299832496  11.1913250148544 7.96293969849246  11.096256684492 7.84861809045226  C 11.0011883541295 7.73429648241206  10.9536541889483 7.65075376884422  10.9536541889483 7.59798994974874  C 10.9536541889483 7.49832495812395  11.0992275698158 7.30485762144053  11.3903743315508 7.01758793969849  C 11.6815210932858 6.73031825795645  11.8775995246583 6.58668341708543  11.9786096256684 6.58668341708543  C 12.0558526440879 6.58668341708543  12.1241830065359 6.61599664991625  12.1836007130125 6.67462311557789  C 12.2192513368984 6.70979899497488  12.3559120617944 6.84024288107203  12.5935828877005 7.06595477386935  C 12.8312537136067 7.29166666666667  13.0748663101604 7.52470686767169  13.3244206773619 7.76507537688442  C 13.5739750445633 8.00544388609715  13.8309566250743 8.25753768844221  14.0953654188948 8.5213567839196  C 14.3597742127154 8.78517587939698  14.5766488413547 9.01381909547739  14.7459893048128 9.2072864321608  Z " fill-rule="nonzero" fill="#ffffff" stroke="none" transform="matrix(1 0 0 1 7 28 )" />
  </g>
</svg>