<?xml version="1.0" encoding="utf-8"?>
<svg version="1.1" xmlns:xlink="http://www.w3.org/1999/xlink" width="10px" height="10px" xmlns="http://www.w3.org/2000/svg">
  <g transform="matrix(1 0 0 1 -1155 -255 )">
    <path d="M 9.76251604621309 4.13351314902225  C 9.92083868207103 4.30883344571814  10 4.51337379186334  10 4.74713418745786  C 10 4.98538997527534  9.92083868207103 5.18768262530906  9.76251604621309 5.354012137559  L 5.58408215661104 9.75050573162508  C 5.41720154043646 9.91683524387503  5.22250748823278 10  5 10  C 4.7732135216089 10  4.58065896448438 9.91683524387503  4.42233632862644 9.75050573162508  L 0.24390243902439 5.354012137559  C 0.0813008130081301 5.19217801753203  0 4.98988536749831  0 4.74713418745786  C 0 4.50887839964037  0.0813008130081301 4.30433805349517  0.24390243902439 4.13351314902225  L 0.718870346598203 3.62778152393796  C 0.885750962772786 3.46145201168802  1.08044501497647 3.37828725556305  1.30295250320924 3.37828725556305  C 1.52973898160034 3.37828725556305  1.72229353872486 3.46145201168802  1.8806161745828 3.62778152393796  L 3.76765083440308 5.61024949426838  L 3.76765083440308 0.863115306810519  C 3.76765083440308 0.629354911216004  3.84895164741121 0.427062261182287  4.01155327342747 0.256237356709373  C 4.17415489944373 0.0854124522364563  4.36670945656825 0  4.58921694480103 0  L 5.41078305519897 0  C 5.63329054343175 0  5.82584510055627 0.0854124522364563  5.98844672657253 0.256237356709373  C 6.15104835258879 0.427062261182287  6.23234916559692 0.629354911216004  6.23234916559692 0.863115306810519  L 6.23234916559692 5.61024949426838  L 8.1193838254172 3.62778152393796  C 8.27770646127514 3.46145201168802  8.47026101839966 3.37828725556305  8.69704749679076 3.37828725556305  C 8.91955498502353 3.37828725556305  9.11424903722721 3.46145201168802  9.2811296534018 3.62778152393796  L 9.76251604621309 4.13351314902225  Z " fill-rule="nonzero" fill="#ffffff" stroke="none" transform="matrix(1 0 0 1 1155 255 )" />
  </g>
</svg>