<?xml version="1.0" encoding="utf-8"?>
<svg version="1.1" xmlns:xlink="http://www.w3.org/1999/xlink" width="10px" height="10px" xmlns="http://www.w3.org/2000/svg">
  <g transform="matrix(1 0 0 1 -1210 -711 )">
    <path d="M 9.775390625 5.89518229166667  C 9.81662326388889 5.93641493055556  9.83723958333333 5.98524305555556  9.83723958333333 6.04166666666667  C 9.83723958333333 6.06336805555556  9.83506944444444 6.07855902777778  9.83072916666667 6.08723958333333  C 9.55295138888889 7.25043402777778  8.97135416666667 8.193359375  8.0859375 8.916015625  C 7.20052083333333 9.638671875  6.16319444444445 10  4.97395833333333 10  C 4.34027777777778 10  3.72721354166667 9.88064236111111  3.134765625 9.64192708333333  C 2.54231770833333 9.40321180555556  2.01388888888889 9.0625  1.54947916666667 8.61979166666667  L 0.709635416666667 9.45963541666667  C 0.627170138888889 9.54210069444444  0.529513888888889 9.58333333333333  0.416666666666667 9.58333333333333  C 0.303819444444444 9.58333333333333  0.206163194444444 9.54210069444444  0.123697916666667 9.45963541666667  C 0.0412326388888889 9.37717013888889  0 9.27951388888889  0 9.16666666666667  L 0 6.25  C 0 6.13715277777778  0.0412326388888889 6.03949652777778  0.123697916666667 5.95703125  C 0.206163194444444 5.87456597222222  0.303819444444444 5.83333333333333  0.416666666666667 5.83333333333333  L 3.33333333333333 5.83333333333333  C 3.44618055555556 5.83333333333333  3.54383680555556 5.87456597222222  3.62630208333333 5.95703125  C 3.70876736111111 6.03949652777778  3.75 6.13715277777778  3.75 6.25  C 3.75 6.36284722222222  3.70876736111111 6.46050347222222  3.62630208333333 6.54296875  L 2.734375 7.43489583333333  C 3.04253472222222 7.72135416666667  3.39192708333333 7.94270833333333  3.78255208333333 8.09895833333333  C 4.17317708333333 8.25520833333333  4.57899305555556 8.33333333333333  5 8.33333333333333  C 5.58159722222222 8.33333333333333  6.12413194444445 8.19227430555556  6.62760416666667 7.91015625  C 7.13107638888889 7.62803819444444  7.53472222222222 7.23958333333333  7.83854166666667 6.74479166666667  C 7.88628472222222 6.67100694444444  8.00130208333333 6.41710069444444  8.18359375 5.98307291666667  C 8.21831597222222 5.88324652777778  8.28342013888889 5.83333333333333  8.37890625 5.83333333333333  L 9.62890625 5.83333333333333  C 9.68532986111111 5.83333333333333  9.73415798611111 5.85394965277778  9.775390625 5.89518229166667  Z M 9.87630208333333 0.540364583333334  C 9.95876736111111 0.62282986111111  10 0.72048611111111  10 0.833333333333334  L 10 3.75  C 10 3.86284722222222  9.95876736111111 3.96050347222222  9.87630208333333 4.04296875  C 9.79383680555556 4.12543402777778  9.69618055555556 4.16666666666667  9.58333333333333 4.16666666666667  L 6.66666666666667 4.16666666666667  C 6.55381944444445 4.16666666666667  6.45616319444445 4.12543402777778  6.37369791666667 4.04296875  C 6.29123263888889 3.96050347222222  6.25 3.86284722222222  6.25 3.75  C 6.25 3.63715277777778  6.29123263888889 3.53949652777778  6.37369791666667 3.45703125  L 7.27213541666667 2.55859375  C 6.62977430555556 1.96397569444444  5.87239583333333 1.66666666666667  5 1.66666666666667  C 4.41840277777778 1.66666666666667  3.87586805555556 1.80772569444444  3.37239583333333 2.08984375  C 2.86892361111111 2.37196180555555  2.46527777777778 2.76041666666667  2.16145833333333 3.25520833333333  C 2.11371527777778 3.32899305555555  1.99869791666667 3.58289930555555  1.81640625 4.01692708333333  C 1.78168402777778 4.11675347222222  1.71657986111111 4.16666666666667  1.62109375 4.16666666666667  L 0.325520833333333 4.16666666666667  C 0.269097222222222 4.16666666666667  0.220269097222222 4.14605034722222  0.179036458333333 4.10481770833333  C 0.137803819444444 4.06358506944444  0.1171875 4.01475694444444  0.1171875 3.95833333333333  L 0.1171875 3.91276041666667  C 0.399305555555556 2.74956597222222  0.985243055555556 1.806640625  1.875 1.083984375  C 2.76475694444444 0.361328125  3.80642361111111 0  5 0  C 5.63368055555556 0  6.25 0.120442708333334  6.84895833333333 0.361328125  C 7.44791666666667 0.602213541666666  7.97960069444445 0.941840277777777  8.44401041666667 1.38020833333333  L 9.29036458333333 0.540364583333334  C 9.37282986111111 0.457899305555555  9.47048611111111 0.416666666666666  9.58333333333333 0.416666666666666  C 9.69618055555556 0.416666666666666  9.79383680555556 0.457899305555555  9.87630208333333 0.540364583333334  Z " fill-rule="nonzero" fill="#aaaaaa" stroke="none" transform="matrix(1 0 0 1 1210 711 )" />
  </g>
</svg>