<?xml version="1.0" encoding="utf-8"?>
<svg version="1.1" xmlns:xlink="http://www.w3.org/1999/xlink" width="4px" height="7px" xmlns="http://www.w3.org/2000/svg">
  <g transform="matrix(1 0 0 1 -35 -709 )">
    <path d="M 1.05078125 3.29545454545455  L 3.82421875 0.068181818181818  C 3.87369791666667 0.0106060606060603  3.91536458333333 -0.00909090909090948  3.94921875 0.00909090909090871  C 3.98307291666667 0.0272727272727269  4 0.0757575757575751  4 0.154545454545454  L 4 6.84545454545455  C 4 6.92424242424242  3.98307291666667 6.97272727272727  3.94921875 6.99090909090909  C 3.91536458333333 7.00909090909091  3.87369791666667 6.98939393939394  3.82421875 6.93181818181818  L 1.05078125 3.70454545454546  C 1.02734375 3.67727272727273  1.01041666666667 3.64848484848485  1 3.61818181818182  L 1 6.7  C 1 6.77878787878788  0.975260416666667 6.8469696969697  0.92578125 6.90454545454545  C 0.876302083333333 6.96212121212121  0.817708333333333 6.99090909090909  0.75 6.99090909090909  L 0.25 6.99090909090909  C 0.182291666666667 6.99090909090909  0.123697916666667 6.96212121212121  0.07421875 6.90454545454545  C 0.0247395833333333 6.8469696969697  0 6.77878787878788  0 6.7  L 0 0.3  C 0 0.221212121212121  0.0247395833333333 0.153030303030303  0.07421875 0.0954545454545457  C 0.123697916666667 0.0378787878787872  0.182291666666667 0.00909090909090871  0.25 0.00909090909090871  L 0.75 0.00909090909090871  C 0.817708333333333 0.00909090909090871  0.876302083333333 0.0378787878787872  0.92578125 0.0954545454545457  C 0.975260416666667 0.153030303030303  1 0.221212121212121  1 0.3  L 1 3.38181818181818  C 1.01041666666667 3.35151515151515  1.02734375 3.32272727272727  1.05078125 3.29545454545455  Z " fill-rule="nonzero" fill="#7f7f7f" stroke="none" transform="matrix(1 0 0 1 35 709 )" />
  </g>
</svg>