<?xml version="1.0" encoding="utf-8"?>
<svg version="1.1" xmlns:xlink="http://www.w3.org/1999/xlink" width="4px" height="7px" xmlns="http://www.w3.org/2000/svg">
  <g transform="matrix(1 0 0 1 -60 -709 )">
    <path d="M 3.86805555555556 0.1298828125  C 3.95601851851852 0.216471354166666  4 0.319010416666666  4 0.4375  L 4 6.5625  C 4 6.68098958333333  3.95601851851852 6.78352864583333  3.86805555555556 6.8701171875  C 3.78009259259259 6.95670572916667  3.67592592592593 7  3.55555555555556 7  C 3.43518518518519 7  3.33101851851852 6.95670572916667  3.24305555555556 6.8701171875  L 0.131944444444444 3.8076171875  C 0.0439814814814815 3.72102864583333  0 3.61848958333333  0 3.5  C 0 3.38151041666667  0.0439814814814815 3.27897135416667  0.131944444444444 3.1923828125  L 3.24305555555556 0.1298828125  C 3.33101851851852 0.0432942708333328  3.43518518518519 0  3.55555555555556 0  C 3.67592592592593 0  3.78009259259259 0.0432942708333328  3.86805555555556 0.1298828125  Z " fill-rule="nonzero" fill="#7f7f7f" stroke="none" transform="matrix(1 0 0 1 60 709 )" />
  </g>
</svg>