<?xml version="1.0" encoding="utf-8"?>
<svg version="1.1" xmlns:xlink="http://www.w3.org/1999/xlink" width="6px" height="7px" xmlns="http://www.w3.org/2000/svg">
  <g transform="matrix(1 0 0 1 -117 -709 )">
    <path d="M 5.80208333333333 3.1923828125  C 5.93402777777778 3.27897135416667  6 3.38151041666667  6 3.5  C 6 3.61848958333333  5.93402777777778 3.72102864583333  5.80208333333333 3.8076171875  L 1.13541666666667 6.8701171875  C 1.00347222222222 6.95670572916667  0.847222222222222 7  0.666666666666667 7  C 0.486111111111111 7  0.329861111111111 6.95670572916667  0.197916666666667 6.8701171875  C 0.0659722222222222 6.78352864583333  0 6.68098958333333  0 6.5625  L 0 0.4375  C 0 0.319010416666666  0.0659722222222222 0.216471354166666  0.197916666666667 0.1298828125  C 0.329861111111111 0.0432942708333328  0.486111111111111 0  0.666666666666667 0  C 0.847222222222222 0  1.00347222222222 0.0432942708333328  1.13541666666667 0.1298828125  L 5.80208333333333 3.1923828125  Z " fill-rule="nonzero" fill="#7f7f7f" stroke="none" transform="matrix(1 0 0 1 117 709 )" />
  </g>
</svg>