<?xml version="1.0" encoding="utf-8"?>
<svg version="1.1" xmlns:xlink="http://www.w3.org/1999/xlink" width="1325px" height="30px" xmlns="http://www.w3.org/2000/svg">
  <defs>
    <mask fill="white" id="clip2310">
      <path d="M 0 30  L 0 0  L 165.433802308802 0  L 206.063311688312 0  L 965.357142857143 0  L 1088.04232804233 0  L 1325 0  L 1325 30  C 1325 30  1131.97530864198 30  1035.46296296296 30  C 758.996412538079 30  206.063311688312 30  206.063311688312 30  L 129.584235209235 30  L 0 30  Z " fill-rule="evenodd" />
    </mask>
  </defs>
  <g>
    <path d="M 0 30  L 0 0  L 165.433802308802 0  L 206.063311688312 0  L 965.357142857143 0  L 1088.04232804233 0  L 1325 0  L 1325 30  C 1325 30  1131.97530864198 30  1035.46296296296 30  C 758.996412538079 30  206.063311688312 30  206.063311688312 30  L 129.584235209235 30  L 0 30  Z " fill-rule="nonzero" fill="#3d3e53" stroke="none" />
    <path d="M 0 30  L 0 0  L 165.433802308802 0  L 206.063311688312 0  L 965.357142857143 0  L 1088.04232804233 0  L 1325 0  L 1325 30  C 1325 30  1131.97530864198 30  1035.46296296296 30  C 758.996412538079 30  206.063311688312 30  206.063311688312 30  L 129.584235209235 30  L 0 30  Z " stroke-width="2" stroke="#797979" fill="none" mask="url(#clip2310)" />
  </g>
</svg>