<?xml version="1.0" encoding="utf-8"?>
<svg version="1.1" xmlns:xlink="http://www.w3.org/1999/xlink" width="13px" height="8px" xmlns="http://www.w3.org/2000/svg">
  <g transform="matrix(1 0 0 1 -1274 -613 )">
    <path d="M 6.192138671875 3.4140625  C 5.716064453125 3.8046875  5.1416015625 4  4.46875 4  C 3.7958984375 4  3.221435546875 3.8046875  2.745361328125 3.4140625  C 2.269287109375 3.0234375  2.03125 2.55208333333333  2.03125 2  C 2.03125 1.44791666666667  2.269287109375 0.9765625  2.745361328125 0.5859375  C 3.221435546875 0.1953125  3.7958984375 0  4.46875 0  C 5.1416015625 0  5.716064453125 0.1953125  6.192138671875 0.5859375  C 6.668212890625 0.9765625  6.90625 1.44791666666667  6.90625 2  C 6.90625 2.55208333333333  6.668212890625 3.0234375  6.192138671875 3.4140625  Z M 10.5625 2.83333333333333  L 10.5625 4.66666666666667  L 12.796875 4.66666666666667  C 12.8518880208333 4.66666666666667  12.8994954427083 4.68315972222222  12.939697265625 4.71614583333333  C 12.9798990885417 4.74913194444444  13 4.78819444444444  13 4.83333333333333  L 13 5.83333333333333  C 13 5.87847222222222  12.9798990885417 5.91753472222222  12.939697265625 5.95052083333333  C 12.8994954427083 5.98350694444444  12.8518880208333 6  12.796875 6  L 10.5625 6  L 10.5625 7.83333333333333  C 10.5625 7.87847222222222  10.5423990885417 7.91753472222222  10.502197265625 7.95052083333333  C 10.4619954427083 7.98350694444444  10.4143880208333 8  10.359375 8  L 9.140625 8  C 9.08561197916667 8  9.03800455729167 7.98350694444444  8.997802734375 7.95052083333333  C 8.95760091145833 7.91753472222222  8.9375 7.87847222222222  8.9375 7.83333333333333  L 8.9375 6  L 6.703125 6  C 6.64811197916667 6  6.60050455729167 5.98350694444444  6.560302734375 5.95052083333333  C 6.52010091145833 5.91753472222222  6.5 5.87847222222222  6.5 5.83333333333333  L 6.5 4.83333333333333  C 6.5 4.78819444444444  6.52010091145833 4.74913194444444  6.560302734375 4.71614583333333  C 6.60050455729167 4.68315972222222  6.64811197916667 4.66666666666667  6.703125 4.66666666666667  L 8.9375 4.66666666666667  L 8.9375 2.83333333333333  C 8.9375 2.78819444444444  8.95760091145833 2.74913194444444  8.997802734375 2.71614583333333  C 9.03800455729167 2.68315972222222  9.08561197916667 2.66666666666667  9.140625 2.66666666666667  L 10.359375 2.66666666666667  C 10.4143880208333 2.66666666666667  10.4619954427083 2.68315972222222  10.502197265625 2.71614583333333  C 10.5423990885417 2.74913194444444  10.5625 2.78819444444444  10.5625 2.83333333333333  Z M 5.890625 4.83333333333333  L 5.890625 5.83333333333333  C 5.890625 6.01388888888889  5.97102864583333 6.17013888888889  6.1318359375 6.30208333333333  C 6.29264322916667 6.43402777777778  6.48307291666667 6.5  6.703125 6.5  L 8.328125 6.5  L 8.328125 7.73958333333333  C 8.04036458333333 7.91319444444444  7.67854817708333 8  7.24267578125 8  L 1.69482421875 8  C 1.18277994791667 8  0.772298177083333 7.88020833333333  0.46337890625 7.640625  C 0.154459635416667 7.40104166666667  0 7.07118055555556  0 6.65104166666667  C 0 6.46701388888889  0.00740559895833333 6.28732638888889  0.022216796875 6.11197916666667  C 0.0370279947916667 5.93663194444444  0.066650390625 5.74739583333333  0.111083984375 5.54427083333333  C 0.155517578125 5.34114583333333  0.211588541666667 5.15277777777778  0.279296875 4.97916666666667  C 0.347005208333333 4.80555555555556  0.43798828125 4.63628472222222  0.55224609375 4.47135416666667  C 0.66650390625 4.30642361111111  0.797688802083333 4.16579861111111  0.94580078125 4.04947916666667  C 1.09391276041667 3.93315972222222  1.27482096354167 3.84027777777778  1.488525390625 3.77083333333333  C 1.70222981770833 3.70138888888889  1.93815104166667 3.66666666666667  2.1962890625 3.66666666666667  C 2.27669270833333 3.66666666666667  2.35921223958333 3.69618055555556  2.44384765625 3.75520833333333  C 2.77815755208333 3.96701388888889  3.10506184895833 4.12586805555556  3.424560546875 4.23177083333333  C 3.74405924479167 4.33767361111111  4.09212239583333 4.390625  4.46875 4.390625  C 4.84537760416667 4.390625  5.19344075520833 4.33767361111111  5.512939453125 4.23177083333333  C 5.83243815104167 4.12586805555556  6.15934244791667 3.96701388888889  6.49365234375 3.75520833333333  C 6.57828776041667 3.69618055555556  6.66080729166667 3.66666666666667  6.7412109375 3.66666666666667  C 7.2998046875 3.66666666666667  7.75895182291667 3.83333333333333  8.11865234375 4.16666666666667  L 6.703125 4.16666666666667  C 6.48307291666667 4.16666666666667  6.29264322916667 4.23263888888889  6.1318359375 4.36458333333333  C 5.97102864583333 4.49652777777778  5.890625 4.65277777777778  5.890625 4.83333333333333  Z " fill-rule="nonzero" fill="#ffffff" stroke="none" transform="matrix(1 0 0 1 1274 613 )" />
  </g>
</svg>