<?xml version="1.0" encoding="utf-8"?>
<svg version="1.1" xmlns:xlink="http://www.w3.org/1999/xlink" width="9px" height="11px" xmlns="http://www.w3.org/2000/svg">
  <g transform="matrix(1 0 0 1 -37 -1252 )">
    <path d="M 8.90981963927856 9.79296066252588  C 8.96993987975952 9.86887508626639  9 9.95617667356798  9 10.0548654244306  C 9 10.1535541752933  8.96993987975952 10.2408557625949  8.90981963927856 10.3167701863354  L 8.45891783567134 10.8861283643892  C 8.39879759519038 10.9620427881297  8.32965931863728 11  8.25150300601202 11  C 8.17334669338677 11  8.10420841683367 10.9620427881297  8.04408817635271 10.8861283643892  L 4.5 6.41097308488613  L 0.955911823647295 10.8861283643892  C 0.895791583166333 10.9620427881297  0.826653306613227 11  0.748496993987976 11  C 0.670340681362726 11  0.601202404809619 10.9620427881297  0.541082164328657 10.8861283643892  L 0.0901803607214429 10.3167701863354  C 0.030060120240481 10.2408557625949  0 10.1535541752933  0 10.0548654244306  C 0 9.95617667356798  0.030060120240481 9.86887508626639  0.0901803607214429 9.79296066252588  L 4.29258517034068 4.48654244306418  C 4.35270541082164 4.41062801932367  4.42184368737475 4.37267080745342  4.5 4.37267080745342  C 4.57815631262525 4.37267080745342  4.64729458917836 4.41062801932367  4.70741482965932 4.48654244306418  L 8.90981963927856 9.79296066252588  Z M 8.90981963927856 5.42028985507246  C 8.96993987975952 5.49620427881297  9 5.58350586611456  9 5.68219461697723  C 9 5.78088336783989  8.96993987975952 5.86818495514148  8.90981963927856 5.94409937888199  L 8.45891783567134 6.51345755693582  C 8.39879759519038 6.58937198067633  8.32965931863728 6.62732919254658  8.25150300601202 6.62732919254658  C 8.17334669338677 6.62732919254658  8.10420841683367 6.58937198067633  8.04408817635271 6.51345755693582  L 4.5 2.03830227743271  L 0.955911823647295 6.51345755693582  C 0.895791583166333 6.58937198067633  0.826653306613227 6.62732919254658  0.748496993987976 6.62732919254658  C 0.670340681362726 6.62732919254658  0.601202404809619 6.58937198067633  0.541082164328657 6.51345755693582  L 0.0901803607214429 5.94409937888199  C 0.030060120240481 5.86818495514148  0 5.78088336783989  0 5.68219461697723  C 0 5.58350586611456  0.030060120240481 5.49620427881297  0.0901803607214429 5.42028985507246  L 4.29258517034068 0.113871635610766  C 4.35270541082164 0.0379572118702545  4.42184368737475 0  4.5 0  C 4.57815631262525 0  4.64729458917836 0.0379572118702545  4.70741482965932 0.113871635610766  L 8.90981963927856 5.42028985507246  Z " fill-rule="nonzero" fill="#000000" stroke="none" transform="matrix(1 0 0 1 37 1252 )" />
  </g>
</svg>