<?xml version="1.0" encoding="utf-8"?>
<svg version="1.1" xmlns:xlink="http://www.w3.org/1999/xlink" width="10px" height="12px" xmlns="http://www.w3.org/2000/svg">
  <g transform="matrix(1 0 0 1 -940 -1402 )">
    <path d="M 7.52604166666667 0.455357142857143  L 9.55729166666667 2.54464285714286  C 9.67881944444444 2.66964285714286  9.78298611111111 2.83928571428571  9.86979166666667 3.05357142857143  C 9.95659722222222 3.26785714285714  10 3.46428571428571  10 3.64285714285714  L 10 11.3571428571429  C 10 11.5357142857143  9.93923611111111 11.6875  9.81770833333333 11.8125  C 9.69618055555556 11.9375  9.54861111111111 12  9.375 12  L 0.625 12  C 0.451388888888889 12  0.303819444444444 11.9375  0.182291666666667 11.8125  C 0.0607638888888889 11.6875  0 11.5357142857143  0 11.3571428571429  L 0 0.642857142857143  C 0 0.464285714285714  0.0607638888888889 0.3125  0.182291666666667 0.1875  C 0.303819444444444 0.0625000000000004  0.451388888888889 0  0.625 0  L 6.45833333333333 0  C 6.63194444444445 0  6.82291666666667 0.0446428571428577  7.03125 0.133928571428572  C 7.23958333333333 0.223214285714286  7.40451388888889 0.330357142857142  7.52604166666667 0.455357142857143  Z M 6.93359375 1.05803571428571  C 6.88151041666667 1.00446428571429  6.79253472222222 0.955357142857141  6.66666666666667 0.910714285714285  L 6.66666666666667 3.42857142857143  L 9.11458333333333 3.42857142857143  C 9.07118055555556 3.29910714285714  9.0234375 3.20758928571429  8.97135416666667 3.15401785714286  L 6.93359375 1.05803571428571  Z M 1 11.1428571428571  L 9.16666666666667 11.1428571428571  L 9.16666666666667 4.28571428571428  L 6.45833333333333 4.28571428571428  C 6.28472222222222 4.28571428571428  6.13715277777778 4.22321428571428  6.015625 4.09821428571428  C 5.89409722222222 3.97321428571429  5.83333333333333 3.82142857142857  5.83333333333333 3.64285714285714  L 5.83333333333333 0.857142857142857  L 1 0.857142857142857  L 1 11.1428571428571  Z M 3.23567708333333 9.57589285714286  L 2.79296875 9.57589285714286  L 2.79296875 10.2857142857143  L 4.62239583333333 10.2857142857143  L 4.62239583333333 9.57589285714286  L 4.13411458333333 9.57589285714286  L 4.8046875 8.49776785714286  C 4.82638888888889 8.46651785714286  4.84809027777778 8.4296875  4.86979166666667 8.38727678571429  C 4.89149305555556 8.34486607142857  4.90776909722222 8.31473214285714  4.91861979166667 8.296875  C 4.92947048611111 8.27901785714286  4.93706597222222 8.27008928571429  4.94140625 8.27008928571429  L 4.95442708333333 8.27008928571429  C 4.95876736111111 8.28794642857143  4.96961805555556 8.31026785714286  4.98697916666667 8.33705357142857  C 4.99565972222222 8.35491071428571  5.00542534722222 8.37165178571428  5.01627604166667 8.38727678571429  C 5.02712673611111 8.40290178571428  5.04014756944445 8.42075892857143  5.05533854166667 8.44084821428571  C 5.07052951388889 8.4609375  5.08463541666667 8.47991071428571  5.09765625 8.49776785714286  L 5.79427083333333 9.57589285714286  L 5.29947916666667 9.57589285714286  L 5.29947916666667 10.2857142857143  L 7.19401041666667 10.2857142857143  L 7.19401041666667 9.57589285714286  L 6.75130208333333 9.57589285714286  L 5.50130208333333 7.74776785714286  L 6.77083333333333 5.859375  L 7.20703125 5.859375  L 7.20703125 5.14285714285714  L 5.390625 5.14285714285714  L 5.390625 5.859375  L 5.87239583333333 5.859375  L 5.20182291666667 6.92410714285714  C 5.18446180555556 6.95535714285714  5.16276041666667 6.9921875  5.13671875 7.03459821428571  C 5.11067708333333 7.07700892857143  5.09114583333333 7.10714285714286  5.078125 7.125  L 5.06510416666667 7.14508928571429  L 5.05208333333333 7.14508928571429  C 5.04774305555556 7.12723214285714  5.03689236111111 7.10491071428571  5.01953125 7.078125  C 4.99348958333333 7.02901785714286  4.95659722222222 6.97767857142857  4.90885416666667 6.92410714285714  L 4.21875 5.859375  L 4.71354166666667 5.859375  L 4.71354166666667 5.14285714285714  L 2.82552083333333 5.14285714285714  L 2.82552083333333 5.859375  L 3.26822916666667 5.859375  L 4.49869791666667 7.68080357142857  L 3.23567708333333 9.57589285714286  Z " fill-rule="nonzero" fill="#ffffff" stroke="none" transform="matrix(1 0 0 1 940 1402 )" />
  </g>
</svg>