<?xml version="1.0" encoding="utf-8"?>
<svg version="1.1" xmlns:xlink="http://www.w3.org/1999/xlink" width="15px" height="12px" xmlns="http://www.w3.org/2000/svg">
  <g transform="matrix(1 0 0 1 -931 -1748 )">
    <path d="M 0.267857142857143 6  L 14.7321428571429 6  C 14.8102678571429 6  14.8744419642857 6.0234375  14.9246651785714 6.0703125  C 14.9748883928571 6.1171875  15 6.17708333333333  15 6.25  L 15 6.75  C 15 6.82291666666667  14.9748883928571 6.8828125  14.9246651785714 6.9296875  C 14.8744419642857 6.9765625  14.8102678571429 7  14.7321428571429 7  L 0.267857142857143 7  C 0.189732142857143 7  0.125558035714286 6.9765625  0.0753348214285714 6.9296875  C 0.0251116071428571 6.8828125  0 6.82291666666667  0 6.75  L 0 6.25  C 0 6.17708333333333  0.0251116071428571 6.1171875  0.0753348214285714 6.0703125  C 0.125558035714286 6.0234375  0.189732142857143 6  0.267857142857143 6  Z M 10.2622767857143 5.5  L 4.04296875 5.5  C 3.88671875 5.31770833333333  3.74441964285714 5.109375  3.61607142857143 4.875  C 3.34821428571429 4.36458333333333  3.21428571428571 3.875  3.21428571428571 3.40625  C 3.21428571428571 2.46354166666667  3.58816964285714 1.65885416666667  4.3359375 0.9921875  C 5.078125 0.330729166666666  6.17466517857143 0  7.62555803571429 0  C 7.90457589285714 0  8.37053571428572 0.0494791666666661  9.0234375 0.1484375  C 9.39174107142857 0.2109375  9.88560267857143 0.3359375  10.5050223214286 0.5234375  C 10.5608258928571 0.721354166666667  10.6194196428571 1.02864583333333  10.6808035714286 1.4453125  C 10.7589285714286 2.0859375  10.7979910714286 2.5625  10.7979910714286 2.875  C 10.7979910714286 2.96875  10.7840401785714 3.0859375  10.7561383928571 3.2265625  L 10.6556919642857 3.25  L 9.95256696428572 3.203125  L 9.83537946428572 3.1875  C 9.55636160714286 2.41145833333333  9.26897321428572 1.87760416666667  8.97321428571428 1.5859375  C 8.48214285714286 1.11197916666667  7.89620535714286 0.875  7.21540178571429 0.875  C 6.57924107142857 0.875  6.07142857142857 1.02864583333333  5.69196428571429 1.3359375  C 5.31808035714286 1.63802083333333  5.13113839285714 2.01822916666667  5.13113839285714 2.4765625  C 5.13113839285714 2.85677083333333  5.31529017857143 3.22135416666667  5.68359375 3.5703125  C 6.05189732142857 3.91927083333333  6.83035714285714 4.25520833333333  8.01897321428572 4.578125  C 8.40401785714286 4.68229166666667  8.88671875 4.85416666666667  9.46707589285714 5.09375  C 9.79073660714286 5.23958333333333  10.0558035714286 5.375  10.2622767857143 5.5  Z M 9.43359375 8.0546875  C 9.24386160714286 7.90364583333333  8.86160714285714 7.71875  8.28683035714286 7.5  L 11.7271205357143 7.5  C 11.7661830357143 7.703125  11.7857142857143 7.94270833333333  11.7857142857143 8.21875  C 11.7857142857143 8.796875  11.6713169642857 9.34895833333333  11.4425223214286 9.875  C 11.3141741071429 10.1666666666667  11.1160714285714 10.4375  10.8482142857143 10.6875  C 10.6417410714286 10.8697916666667  10.3376116071429 11.0807291666667  9.93582589285714 11.3203125  C 9.48939732142857 11.5703125  9.0625 11.7421875  8.65513392857143 11.8359375  C 8.20870535714286 11.9453125  7.64229910714286 12  6.95591517857143 12  C 6.31975446428571 12  5.77566964285714 11.9401041666667  5.32366071428571 11.8203125  L 4.15178571428571 11.5078125  C 3.83370535714286 11.4244791666667  3.6328125 11.3515625  3.54910714285714 11.2890625  C 3.50446428571429 11.2473958333333  3.48214285714286 11.1901041666667  3.48214285714286 11.1171875  L 3.48214285714286 11.015625  C 3.48214285714286 10.453125  3.4765625 10.046875  3.46540178571429 9.796875  C 3.45982142857143 9.640625  3.45982142857143 9.46354166666667  3.46540178571429 9.265625  L 3.48214285714286 8.9765625  L 3.48214285714286 8.6328125  L 4.3359375 8.6171875  C 4.41964285714286 8.79427083333333  4.50334821428571 8.97916666666667  4.58705357142857 9.171875  C 4.67075892857143 9.36458333333333  4.73353794642857 9.51041666666667  4.775390625 9.609375  C 4.81724330357143 9.70833333333333  4.85212053571429 9.77864583333333  4.88002232142857 9.8203125  C 5.07533482142857 10.1171875  5.29854910714286 10.3619791666667  5.54966517857143 10.5546875  C 5.78962053571429 10.7421875  6.08258928571429 10.890625  6.42857142857143 11  C 6.7578125 11.1145833333333  7.12611607142857 11.171875  7.53348214285714 11.171875  C 7.890625 11.171875  8.27845982142857 11.1015625  8.69698660714286 10.9609375  C 9.12667410714286 10.8255208333333  9.46707589285714 10.6015625  9.71819196428572 10.2890625  C 9.98046875 9.97135416666667  10.1116071428571 9.63541666666667  10.1116071428571 9.28125  C 10.1116071428571 8.84375  9.88560267857143 8.43489583333333  9.43359375 8.0546875  Z " fill-rule="nonzero" fill="#ffffff" stroke="none" transform="matrix(1 0 0 1 931 1748 )" />
  </g>
</svg>