<?xml version="1.0" encoding="utf-8"?>
<svg version="1.1" xmlns:xlink="http://www.w3.org/1999/xlink" width="8px" height="9px" xmlns="http://www.w3.org/2000/svg">
  <g transform="matrix(1 0 0 1 -1220 -1416 )">
    <path d="M 7.91983967935872 8.01242236024845  C 7.97327989311957 8.07453416149068  8 8.14596273291925  8 8.22670807453416  C 8 8.30745341614907  7.97327989311957 8.37888198757764  7.91983967935872 8.44099378881988  L 7.51903807615231 8.90683229813665  C 7.46559786239145 8.96894409937888  7.40414161656647 9  7.33466933867735 9  C 7.26519706078824 9  7.20374081496326 8.96894409937888  7.1503006012024 8.90683229813665  L 4 5.24534161490683  L 0.849699398797595 8.90683229813665  C 0.79625918503674 8.96894409937888  0.734802939211757 9  0.665330661322645 9  C 0.595858383433534 9  0.534402137608551 8.96894409937888  0.480961923847695 8.90683229813665  L 0.0801603206412826 8.44099378881988  C 0.0267201068804276 8.37888198757764  0 8.30745341614907  0 8.22670807453416  C 0 8.14596273291925  0.0267201068804276 8.07453416149068  0.0801603206412826 8.01242236024845  L 3.81563126252505 3.67080745341615  C 3.86907147628591 3.60869565217391  3.93052772211089 3.57763975155279  4 3.57763975155279  C 4.06947227788911 3.57763975155279  4.1309285237141 3.60869565217391  4.18436873747495 3.67080745341615  L 7.91983967935872 8.01242236024845  Z M 7.91983967935872 4.43478260869565  C 7.97327989311957 4.49689440993789  8 4.56832298136646  8 4.64906832298137  C 8 4.72981366459627  7.97327989311957 4.80124223602484  7.91983967935872 4.86335403726708  L 7.51903807615231 5.32919254658385  C 7.46559786239145 5.39130434782609  7.40414161656647 5.42236024844721  7.33466933867735 5.42236024844721  C 7.26519706078824 5.42236024844721  7.20374081496326 5.39130434782609  7.1503006012024 5.32919254658385  L 4 1.66770186335404  L 0.849699398797595 5.32919254658385  C 0.79625918503674 5.39130434782609  0.734802939211757 5.42236024844721  0.665330661322645 5.42236024844721  C 0.595858383433534 5.42236024844721  0.534402137608551 5.39130434782609  0.480961923847695 5.32919254658385  L 0.0801603206412826 4.86335403726708  C 0.0267201068804276 4.80124223602484  0 4.72981366459627  0 4.64906832298137  C 0 4.56832298136646  0.0267201068804276 4.49689440993789  0.0801603206412826 4.43478260869565  L 3.81563126252505 0.0931677018633539  C 3.86907147628591 0.0310559006211173  3.93052772211089 0  4 0  C 4.06947227788911 0  4.1309285237141 0.0310559006211173  4.18436873747495 0.0931677018633539  L 7.91983967935872 4.43478260869565  Z " fill-rule="nonzero" fill="#000000" stroke="none" transform="matrix(1 0 0 1 1220 1416 )" />
  </g>
</svg>