<?xml version="1.0" encoding="utf-8"?>
<svg version="1.1" xmlns:xlink="http://www.w3.org/1999/xlink" width="13px" height="9px" xmlns="http://www.w3.org/2000/svg">
  <g transform="matrix(1 0 0 1 -2021 -1534 )">
    <path d="M 0.866666666666667 8.1  L 6.06666666666667 8.1  L 8.34166666666667 5.4  L 3.14166666666667 5.4  L 0.866666666666667 8.1  Z M 12.60390625 0.144140625  C 12.74609375 0.240234374999999  12.8532986111111 0.367968749999999  12.9255208333333 0.52734375  C 12.9932291666667 0.686718749999999  13.0146701388889 0.854296875  12.98984375 1.030078125  C 12.9650173611111 1.205859375  12.8961805555556 1.359375  12.7833333333333 1.490625  L 6.71666666666667 8.690625  C 6.54513888888889 8.896875  6.32847222222222 9  6.06666666666667 9  L 0.866666666666667 9  C 0.695138888888889 9  0.53828125 8.951953125  0.39609375 8.855859375  C 0.25390625 8.759765625  0.146701388888889 8.63203125  0.0744791666666667 8.47265625  C 0.00677083333333333 8.31328125  -0.0146701388888889 8.145703125  0.01015625 7.969921875  C 0.0349826388888889 7.794140625  0.103819444444444 7.640625  0.216666666666667 7.509375  L 6.28333333333333 0.309375  C 6.45486111111111 0.103124999999999  6.67152777777778 0  6.93333333333333 0  L 12.1333333333333 0  C 12.3048611111111 0  12.46171875 0.0480468749999993  12.60390625 0.144140625  Z " fill-rule="nonzero" fill="#ffffff" stroke="none" transform="matrix(1 0 0 1 2021 1534 )" />
  </g>
</svg>