<?xml version="1.0" encoding="utf-8"?>
<svg version="1.1" xmlns:xlink="http://www.w3.org/1999/xlink" width="10px" height="9px" xmlns="http://www.w3.org/2000/svg">
  <g transform="matrix(1 0 0 1 -1965 -1534 )">
    <path d="M 6.1328125 5.51953125  C 6.65965544871795 5.04537259615385  6.92307692307692 4.47475961538462  6.92307692307692 3.80769230769231  C 6.92307692307692 3.140625  6.65965544871795 2.57001201923077  6.1328125 2.09585336538462  C 5.60596955128205 1.62169471153846  4.97195512820513 1.38461538461538  4.23076923076923 1.38461538461538  C 3.48958333333333 1.38461538461538  2.85556891025641 1.62169471153846  2.32872596153846 2.09585336538462  C 1.80188301282051 2.57001201923077  1.53846153846154 3.140625  1.53846153846154 3.80769230769231  C 1.53846153846154 4.47475961538462  1.80188301282051 5.04537259615385  2.32872596153846 5.51953125  C 2.85556891025641 5.99368990384615  3.48958333333333 6.23076923076923  4.23076923076923 6.23076923076923  C 4.97195512820513 6.23076923076923  5.60596955128205 5.99368990384615  6.1328125 5.51953125  Z M 9.77764423076923 7.82091346153846  C 9.92588141025641 7.95432692307692  10 8.11658653846154  10 8.30769230769231  C 10 8.49519230769231  9.92387820512821 8.65745192307692  9.77163461538462 8.79447115384615  C 9.61939102564103 8.93149038461539  9.43910256410257 9  9.23076923076923 9  C 9.01442307692308 9  8.83413461538462 8.93149038461539  8.68990384615385 8.79447115384615  L 6.62860576923077 6.94471153846154  C 5.91145833333333 7.39182692307692  5.11217948717949 7.61538461538462  4.23076923076923 7.61538461538462  C 3.65785256410256 7.61538461538462  3.10997596153846 7.51532451923077  2.58713942307692 7.31520432692308  C 2.06430288461538 7.11508413461539  1.61358173076923 6.84465144230769  1.23497596153846 6.50390625  C 0.856370192307692 6.16316105769231  0.555889423076923 5.75751201923077  0.333533653846154 5.28695913461539  C 0.111177884615385 4.81640625  0 4.32331730769231  0 3.80769230769231  C 0 3.29206730769231  0.111177884615385 2.79897836538462  0.333533653846154 2.32842548076923  C 0.555889423076923 1.85787259615385  0.856370192307692 1.45222355769231  1.23497596153846 1.11147836538462  C 1.61358173076923 0.770733173076923  2.06430288461538 0.500300480769231  2.58713942307692 0.300180288461539  C 3.10997596153846 0.100060096153846  3.65785256410256 0  4.23076923076923 0  C 4.8036858974359 0  5.3515625 0.100060096153846  5.87439903846154 0.300180288461539  C 6.39723557692308 0.500300480769231  6.84795673076923 0.770733173076923  7.2265625 1.11147836538462  C 7.60516826923077 1.45222355769231  7.90564903846154 1.85787259615385  8.12800480769231 2.32842548076923  C 8.35036057692308 2.79897836538462  8.46153846153846 3.29206730769231  8.46153846153846 3.80769230769231  C 8.46153846153846 4.60096153846154  8.21314102564103 5.3203125  7.71634615384615 5.96574519230769  L 9.77764423076923 7.82091346153846  Z " fill-rule="nonzero" fill="#ffffff" stroke="none" transform="matrix(1 0 0 1 1965 1534 )" />
  </g>
</svg>