<?xml version="1.0" encoding="utf-8"?>
<svg version="1.1" xmlns:xlink="http://www.w3.org/1999/xlink" width="9px" height="10px" xmlns="http://www.w3.org/2000/svg">
  <g transform="matrix(1 0 0 1 -1934 -1807 )">
    <path d="M 6.7734375 0.379464285714286  L 8.6015625 2.12053571428571  C 8.7109375 2.22470238095238  8.8046875 2.36607142857143  8.8828125 2.54464285714286  C 8.9609375 2.72321428571429  9 2.88690476190476  9 3.03571428571429  L 9 9.46428571428571  C 9 9.61309523809524  8.9453125 9.73958333333333  8.8359375 9.84375  C 8.7265625 9.94791666666667  8.59375 10  8.4375 10  L 0.5625 10  C 0.40625 10  0.2734375 9.94791666666667  0.1640625 9.84375  C 0.0546875 9.73958333333333  0 9.61309523809524  0 9.46428571428571  L 0 0.535714285714286  C 0 0.386904761904762  0.0546875 0.260416666666666  0.1640625 0.15625  C 0.2734375 0.0520833333333337  0.40625 0  0.5625 0  L 5.8125 0  C 5.96875 0  6.140625 0.0372023809523814  6.328125 0.111607142857143  C 6.515625 0.186011904761905  6.6640625 0.275297619047619  6.7734375 0.379464285714286  Z M 6.240234375 0.881696428571429  C 6.193359375 0.837053571428571  6.11328125 0.796130952380951  6 0.758928571428571  L 6 2.85714285714286  L 8.203125 2.85714285714286  C 8.1640625 2.74925595238095  8.12109375 2.67299107142857  8.07421875 2.62834821428571  L 6.240234375 0.881696428571429  Z M 0.75 9.28571428571429  L 8.25 9.28571428571429  L 8.25 3.57142857142857  L 5.8125 3.57142857142857  C 5.65625 3.57142857142857  5.5234375 3.51934523809524  5.4140625 3.41517857142857  C 5.3046875 3.3110119047619  5.25 3.18452380952381  5.25 3.03571428571429  L 5.25 0.714285714285714  L 0.75 0.714285714285714  L 0.75 9.28571428571429  Z M 2.912109375 7.97991071428571  L 2.513671875 7.97991071428571  L 2.513671875 8.57142857142857  L 4.16015625 8.57142857142857  L 4.16015625 7.97991071428571  L 3.720703125 7.97991071428571  L 4.32421875 7.08147321428571  C 4.34375 7.05543154761905  4.36328125 7.02473958333333  4.3828125 6.98939732142857  C 4.40234375 6.95405505952381  4.4169921875 6.92894345238095  4.4267578125 6.9140625  C 4.4365234375 6.89918154761905  4.443359375 6.89174107142857  4.447265625 6.89174107142857  L 4.458984375 6.89174107142857  C 4.462890625 6.90662202380952  4.47265625 6.92522321428571  4.48828125 6.94754464285714  C 4.49609375 6.96242559523809  4.5048828125 6.97637648809524  4.5146484375 6.98939732142857  C 4.5244140625 7.00241815476191  4.5361328125 7.01729910714286  4.5498046875 7.03404017857143  C 4.5634765625 7.05078125  4.576171875 7.06659226190476  4.587890625 7.08147321428571  L 5.21484375 7.97991071428571  L 4.76953125 7.97991071428571  L 4.76953125 8.57142857142857  L 6.474609375 8.57142857142857  L 6.474609375 7.97991071428571  L 6.076171875 7.97991071428571  L 4.951171875 6.45647321428571  L 6.09375 4.8828125  L 6.486328125 4.8828125  L 6.486328125 4.28571428571429  L 4.8515625 4.28571428571429  L 4.8515625 4.8828125  L 5.28515625 4.8828125  L 4.681640625 5.77008928571429  C 4.666015625 5.79613095238095  4.646484375 5.82682291666667  4.623046875 5.86216517857143  C 4.599609375 5.89750744047619  4.58203125 5.92261904761905  4.5703125 5.9375  L 4.55859375 5.95424107142857  L 4.546875 5.95424107142857  C 4.54296875 5.93936011904762  4.533203125 5.92075892857143  4.517578125 5.8984375  C 4.494140625 5.85751488095238  4.4609375 5.81473214285714  4.41796875 5.77008928571429  L 3.796875 4.8828125  L 4.2421875 4.8828125  L 4.2421875 4.28571428571429  L 2.54296875 4.28571428571429  L 2.54296875 4.8828125  L 2.94140625 4.8828125  L 4.048828125 6.40066964285714  L 2.912109375 7.97991071428571  Z " fill-rule="nonzero" fill="#ffffff" stroke="none" transform="matrix(1 0 0 1 1934 1807 )" />
  </g>
</svg>