<?xml version="1.0" encoding="utf-8"?>
<svg version="1.1" xmlns:xlink="http://www.w3.org/1999/xlink" width="16px" height="13px" xmlns="http://www.w3.org/2000/svg">
  <g transform="matrix(1 0 0 1 -2076 -1385 )">
    <path d="M 15.6228956228956 9.71717171717172  C 15.8742985409652 9.92143658810325  16 10.1694725028058  16 10.4612794612795  C 16 10.7530864197531  15.8742985409652 11.0011223344557  15.6228956228956 11.2053872053872  L 13.7912457912458 12.6936026936027  C 13.5398428731762 12.8978675645342  13.2345679012346 13  12.8754208754209 13  C 12.5162738496072 13  12.2109988776655 12.8978675645342  11.959595959596 12.6936026936027  L 8 9.47643097643098  L 4.04040404040404 12.6936026936027  C 3.78900112233446 12.8978675645342  3.48372615039282 13  3.12457912457912 13  C 2.76543209876543 13  2.46015712682379 12.8978675645342  2.20875420875421 12.6936026936027  L 0.377104377104377 11.2053872053872  C 0.125701459034792 11.0011223344557  0 10.7530864197531  0 10.4612794612795  C 0 10.1694725028058  0.125701459034792 9.92143658810325  0.377104377104377 9.71717171717172  L 4.33670033670034 6.5  L 0.377104377104377 3.28282828282828  C 0.125701459034792 3.07856341189674  0 2.83052749719416  0 2.53872053872054  C 0 2.24691358024691  0.125701459034792 1.99887766554433  0.377104377104377 1.79461279461279  L 2.20875420875421 0.306397306397306  C 2.46015712682379 0.102132435465768  2.76543209876543 0  3.12457912457912 0  C 3.48372615039282 0  3.78900112233446 0.102132435465768  4.04040404040404 0.306397306397306  L 8 3.52356902356902  L 11.959595959596 0.306397306397306  C 12.2109988776655 0.102132435465768  12.5162738496072 0  12.8754208754209 0  C 13.2345679012346 0  13.5398428731762 0.102132435465768  13.7912457912458 0.306397306397306  L 15.6228956228956 1.79461279461279  C 15.8742985409652 1.99887766554433  16 2.24691358024691  16 2.53872053872054  C 16 2.83052749719416  15.8742985409652 3.07856341189674  15.6228956228956 3.28282828282828  L 11.6632996632997 6.5  L 15.6228956228956 9.71717171717172  Z " fill-rule="nonzero" fill="#000000" stroke="none" transform="matrix(1 0 0 1 2076 1385 )" />
  </g>
</svg>