<?xml version="1.0" encoding="utf-8"?>
<svg version="1.1" xmlns:xlink="http://www.w3.org/1999/xlink" width="6px" height="10px" xmlns="http://www.w3.org/2000/svg">
  <g transform="matrix(1 0 0 1 -66 -637 )">
    <path d="M 5.80208333333333 0.185546875  C 5.93402777777778 0.309244791666665  6 0.455729166666665  6 0.625  L 6 9.375  C 6 9.54427083333333  5.93402777777778 9.69075520833333  5.80208333333333 9.814453125  C 5.67013888888889 9.93815104166667  5.51388888888889 10  5.33333333333333 10  C 5.15277777777778 10  4.99652777777778 9.93815104166667  4.86458333333333 9.814453125  L 0.197916666666667 5.439453125  C 0.0659722222222223 5.31575520833333  0 5.16927083333333  0 5  C 0 4.83072916666667  0.0659722222222223 4.68424479166667  0.197916666666667 4.560546875  L 4.86458333333333 0.185546875  C 4.99652777777778 0.0618489583333326  5.15277777777778 0  5.33333333333333 0  C 5.51388888888889 0  5.67013888888889 0.0618489583333326  5.80208333333333 0.185546875  Z " fill-rule="nonzero" fill="#000000" stroke="none" transform="matrix(1 0 0 1 66 637 )" />
  </g>
</svg>