<?xml version="1.0" encoding="utf-8"?>
<svg version="1.1" xmlns:xlink="http://www.w3.org/1999/xlink" width="10px" height="9px" xmlns="http://www.w3.org/2000/svg">
  <g transform="matrix(1 0 0 1 -1148 -213 )">
    <path d="M 9.76251604621309 5.27983816587997  C 9.92083868207103 5.12204989885367  10 4.93796358732299  10 4.72757923128793  C 10 4.51314902225219  9.92083868207103 4.33108563722185  9.76251604621309 4.1813890761969  L 5.58408215661104 0.224544841537424  C 5.41720154043646 0.0748482805124744  5.22250748823278 0  5 0  C 4.7732135216089 0  4.58065896448438 0.0748482805124744  4.42233632862644 0.224544841537424  L 0.24390243902439 4.1813890761969  C 0.0813008130081301 4.32703978422117  0 4.50910316925152  0 4.72757923128793  C 0 4.94200944032367  0.0813008130081301 5.12609575185435  0.24390243902439 5.27983816587997  L 0.718870346598203 5.73499662845583  C 0.885750962772786 5.88469318948078  1.08044501497647 5.95954146999326  1.30295250320924 5.95954146999326  C 1.52973898160034 5.95954146999326  1.72229353872486 5.88469318948078  1.8806161745828 5.73499662845583  L 3.76765083440308 3.95077545515846  L 3.76765083440308 8.22319622387053  C 3.76765083440308 8.4335805799056  3.84895164741121 8.61564396493594  4.01155327342747 8.76938637896156  C 4.17415489944373 8.92312879298719  4.36670945656825 9  4.58921694480103 9  L 5.41078305519897 9  C 5.63329054343175 9  5.82584510055627 8.92312879298719  5.98844672657253 8.76938637896156  C 6.15104835258879 8.61564396493594  6.23234916559692 8.4335805799056  6.23234916559692 8.22319622387053  L 6.23234916559692 3.95077545515846  L 8.1193838254172 5.73499662845583  C 8.27770646127514 5.88469318948078  8.47026101839966 5.95954146999326  8.69704749679076 5.95954146999326  C 8.91955498502353 5.95954146999326  9.11424903722721 5.88469318948078  9.2811296534018 5.73499662845583  L 9.76251604621309 5.27983816587997  Z " fill-rule="nonzero" fill="#ffffff" stroke="none" transform="matrix(1 0 0 1 1148 213 )" />
  </g>
</svg>