<?xml version="1.0" encoding="utf-8"?>
<svg version="1.1" xmlns:xlink="http://www.w3.org/1999/xlink" width="268px" height="23px" xmlns="http://www.w3.org/2000/svg">
  <defs>
    <mask fill="white" id="clip51">
      <path d="M 0 22  L 0 0  L 268 0  L 268 22  L 42.6321601104211 22  L 0 22  Z " fill-rule="evenodd" />
    </mask>
    <filter x="532px" y="9px" width="268px" height="23px" filterUnits="userSpaceOnUse" id="filter52">
      <feOffset dx="0" dy="-1" in="SourceAlpha" result="shadowOffsetInner" />
      <feGaussianBlur stdDeviation="0" in="shadowOffsetInner" result="shadowGaussian" />
      <feComposite in2="shadowGaussian" operator="atop" in="SourceAlpha" result="shadowComposite" />
      <feColorMatrix type="matrix" values="0 0 0 0 0.949019607843137  0 0 0 0 0.949019607843137  0 0 0 0 0.949019607843137  0 0 0 0.501960784313725 0  " in="shadowComposite" />
    </filter>
    <g id="widget53">
      <path d="M 0 22  L 0 0  L 268 0  L 268 22  L 42.6321601104211 22  L 0 22  Z " fill-rule="nonzero" fill="#ffffff" stroke="none" transform="matrix(1 0 0 1 532 10 )" />
      <path d="M 0 22  L 0 0  L 268 0  L 268 22  L 42.6321601104211 22  L 0 22  Z " stroke-width="2" stroke="#3d3e53" fill="none" stroke-opacity="0.23921568627451" transform="matrix(1 0 0 1 532 10 )" mask="url(#clip51)" />
    </g>
  </defs>
  <g transform="matrix(1 0 0 1 -532 -9 )">
    <use xlink:href="#widget53" filter="url(#filter52)" />
    <use xlink:href="#widget53" />
  </g>
</svg>