<?xml version="1.0" encoding="utf-8"?>
<svg version="1.1" xmlns:xlink="http://www.w3.org/1999/xlink" width="11px" height="10px" xmlns="http://www.w3.org/2000/svg">
  <g transform="matrix(1 0 0 1 -1170 -16 )">
    <path d="M 6.74609375 6.1328125  C 7.32562099358974 5.60596955128205  7.61538461538462 4.97195512820513  7.61538461538462 4.23076923076923  C 7.61538461538462 3.48958333333333  7.32562099358974 2.85556891025641  6.74609375 2.32872596153846  C 6.16656650641026 1.80188301282051  5.46915064102564 1.53846153846154  4.65384615384615 1.53846153846154  C 3.83854166666667 1.53846153846154  3.14112580128205 1.80188301282051  2.56159855769231 2.32872596153846  C 1.98207131410256 2.85556891025641  1.69230769230769 3.48958333333333  1.69230769230769 4.23076923076923  C 1.69230769230769 4.97195512820513  1.98207131410256 5.60596955128205  2.56159855769231 6.1328125  C 3.14112580128205 6.65965544871795  3.83854166666667 6.92307692307692  4.65384615384615 6.92307692307692  C 5.46915064102564 6.92307692307692  6.16656650641026 6.65965544871795  6.74609375 6.1328125  Z M 10.7554086538462 8.68990384615385  C 10.9184695512821 8.83814102564103  11 9.01842948717949  11 9.23076923076923  C 11 9.43910256410257  10.916266025641 9.61939102564103  10.7487980769231 9.77163461538462  C 10.5813301282051 9.9238782051282  10.3830128205128 10  10.1538461538462 10  C 9.91586538461539 10  9.71754807692308 9.9238782051282  9.55889423076923 9.77163461538462  L 7.29146634615385 7.71634615384615  C 6.50260416666667 8.21314102564103  5.62339743589744 8.46153846153846  4.65384615384615 8.46153846153846  C 4.02363782051282 8.46153846153846  3.42097355769231 8.35036057692308  2.84585336538462 8.12800480769231  C 2.27073317307692 7.90564903846154  1.77493990384615 7.60516826923077  1.35847355769231 7.2265625  C 0.942007211538462 6.84795673076923  0.611478365384616 6.39723557692308  0.366887019230769 5.87439903846154  C 0.122295673076923 5.3515625  0 4.8036858974359  0 4.23076923076923  C 0 3.65785256410256  0.122295673076923 3.10997596153846  0.366887019230769 2.58713942307692  C 0.611478365384616 2.06430288461538  0.942007211538462 1.61358173076923  1.35847355769231 1.23497596153846  C 1.77493990384615 0.856370192307693  2.27073317307692 0.555889423076923  2.84585336538462 0.333533653846154  C 3.42097355769231 0.111177884615384  4.02363782051282 0  4.65384615384615 0  C 5.28405448717949 0  5.88671875 0.111177884615384  6.46183894230769 0.333533653846154  C 7.03695913461539 0.555889423076923  7.53275240384615 0.856370192307693  7.94921875 1.23497596153846  C 8.36568509615384 1.61358173076923  8.69621394230769 2.06430288461538  8.94080528846154 2.58713942307692  C 9.18539663461539 3.10997596153846  9.30769230769231 3.65785256410256  9.30769230769231 4.23076923076923  C 9.30769230769231 5.11217948717949  9.03445512820513 5.91145833333333  8.48798076923077 6.62860576923077  L 10.7554086538462 8.68990384615385  Z " fill-rule="nonzero" fill="#3d3e53" stroke="none" transform="matrix(1 0 0 1 1170 16 )" />
  </g>
</svg>