<?xml version="1.0" encoding="utf-8"?>
<svg version="1.1" xmlns:xlink="http://www.w3.org/1999/xlink" width="49px" height="27px" xmlns="http://www.w3.org/2000/svg">
  <defs>
    <mask fill="white" id="clip68">
      <path d="M 0 22.75  L 0 3.25  C 0 1.42999999999993  0.989999999999952 0  2.25 0  L 45.75 0  C 47.01 0  48 1.42999999999993  48 3.25  L 48 22.75  C 48 24.5700000000001  47.01 26  45.75 26  L 27.2238805970149 26  L 19.1648936170213 26  L 2.25 26  C 0.989999999999952 26  0 24.5700000000001  0 22.75  Z " fill-rule="evenodd" />
    </mask>
    <filter x="605px" y="1031px" width="49px" height="27px" filterUnits="userSpaceOnUse" id="filter69">
      <feOffset dx="1" dy="1" in="SourceAlpha" result="shadowOffsetInner" />
      <feGaussianBlur stdDeviation="0" in="shadowOffsetInner" result="shadowGaussian" />
      <feComposite in2="shadowGaussian" operator="atop" in="SourceAlpha" result="shadowComposite" />
      <feColorMatrix type="matrix" values="0 0 0 0 0  0 0 0 0 0  0 0 0 0 0  0 0 0 0.12156862745098 0  " in="shadowComposite" />
    </filter>
    <g id="widget70">
      <path d="M 0 22.75  L 0 3.25  C 0 1.42999999999993  0.989999999999952 0  2.25 0  L 45.75 0  C 47.01 0  48 1.42999999999993  48 3.25  L 48 22.75  C 48 24.5700000000001  47.01 26  45.75 26  L 27.2238805970149 26  L 19.1648936170213 26  L 2.25 26  C 0.989999999999952 26  0 24.5700000000001  0 22.75  Z " fill-rule="nonzero" fill="#ffffff" stroke="none" transform="matrix(1 0 0 1 605 1031 )" />
      <path d="M 0 22.75  L 0 3.25  C 0 1.42999999999993  0.989999999999952 0  2.25 0  L 45.75 0  C 47.01 0  48 1.42999999999993  48 3.25  L 48 22.75  C 48 24.5700000000001  47.01 26  45.75 26  L 27.2238805970149 26  L 19.1648936170213 26  L 2.25 26  C 0.989999999999952 26  0 24.5700000000001  0 22.75  Z " stroke-width="2" stroke="#f2f2f2" fill="none" transform="matrix(1 0 0 1 605 1031 )" mask="url(#clip68)" />
    </g>
  </defs>
  <g transform="matrix(1 0 0 1 -605 -1031 )">
    <use xlink:href="#widget70" filter="url(#filter69)" />
    <use xlink:href="#widget70" />
  </g>
</svg>