<?xml version="1.0" encoding="utf-8"?>
<svg version="1.1" xmlns:xlink="http://www.w3.org/1999/xlink" width="10px" height="13px" xmlns="http://www.w3.org/2000/svg">
  <g transform="matrix(1 0 0 1 -425 -19 )">
    <path d="M 6.09055501460565 12.9122869318182  C 6.02888672508926 12.9707623106061  5.95585848750406 13  5.87147030185005 13  L 4.1966893865628 13  C 4.1123012009088 13  4.0392729633236 12.9723011363636  3.97760467380721 12.9169034090909  C 3.91593638429082 12.8615056818182  3.88510223953262 12.7907196969697  3.88510223953262 12.7045454545455  L 3.88510223953262 9.65767045454546  L 1.08081791626095 9.65767045454546  C 0.996429730606946 9.65767045454546  0.923401493021746 9.62997159090909  0.861733203505355 9.57457386363637  C 0.800064913988965 9.51917613636363  0.769230769230769 9.44839015151515  0.769230769230769 9.36221590909091  L 0.769230769230769 8.41122159090909  C 0.769230769230769 8.33120265151515  0.800064913988965 8.26195549242424  0.861733203505355 8.20348011363637  C 0.923401493021746 8.14500473484848  0.996429730606946 8.11576704545455  1.08081791626095 8.11576704545455  L 3.88510223953262 8.11576704545455  L 3.88510223953262 7.33096590909091  L 1.08081791626095 7.33096590909091  C 0.996429730606946 7.33096590909091  0.923401493021746 7.30326704545455  0.861733203505355 7.24786931818182  C 0.800064913988965 7.19247159090909  0.769230769230769 7.12168560606061  0.769230769230769 7.03551136363636  L 0.769230769230769 6.07528409090909  C 0.769230769230769 5.99526515151515  0.800064913988965 5.92601799242424  0.861733203505355 5.86754261363636  C 0.923401493021746 5.80906723484848  0.996429730606946 5.77982954545455  1.08081791626095 5.77982954545455  L 3.16455696202532 5.77982954545455  L 0.0389483933787731 0.443181818181818  C -0.0129827977929244 0.344696969696969  -0.0129827977929244 0.24621212121212  0.0389483933787731 0.147727272727273  C 0.103862382343395 0.0492424242424242  0.194741966893866 0  0.311587147030185 0  L 2.20058422590068 0  C 2.32392080493346 0  2.41804608893217 0.0553977272727274  2.48296007789679 0.166193181818182  L 4.57643622200584 4.09019886363636  C 4.69977280103863 4.32410037878788  4.88153197013957 4.70880681818182  5.12171372930867 5.24431818181818  C 5.18662771827329 5.09659090909091  5.28562155144434 4.8873106060606  5.41869522882181 4.61647727272727  C 5.55176890619929 4.34564393939394  5.64102564102564 4.1579071969697  5.68646543330088 4.05326704545455  L 7.54625121713729 0.175426136363637  C 7.59818240830899 0.0584753787878776  7.69230769230769 0  7.8286270691334 0  L 9.68841285296982 0  C 9.79876663420967 0  9.88640051931191 0.0492424242424242  9.95131450827653 0.147727272727273  C 10.0097370983447 0.233901515151515  10.0129827977929 0.329308712121211  9.96105160662123 0.433948863636363  L 6.91333982473223 5.77982954545455  L 9.00681596884129 5.77982954545455  C 9.09120415449529 5.77982954545455  9.16423239208049 5.80906723484848  9.22590068159688 5.86754261363636  C 9.28756897111328 5.92601799242424  9.31840311587147 5.99526515151515  9.31840311587147 6.07528409090909  L 9.31840311587147 7.03551136363636  C 9.31840311587147 7.12168560606061  9.28756897111328 7.19247159090909  9.22590068159688 7.24786931818182  C 9.16423239208049 7.30326704545455  9.09120415449529 7.33096590909091  9.00681596884129 7.33096590909091  L 6.18305744888023 7.33096590909091  L 6.18305744888023 8.11576704545455  L 9.00681596884129 8.11576704545455  C 9.09120415449529 8.11576704545455  9.16423239208049 8.14500473484848  9.22590068159688 8.20348011363637  C 9.28756897111328 8.26195549242424  9.31840311587147 8.33120265151515  9.31840311587147 8.41122159090909  L 9.31840311587147 9.36221590909091  C 9.31840311587147 9.44839015151515  9.28756897111328 9.51917613636363  9.22590068159688 9.57457386363637  C 9.16423239208049 9.62997159090909  9.09120415449529 9.65767045454546  9.00681596884129 9.65767045454546  L 6.18305744888023 9.65767045454546  L 6.18305744888023 12.7045454545455  C 6.18305744888023 12.7845643939394  6.15222330412204 12.8538115530303  6.09055501460565 12.9122869318182  Z " fill-rule="nonzero" fill="#ffffff" stroke="none" transform="matrix(1 0 0 1 425 19 )" />
  </g>
</svg>