<?xml version="1.0" encoding="utf-8"?>
<svg version="1.1" xmlns:xlink="http://www.w3.org/1999/xlink" width="161px" height="23px" xmlns="http://www.w3.org/2000/svg">
  <defs>
    <mask fill="white" id="clip535">
      <path d="M 0 22  L 0 0  L 161 0  L 161 22  L 23.1513277843837 22  L 0 22  Z " fill-rule="evenodd" />
    </mask>
    <filter x="743px" y="143px" width="161px" height="23px" filterUnits="userSpaceOnUse" id="filter536">
      <feOffset dx="0" dy="-1" in="SourceAlpha" result="shadowOffsetInner" />
      <feGaussianBlur stdDeviation="0" in="shadowOffsetInner" result="shadowGaussian" />
      <feComposite in2="shadowGaussian" operator="atop" in="SourceAlpha" result="shadowComposite" />
      <feColorMatrix type="matrix" values="0 0 0 0 0.23921568627451  0 0 0 0 0.243137254901961  0 0 0 0 0.325490196078431  0 0 0 0.501960784313725 0  " in="shadowComposite" />
    </filter>
    <g id="widget537">
      <path d="M 0 22  L 0 0  L 161 0  L 161 22  L 23.1513277843837 22  L 0 22  Z " fill-rule="nonzero" fill="#fff6c8" stroke="none" transform="matrix(1 0 0 1 743 144 )" />
      <path d="M 0 22  L 0 0  L 161 0  L 161 22  L 23.1513277843837 22  L 0 22  Z " stroke-width="2" stroke="#3d3e53" fill="none" stroke-opacity="0.23921568627451" transform="matrix(1 0 0 1 743 144 )" mask="url(#clip535)" />
    </g>
  </defs>
  <g transform="matrix(1 0 0 1 -743 -143 )">
    <use xlink:href="#widget537" filter="url(#filter536)" />
    <use xlink:href="#widget537" />
  </g>
</svg>