<?xml version="1.0" encoding="utf-8"?>
<svg version="1.1" xmlns:xlink="http://www.w3.org/1999/xlink" width="9px" height="10px" xmlns="http://www.w3.org/2000/svg">
  <g transform="matrix(1 0 0 1 -217 -220 )">
    <path d="M 5.51953125 6.1328125  C 5.99368990384615 5.60596955128205  6.23076923076923 4.97195512820513  6.23076923076923 4.23076923076923  C 6.23076923076923 3.48958333333333  5.99368990384615 2.85556891025641  5.51953125 2.32872596153846  C 5.04537259615385 1.80188301282051  4.47475961538462 1.53846153846154  3.80769230769231 1.53846153846154  C 3.140625 1.53846153846154  2.57001201923077 1.80188301282051  2.09585336538462 2.32872596153846  C 1.62169471153846 2.85556891025641  1.38461538461538 3.48958333333333  1.38461538461538 4.23076923076923  C 1.38461538461538 4.97195512820513  1.62169471153846 5.60596955128205  2.09585336538462 6.1328125  C 2.57001201923077 6.65965544871795  3.140625 6.92307692307692  3.80769230769231 6.92307692307692  C 4.47475961538462 6.92307692307692  5.04537259615385 6.65965544871795  5.51953125 6.1328125  Z M 8.79987980769231 8.68990384615385  C 8.93329326923077 8.83814102564103  9 9.01842948717949  9 9.23076923076923  C 9 9.43910256410257  8.93149038461539 9.61939102564103  8.79447115384615 9.77163461538462  C 8.65745192307692 9.9238782051282  8.49519230769231 10  8.30769230769231 10  C 8.11298076923077 10  7.95072115384615 9.9238782051282  7.82091346153846 9.77163461538462  L 5.96574519230769 7.71634615384615  C 5.3203125 8.21314102564103  4.60096153846154 8.46153846153846  3.80769230769231 8.46153846153846  C 3.29206730769231 8.46153846153846  2.79897836538462 8.35036057692308  2.32842548076923 8.12800480769231  C 1.85787259615385 7.90564903846154  1.45222355769231 7.60516826923077  1.11147836538462 7.2265625  C 0.770733173076923 6.84795673076923  0.500300480769231 6.39723557692308  0.300180288461538 5.87439903846154  C 0.100060096153846 5.3515625  0 4.8036858974359  0 4.23076923076923  C 0 3.65785256410256  0.100060096153846 3.10997596153846  0.300180288461538 2.58713942307692  C 0.500300480769231 2.06430288461538  0.770733173076923 1.61358173076923  1.11147836538462 1.23497596153846  C 1.45222355769231 0.856370192307693  1.85787259615385 0.555889423076923  2.32842548076923 0.333533653846154  C 2.79897836538462 0.111177884615384  3.29206730769231 0  3.80769230769231 0  C 4.32331730769231 0  4.81640625 0.111177884615384  5.28695913461539 0.333533653846154  C 5.75751201923077 0.555889423076923  6.16316105769231 0.856370192307693  6.50390625 1.23497596153846  C 6.84465144230769 1.61358173076923  7.11508413461539 2.06430288461538  7.31520432692308 2.58713942307692  C 7.51532451923077 3.10997596153846  7.61538461538462 3.65785256410256  7.61538461538462 4.23076923076923  C 7.61538461538462 5.11217948717949  7.39182692307692 5.91145833333333  6.94471153846154 6.62860576923077  L 8.79987980769231 8.68990384615385  Z " fill-rule="nonzero" fill="#000000" stroke="none" transform="matrix(1 0 0 1 217 220 )" />
  </g>
</svg>