<?xml version="1.0" encoding="utf-8"?>
<svg version="1.1" xmlns:xlink="http://www.w3.org/1999/xlink" width="11px" height="10px" xmlns="http://www.w3.org/2000/svg">
  <g transform="matrix(1 0 0 1 -1164 -858 )">
    <path d="M 8.27864583333333 0.379464285714286  L 10.5130208333333 2.12053571428571  C 10.6467013888889 2.22470238095238  10.7612847222222 2.36607142857143  10.8567708333333 2.54464285714286  C 10.9522569444444 2.72321428571429  11 2.88690476190476  11 3.03571428571429  L 11 9.46428571428571  C 11 9.61309523809524  10.9331597222222 9.73958333333333  10.7994791666667 9.84375  C 10.6657986111111 9.94791666666667  10.5034722222222 10  10.3125 10  L 0.6875 10  C 0.496527777777778 10  0.334201388888889 9.94791666666667  0.200520833333333 9.84375  C 0.0668402777777778 9.73958333333333  0 9.61309523809524  0 9.46428571428571  L 0 0.535714285714286  C 0 0.386904761904762  0.0668402777777778 0.260416666666666  0.200520833333333 0.15625  C 0.334201388888889 0.0520833333333337  0.496527777777778 0  0.6875 0  L 7.10416666666667 0  C 7.29513888888889 0  7.50520833333333 0.0372023809523814  7.734375 0.111607142857143  C 7.96354166666667 0.186011904761905  8.14496527777778 0.275297619047619  8.27864583333333 0.379464285714286  Z M 7.626953125 0.881696428571429  C 7.56966145833333 0.837053571428571  7.47178819444445 0.796130952380951  7.33333333333333 0.758928571428571  L 7.33333333333333 2.85714285714286  L 10.0260416666667 2.85714285714286  C 9.97829861111111 2.74925595238095  9.92578125 2.67299107142857  9.86848958333333 2.62834821428571  L 7.626953125 0.881696428571429  Z M 0.916666666666667 9.28571428571429  L 10.0833333333333 9.28571428571429  L 10.0833333333333 3.57142857142857  L 7.10416666666667 3.57142857142857  C 6.91319444444444 3.57142857142857  6.75086805555556 3.51934523809524  6.6171875 3.41517857142857  C 6.48350694444444 3.3110119047619  6.41666666666667 3.18452380952381  6.41666666666667 3.03571428571429  L 6.41666666666667 0.714285714285714  L 0.916666666666667 0.714285714285714  L 0.916666666666667 9.28571428571429  Z M 3.55924479166667 7.97991071428571  L 3.072265625 7.97991071428571  L 3.072265625 8.57142857142857  L 5.08463541666667 8.57142857142857  L 5.08463541666667 7.97991071428571  L 4.54752604166667 7.97991071428571  L 5.28515625 7.08147321428571  C 5.30902777777778 7.05543154761905  5.33289930555556 7.02473958333333  5.35677083333333 6.98939732142857  C 5.38064236111111 6.95405505952381  5.39854600694444 6.92894345238095  5.41048177083333 6.9140625  C 5.42241753472222 6.89918154761905  5.43077256944444 6.89174107142857  5.435546875 6.89174107142857  L 5.44986979166667 6.89174107142857  C 5.45464409722222 6.90662202380952  5.46657986111111 6.92522321428571  5.48567708333333 6.94754464285714  C 5.49522569444444 6.96242559523809  5.50596788194444 6.97637648809524  5.51790364583333 6.98939732142857  C 5.52983940972222 7.00241815476191  5.54416232638889 7.01729910714286  5.56087239583333 7.03404017857143  C 5.57758246527778 7.05078125  5.59309895833333 7.06659226190476  5.607421875 7.08147321428571  L 6.37369791666667 7.97991071428571  L 5.82942708333333 7.97991071428571  L 5.82942708333333 8.57142857142857  L 7.91341145833333 8.57142857142857  L 7.91341145833333 7.97991071428571  L 7.42643229166667 7.97991071428571  L 6.05143229166667 6.45647321428571  L 7.44791666666667 4.8828125  L 7.927734375 4.8828125  L 7.927734375 4.28571428571429  L 5.9296875 4.28571428571429  L 5.9296875 4.8828125  L 6.45963541666667 4.8828125  L 5.72200520833333 5.77008928571429  C 5.70290798611111 5.79613095238095  5.67903645833333 5.82682291666667  5.650390625 5.86216517857143  C 5.62174479166667 5.89750744047619  5.60026041666667 5.92261904761905  5.5859375 5.9375  L 5.57161458333333 5.95424107142857  L 5.55729166666667 5.95424107142857  C 5.55251736111111 5.93936011904762  5.54058159722222 5.92075892857143  5.521484375 5.8984375  C 5.49283854166667 5.85751488095238  5.45225694444444 5.81473214285714  5.39973958333333 5.77008928571429  L 4.640625 4.8828125  L 5.18489583333333 4.8828125  L 5.18489583333333 4.28571428571429  L 3.10807291666667 4.28571428571429  L 3.10807291666667 4.8828125  L 3.59505208333333 4.8828125  L 4.94856770833333 6.40066964285714  L 3.55924479166667 7.97991071428571  Z " fill-rule="nonzero" fill="#ffffff" stroke="none" transform="matrix(1 0 0 1 1164 858 )" />
  </g>
</svg>