<?xml version="1.0" encoding="utf-8"?>
<svg version="1.1" xmlns:xlink="http://www.w3.org/1999/xlink" width="18px" height="16px" xmlns="http://www.w3.org/2000/svg">
  <g transform="matrix(1 0 0 1 -373 -208 )">
    <path d="M 1.38461538461538 12.2857142857143  L 1.38461538461538 14.8571428571429  L 4.5 14.8571428571429  L 4.5 12.2857142857143  L 1.38461538461538 12.2857142857143  Z M 5.19230769230769 12.2857142857143  L 5.19230769230769 14.8571428571429  L 8.65384615384615 14.8571428571429  L 8.65384615384615 12.2857142857143  L 5.19230769230769 12.2857142857143  Z M 1.38461538461538 8.85714285714286  L 1.38461538461538 11.7142857142857  L 4.5 11.7142857142857  L 4.5 8.85714285714286  L 1.38461538461538 8.85714285714286  Z M 5.19230769230769 8.85714285714286  L 5.19230769230769 11.7142857142857  L 8.65384615384615 11.7142857142857  L 8.65384615384615 8.85714285714286  L 5.19230769230769 8.85714285714286  Z M 1.38461538461538 5.71428571428571  L 1.38461538461538 8.28571428571428  L 4.5 8.28571428571428  L 4.5 5.71428571428571  L 1.38461538461538 5.71428571428571  Z M 9.34615384615385 12.2857142857143  L 9.34615384615385 14.8571428571429  L 12.8076923076923 14.8571428571429  L 12.8076923076923 12.2857142857143  L 9.34615384615385 12.2857142857143  Z M 5.19230769230769 5.71428571428571  L 5.19230769230769 8.28571428571428  L 8.65384615384615 8.28571428571428  L 8.65384615384615 5.71428571428571  L 5.19230769230769 5.71428571428571  Z M 13.5 12.2857142857143  L 13.5 14.8571428571429  L 16.6153846153846 14.8571428571429  L 16.6153846153846 12.2857142857143  L 13.5 12.2857142857143  Z M 9.34615384615385 8.85714285714286  L 9.34615384615385 11.7142857142857  L 12.8076923076923 11.7142857142857  L 12.8076923076923 8.85714285714286  L 9.34615384615385 8.85714285714286  Z M 5.43569711538462 4.20089285714286  C 5.50420673076923 4.14434523809524  5.53846153846154 4.07738095238095  5.53846153846154 4  L 5.53846153846154 1.42857142857143  C 5.53846153846154 1.35119047619048  5.50420673076923 1.28422619047619  5.43569711538462 1.22767857142857  C 5.3671875 1.17113095238095  5.28605769230769 1.14285714285714  5.19230769230769 1.14285714285714  L 4.5 1.14285714285714  C 4.40625 1.14285714285714  4.32512019230769 1.17113095238095  4.25661057692308 1.22767857142857  C 4.18810096153846 1.28422619047619  4.15384615384615 1.35119047619048  4.15384615384615 1.42857142857143  L 4.15384615384615 4  C 4.15384615384615 4.07738095238095  4.18810096153846 4.14434523809524  4.25661057692308 4.20089285714286  C 4.32512019230769 4.25744047619048  4.40625 4.28571428571429  4.5 4.28571428571429  L 5.19230769230769 4.28571428571429  C 5.28605769230769 4.28571428571429  5.3671875 4.25744047619048  5.43569711538462 4.20089285714286  Z M 13.5 8.85714285714286  L 13.5 11.7142857142857  L 16.6153846153846 11.7142857142857  L 16.6153846153846 8.85714285714286  L 13.5 8.85714285714286  Z M 9.34615384615385 5.71428571428571  L 9.34615384615385 8.28571428571428  L 12.8076923076923 8.28571428571428  L 12.8076923076923 5.71428571428571  L 9.34615384615385 5.71428571428571  Z M 13.5 5.71428571428571  L 13.5 8.28571428571428  L 16.6153846153846 8.28571428571428  L 16.6153846153846 5.71428571428571  L 13.5 5.71428571428571  Z M 13.7433894230769 4.20089285714286  C 13.8118990384615 4.14434523809524  13.8461538461538 4.07738095238095  13.8461538461538 4  L 13.8461538461538 1.42857142857143  C 13.8461538461538 1.35119047619048  13.8118990384615 1.28422619047619  13.7433894230769 1.22767857142857  C 13.6748798076923 1.17113095238095  13.59375 1.14285714285714  13.5 1.14285714285714  L 12.8076923076923 1.14285714285714  C 12.7139423076923 1.14285714285714  12.6328125 1.17113095238095  12.5643028846154 1.22767857142857  C 12.4957932692308 1.28422619047619  12.4615384615385 1.35119047619048  12.4615384615385 1.42857142857143  L 12.4615384615385 4  C 12.4615384615385 4.07738095238095  12.4957932692308 4.14434523809524  12.5643028846154 4.20089285714286  C 12.6328125 4.25744047619048  12.7139423076923 4.28571428571429  12.8076923076923 4.28571428571429  L 13.5 4.28571428571429  C 13.59375 4.28571428571429  13.6748798076923 4.25744047619048  13.7433894230769 4.20089285714286  Z M 17.5889423076923 2.625  C 17.8629807692308 2.85119047619048  18 3.11904761904762  18 3.42857142857143  L 18 14.8571428571429  C 18 15.1666666666667  17.8629807692308 15.4345238095238  17.5889423076923 15.6607142857143  C 17.3149038461538 15.8869047619048  16.9903846153846 16  16.6153846153846 16  L 1.38461538461538 16  C 1.00961538461538 16  0.685096153846154 15.8869047619048  0.411057692307692 15.6607142857143  C 0.137019230769231 15.4345238095238  0 15.1666666666667  0 14.8571428571429  L 0 3.42857142857143  C 0 3.11904761904762  0.137019230769231 2.85119047619048  0.411057692307692 2.625  C 0.685096153846154 2.39880952380952  1.00961538461538 2.28571428571429  1.38461538461538 2.28571428571429  L 2.76923076923077 2.28571428571429  L 2.76923076923077 1.42857142857143  C 2.76923076923077 1.03571428571429  2.93870192307692 0.699404761904761  3.27764423076923 0.419642857142858  C 3.61658653846154 0.139880952380953  4.02403846153846 0  4.5 0  L 5.19230769230769 0  C 5.66826923076923 0  6.07572115384616 0.139880952380953  6.41466346153846 0.419642857142858  C 6.75360576923077 0.699404761904761  6.92307692307692 1.03571428571429  6.92307692307692 1.42857142857143  L 6.92307692307692 2.28571428571429  L 11.0769230769231 2.28571428571429  L 11.0769230769231 1.42857142857143  C 11.0769230769231 1.03571428571429  11.2463942307692 0.699404761904761  11.5853365384615 0.419642857142858  C 11.9242788461538 0.139880952380953  12.3317307692308 0  12.8076923076923 0  L 13.5 0  C 13.9759615384615 0  14.3834134615385 0.139880952380953  14.7223557692308 0.419642857142858  C 15.0612980769231 0.699404761904761  15.2307692307692 1.03571428571429  15.2307692307692 1.42857142857143  L 15.2307692307692 2.28571428571429  L 16.6153846153846 2.28571428571429  C 16.9903846153846 2.28571428571429  17.3149038461538 2.39880952380952  17.5889423076923 2.625  Z " fill-rule="nonzero" fill="#7f7f7f" stroke="none" transform="matrix(1 0 0 1 373 208 )" />
  </g>
</svg>