<?xml version="1.0" encoding="utf-8"?>
<svg version="1.1" xmlns:xlink="http://www.w3.org/1999/xlink" width="8px" height="10px" xmlns="http://www.w3.org/2000/svg">
  <g transform="matrix(1 0 0 1 -131 -6 )">
    <path d="M 4.90625 6.1328125  C 5.32772435897436 5.60596955128205  5.53846153846154 4.97195512820513  5.53846153846154 4.23076923076923  C 5.53846153846154 3.48958333333333  5.32772435897436 2.85556891025641  4.90625 2.32872596153846  C 4.48477564102564 1.80188301282051  3.9775641025641 1.53846153846154  3.38461538461538 1.53846153846154  C 2.79166666666667 1.53846153846154  2.28445512820513 1.80188301282051  1.86298076923077 2.32872596153846  C 1.44150641025641 2.85556891025641  1.23076923076923 3.48958333333333  1.23076923076923 4.23076923076923  C 1.23076923076923 4.97195512820513  1.44150641025641 5.60596955128205  1.86298076923077 6.1328125  C 2.28445512820513 6.65965544871795  2.79166666666667 6.92307692307692  3.38461538461538 6.92307692307692  C 3.9775641025641 6.92307692307692  4.48477564102564 6.65965544871795  4.90625 6.1328125  Z M 7.82211538461539 8.68990384615385  C 7.94070512820513 8.83814102564103  8 9.01842948717949  8 9.23076923076923  C 8 9.43910256410257  7.93910256410256 9.61939102564103  7.81730769230769 9.77163461538462  C 7.69551282051282 9.9238782051282  7.55128205128205 10  7.38461538461539 10  C 7.21153846153846 10  7.06730769230769 9.9238782051282  6.95192307692308 9.77163461538462  L 5.30288461538462 7.71634615384615  C 4.72916666666667 8.21314102564103  4.08974358974359 8.46153846153846  3.38461538461538 8.46153846153846  C 2.92628205128205 8.46153846153846  2.48798076923077 8.35036057692308  2.06971153846154 8.12800480769231  C 1.65144230769231 7.90564903846154  1.29086538461538 7.60516826923077  0.987980769230769 7.2265625  C 0.685096153846154 6.84795673076923  0.444711538461539 6.39723557692308  0.266826923076923 5.87439903846154  C 0.0889423076923077 5.3515625  0 4.8036858974359  0 4.23076923076923  C 0 3.65785256410256  0.0889423076923077 3.10997596153846  0.266826923076923 2.58713942307692  C 0.444711538461539 2.06430288461538  0.685096153846154 1.61358173076923  0.987980769230769 1.23497596153846  C 1.29086538461538 0.856370192307693  1.65144230769231 0.555889423076923  2.06971153846154 0.333533653846154  C 2.48798076923077 0.111177884615384  2.92628205128205 0  3.38461538461538 0  C 3.84294871794872 0  4.28125 0.111177884615384  4.69951923076923 0.333533653846154  C 5.11778846153846 0.555889423076923  5.47836538461539 0.856370192307693  5.78125 1.23497596153846  C 6.08413461538462 1.61358173076923  6.32451923076923 2.06430288461538  6.50240384615385 2.58713942307692  C 6.68028846153846 3.10997596153846  6.76923076923077 3.65785256410256  6.76923076923077 4.23076923076923  C 6.76923076923077 5.11217948717949  6.57051282051282 5.91145833333333  6.17307692307692 6.62860576923077  L 7.82211538461539 8.68990384615385  Z " fill-rule="nonzero" fill="#3d3e53" stroke="none" transform="matrix(1 0 0 1 131 6 )" />
  </g>
</svg>