<?xml version="1.0" encoding="utf-8"?>
<svg version="1.1" xmlns:xlink="http://www.w3.org/1999/xlink" width="10px" height="10px" xmlns="http://www.w3.org/2000/svg">
  <g transform="matrix(1 0 0 1 -31 -761 )">
    <path d="M 7.578125 9.08125  C 7.6542467948718 9.00208333333333  7.69230769230769 8.90833333333333  7.69230769230769 8.8  C 7.69230769230769 8.69166666666667  7.6542467948718 8.59791666666667  7.578125 8.51875  C 7.50200320512821 8.43958333333333  7.41185897435898 8.4  7.30769230769231 8.4  C 7.20352564102564 8.4  7.11338141025641 8.43958333333333  7.03725961538462 8.51875  C 6.96113782051282 8.59791666666667  6.92307692307692 8.69166666666667  6.92307692307692 8.8  C 6.92307692307692 8.90833333333333  6.96113782051282 9.00208333333333  7.03725961538462 9.08125  C 7.11338141025641 9.16041666666667  7.20352564102564 9.2  7.30769230769231 9.2  C 7.41185897435898 9.2  7.50200320512821 9.16041666666667  7.578125 9.08125  Z M 9.11658653846154 9.08125  C 9.19270833333333 9.00208333333333  9.23076923076923 8.90833333333333  9.23076923076923 8.8  C 9.23076923076923 8.69166666666667  9.19270833333333 8.59791666666667  9.11658653846154 8.51875  C 9.04046474358974 8.43958333333333  8.95032051282051 8.4  8.84615384615385 8.4  C 8.74198717948718 8.4  8.65184294871795 8.43958333333333  8.57572115384615 8.51875  C 8.49959935897436 8.59791666666667  8.46153846153846 8.69166666666667  8.46153846153846 8.8  C 8.46153846153846 8.90833333333333  8.49959935897436 9.00208333333333  8.57572115384615 9.08125  C 8.65184294871795 9.16041666666667  8.74198717948718 9.2  8.84615384615385 9.2  C 8.95032051282051 9.2  9.04046474358974 9.16041666666667  9.11658653846154 9.08125  Z M 9.83173076923077 6.975  C 9.94391025641026 7.09166666666667  10 7.23333333333333  10 7.4  L 10 9.4  C 10 9.56666666666667  9.94391025641026 9.70833333333333  9.83173076923077 9.825  C 9.71955128205128 9.94166666666667  9.58333333333334 10  9.42307692307692 10  L 0.576923076923077 10  C 0.416666666666667 10  0.280448717948718 9.94166666666667  0.168269230769231 9.825  C 0.0560897435897436 9.70833333333333  0 9.56666666666667  0 9.4  L 0 7.4  C 0 7.23333333333333  0.0560897435897436 7.09166666666667  0.168269230769231 6.975  C 0.280448717948718 6.85833333333333  0.416666666666667 6.8  0.576923076923077 6.8  L 3.14302884615385 6.8  C 3.22716346153846 7.03333333333333  3.36838942307692 7.225  3.56670673076923 7.375  C 3.76502403846154 7.525  3.98637820512821 7.6  4.23076923076923 7.6  L 5.76923076923077 7.6  C 6.0136217948718 7.6  6.23497596153846 7.525  6.43329326923077 7.375  C 6.63161057692308 7.225  6.77283653846154 7.03333333333333  6.85697115384615 6.8  L 9.42307692307692 6.8  C 9.58333333333334 6.8  9.71955128205128 6.85833333333333  9.83173076923077 6.975  Z M 7.96274038461538 2.91875  C 8.0869391025641 3.04375  8.11498397435898 3.1875  8.046875 3.35  C 7.97876602564103 3.51666666666667  7.86057692307692 3.6  7.69230769230769 3.6  L 6.15384615384615 3.6  L 6.15384615384615 6.4  C 6.15384615384615 6.50833333333333  6.11578525641026 6.60208333333333  6.03966346153846 6.68125  C 5.96354166666667 6.76041666666667  5.87339743589744 6.8  5.76923076923077 6.8  L 4.23076923076923 6.8  C 4.12660256410256 6.8  4.03645833333333 6.76041666666667  3.96033653846154 6.68125  C 3.88421474358974 6.60208333333333  3.84615384615385 6.50833333333333  3.84615384615385 6.4  L 3.84615384615385 3.6  L 2.30769230769231 3.6  C 2.13942307692308 3.6  2.02123397435897 3.51666666666667  1.953125 3.35  C 1.88501602564103 3.1875  1.9130608974359 3.04375  2.03725961538462 2.91875  L 4.72956730769231 0.11875  C 4.80168269230769 0.0395833333333329  4.89182692307692 0  5 0  C 5.10817307692308 0  5.19831730769231 0.0395833333333329  5.27043269230769 0.11875  L 7.96274038461538 2.91875  Z " fill-rule="nonzero" fill="#ffffff" stroke="none" transform="matrix(1 0 0 1 31 761 )" />
  </g>
</svg>