<?xml version="1.0" encoding="utf-8"?>
<svg version="1.1" xmlns:xlink="http://www.w3.org/1999/xlink" width="10px" height="9px" xmlns="http://www.w3.org/2000/svg">
  <g transform="matrix(1 0 0 1 -957 -236 )">
    <path d="M 0.178571428571429 4.5  L 9.82142857142857 4.5  C 9.87351190476191 4.5  9.91629464285714 4.517578125  9.94977678571429 4.552734375  C 9.98325892857143 4.587890625  10 4.6328125  10 4.6875  L 10 5.0625  C 10 5.1171875  9.98325892857143 5.162109375  9.94977678571429 5.197265625  C 9.91629464285714 5.232421875  9.87351190476191 5.25  9.82142857142857 5.25  L 0.178571428571429 5.25  C 0.126488095238095 5.25  0.0837053571428572 5.232421875  0.0502232142857143 5.197265625  C 0.0167410714285714 5.162109375  0 5.1171875  0 5.0625  L 0 4.6875  C 0 4.6328125  0.0167410714285714 4.587890625  0.0502232142857143 4.552734375  C 0.0837053571428572 4.517578125  0.126488095238095 4.5  0.178571428571429 4.5  Z M 6.84151785714286 4.125  L 2.6953125 4.125  C 2.59114583333333 3.98828125  2.49627976190476 3.83203125  2.41071428571429 3.65625  C 2.23214285714286 3.2734375  2.14285714285714 2.90625  2.14285714285714 2.5546875  C 2.14285714285714 1.84765625  2.39211309523809 1.244140625  2.890625 0.744140625  C 3.38541666666667 0.248046875  4.11644345238095 0  5.08370535714286 0  C 5.26971726190476 0  5.58035714285714 0.0371093749999996  6.015625 0.111328125  C 6.26116071428571 0.158203125  6.59040178571429 0.251953125  7.00334821428571 0.392578125  C 7.04055059523809 0.541015625  7.07961309523809 0.771484374999999  7.12053571428571 1.083984375  C 7.17261904761905 1.564453125  7.19866071428571 1.921875  7.19866071428571 2.15625  C 7.19866071428571 2.2265625  7.18936011904762 2.314453125  7.17075892857143 2.419921875  L 7.10379464285714 2.4375  L 6.63504464285714 2.40234375  L 6.55691964285714 2.390625  C 6.37090773809524 1.80859375  6.17931547619048 1.408203125  5.98214285714286 1.189453125  C 5.65476190476191 0.833984374999999  5.26413690476191 0.65625  4.81026785714286 0.65625  C 4.38616071428571 0.65625  4.04761904761905 0.771484374999999  3.79464285714286 1.001953125  C 3.54538690476191 1.228515625  3.42075892857143 1.513671875  3.42075892857143 1.857421875  C 3.42075892857143 2.142578125  3.54352678571429 2.416015625  3.7890625 2.677734375  C 4.03459821428571 2.939453125  4.55357142857143 3.19140625  5.34598214285714 3.43359375  C 5.60267857142857 3.51171875  5.92447916666667 3.640625  6.31138392857143 3.8203125  C 6.52715773809524 3.9296875  6.70386904761905 4.03125  6.84151785714286 4.125  Z M 6.2890625 6.041015625  C 6.16257440476191 5.927734375  5.90773809523809 5.7890625  5.52455357142857 5.625  L 7.81808035714286 5.625  C 7.84412202380952 5.77734375  7.85714285714286 5.95703125  7.85714285714286 6.1640625  C 7.85714285714286 6.59765625  7.78087797619048 7.01171875  7.62834821428571 7.40625  C 7.54278273809524 7.625  7.41071428571429 7.828125  7.23214285714286 8.015625  C 7.09449404761905 8.15234375  6.89174107142857 8.310546875  6.62388392857143 8.490234375  C 6.32626488095238 8.677734375  6.04166666666667 8.806640625  5.77008928571429 8.876953125  C 5.47247023809524 8.958984375  5.09486607142857 9  4.63727678571429 9  C 4.21316964285714 9  3.85044642857143 8.955078125  3.54910714285714 8.865234375  L 2.76785714285714 8.630859375  C 2.55580357142857 8.568359375  2.421875 8.513671875  2.36607142857143 8.466796875  C 2.33630952380952 8.435546875  2.32142857142857 8.392578125  2.32142857142857 8.337890625  L 2.32142857142857 8.26171875  C 2.32142857142857 7.83984375  2.31770833333333 7.53515625  2.31026785714286 7.34765625  C 2.30654761904762 7.23046875  2.30654761904762 7.09765625  2.31026785714286 6.94921875  L 2.32142857142857 6.732421875  L 2.32142857142857 6.474609375  L 2.890625 6.462890625  C 2.94642857142857 6.595703125  3.00223214285714 6.734375  3.05803571428571 6.87890625  C 3.11383928571429 7.0234375  3.15569196428571 7.1328125  3.18359375 7.20703125  C 3.21149553571429 7.28125  3.23474702380952 7.333984375  3.25334821428571 7.365234375  C 3.38355654761905 7.587890625  3.53236607142857 7.771484375  3.69977678571429 7.916015625  C 3.85974702380952 8.056640625  4.05505952380952 8.16796875  4.28571428571429 8.25  C 4.50520833333333 8.3359375  4.75074404761905 8.37890625  5.02232142857143 8.37890625  C 5.26041666666667 8.37890625  5.51897321428571 8.326171875  5.79799107142857 8.220703125  C 6.08444940476191 8.119140625  6.31138392857143 7.951171875  6.47879464285714 7.716796875  C 6.65364583333333 7.478515625  6.74107142857143 7.2265625  6.74107142857143 6.9609375  C 6.74107142857143 6.6328125  6.59040178571429 6.326171875  6.2890625 6.041015625  Z " fill-rule="nonzero" fill="#ffffff" stroke="none" transform="matrix(1 0 0 1 957 236 )" />
  </g>
</svg>