<?xml version="1.0" encoding="utf-8"?>
<svg version="1.1" xmlns:xlink="http://www.w3.org/1999/xlink" width="11px" height="11px" xmlns="http://www.w3.org/2000/svg">
  <g transform="matrix(1 0 0 1 -960 -2821 )">
    <path d="M 2.298828125 3.07421875  C 2.33770461309524 3.12369791666667  2.35714285714286 3.18229166666667  2.35714285714286 3.25  L 2.35714285714286 7.75  C 2.35714285714286 7.81770833333333  2.33770461309524 7.87630208333333  2.298828125 7.92578125  C 2.25995163690476 7.97526041666667  2.21391369047619 8  2.16071428571429 8  C 2.10342261904762 8  2.05636160714286 7.9765625  2.01953125 7.9296875  L 0.251674107142857 5.6796875  C 0.21484375 5.6328125  0.196428571428571 5.57291666666667  0.196428571428571 5.5  C 0.196428571428571 5.42708333333333  0.21484375 5.3671875  0.251674107142857 5.3203125  L 2.01953125 3.0703125  C 2.05636160714286 3.0234375  2.10342261904762 3  2.16071428571429 3  C 2.21391369047619 3  2.25995163690476 3.02473958333333  2.298828125 3.07421875  Z M 10.9416852678571 9.07421875  C 10.9805617559524 9.12369791666667  11 9.18229166666667  11 9.25  L 11 10.75  C 11 10.8177083333333  10.9805617559524 10.8763020833333  10.9416852678571 10.92578125  C 10.9028087797619 10.9752604166667  10.8567708333333 11  10.8035714285714 11  L 0.196428571428571 11  C 0.143229166666667 11  0.0971912202380952 10.9752604166667  0.0583147321428571 10.92578125  C 0.019438244047619 10.8763020833333  0 10.8177083333333  0 10.75  L 0 9.25  C 0 9.18229166666667  0.019438244047619 9.12369791666667  0.0583147321428571 9.07421875  C 0.0971912202380952 9.02473958333333  0.143229166666667 9  0.196428571428571 9  L 10.8035714285714 9  C 10.8567708333333 9  10.9028087797619 9.02473958333333  10.9416852678571 9.07421875  Z M 10.9416852678571 6.07421875  C 10.9805617559524 6.12369791666667  11 6.18229166666667  11 6.25  L 11 7.75  C 11 7.81770833333333  10.9805617559524 7.87630208333333  10.9416852678571 7.92578125  C 10.9028087797619 7.97526041666667  10.8567708333333 8  10.8035714285714 8  L 4.125 8  C 4.0718005952381 8  4.02576264880952 7.97526041666667  3.98688616071429 7.92578125  C 3.94800967261905 7.87630208333333  3.92857142857143 7.81770833333333  3.92857142857143 7.75  L 3.92857142857143 6.25  C 3.92857142857143 6.18229166666667  3.94800967261905 6.12369791666667  3.98688616071429 6.07421875  C 4.02576264880952 6.02473958333333  4.0718005952381 6  4.125 6  L 10.8035714285714 6  C 10.8567708333333 6  10.9028087797619 6.02473958333333  10.9416852678571 6.07421875  Z M 10.9416852678571 3.07421875  C 10.9805617559524 3.12369791666667  11 3.18229166666667  11 3.25  L 11 4.75  C 11 4.81770833333333  10.9805617559524 4.87630208333333  10.9416852678571 4.92578125  C 10.9028087797619 4.97526041666667  10.8567708333333 5  10.8035714285714 5  L 4.125 5  C 4.0718005952381 5  4.02576264880952 4.97526041666667  3.98688616071429 4.92578125  C 3.94800967261905 4.87630208333333  3.92857142857143 4.81770833333333  3.92857142857143 4.75  L 3.92857142857143 3.25  C 3.92857142857143 3.18229166666667  3.94800967261905 3.12369791666667  3.98688616071429 3.07421875  C 4.02576264880952 3.02473958333333  4.0718005952381 3  4.125 3  L 10.8035714285714 3  C 10.8567708333333 3  10.9028087797619 3.02473958333333  10.9416852678571 3.07421875  Z M 10.9416852678571 0.0742187499999997  C 10.9805617559524 0.123697916666667  11 0.182291666666666  11 0.25  L 11 1.75  C 11 1.81770833333333  10.9805617559524 1.87630208333333  10.9416852678571 1.92578125  C 10.9028087797619 1.97526041666667  10.8567708333333 2  10.8035714285714 2  L 0.196428571428571 2  C 0.143229166666667 2  0.0971912202380952 1.97526041666667  0.0583147321428571 1.92578125  C 0.019438244047619 1.87630208333333  0 1.81770833333333  0 1.75  L 0 0.25  C 0 0.182291666666666  0.019438244047619 0.123697916666667  0.0583147321428571 0.0742187499999997  C 0.0971912202380952 0.0247395833333316  0.143229166666667 0  0.196428571428571 0  L 10.8035714285714 0  C 10.8567708333333 0  10.9028087797619 0.0247395833333316  10.9416852678571 0.0742187499999997  Z " fill-rule="nonzero" fill="#ffffff" stroke="none" transform="matrix(1 0 0 1 960 2821 )" />
  </g>
</svg>