<?xml version="1.0" encoding="utf-8"?>
<svg version="1.1" xmlns:xlink="http://www.w3.org/1999/xlink" width="252px" height="23px" xmlns="http://www.w3.org/2000/svg">
  <defs>
    <mask fill="white" id="clip9">
      <path d="M 0 22  L 0 0  L 252 0  L 252 22  L 40.0869565217392 22  L 0 22  Z " fill-rule="evenodd" />
    </mask>
    <filter x="936px" y="87px" width="252px" height="23px" filterUnits="userSpaceOnUse" id="filter10">
      <feOffset dx="0" dy="-1" in="SourceAlpha" result="shadowOffsetInner" />
      <feGaussianBlur stdDeviation="0" in="shadowOffsetInner" result="shadowGaussian" />
      <feComposite in2="shadowGaussian" operator="atop" in="SourceAlpha" result="shadowComposite" />
      <feColorMatrix type="matrix" values="0 0 0 0 0.949019607843137  0 0 0 0 0.949019607843137  0 0 0 0 0.949019607843137  0 0 0 0.501960784313725 0  " in="shadowComposite" />
    </filter>
    <g id="widget11">
      <path d="M 0 22  L 0 0  L 252 0  L 252 22  L 40.0869565217392 22  L 0 22  Z " fill-rule="nonzero" fill="#ffffff" stroke="none" fill-opacity="0" transform="matrix(1 0 0 1 936 88 )" />
      <path d="M 0 22  L 0 0  L 252 0  L 252 22  L 40.0869565217392 22  L 0 22  Z " stroke-width="2" stroke="#3d3e53" fill="none" stroke-opacity="0.23921568627451" transform="matrix(1 0 0 1 936 88 )" mask="url(#clip9)" />
    </g>
  </defs>
  <g transform="matrix(1 0 0 1 -936 -87 )">
    <use xlink:href="#widget11" filter="url(#filter10)" />
    <use xlink:href="#widget11" />
  </g>
</svg>