<?xml version="1.0" encoding="utf-8"?>
<svg version="1.1" xmlns:xlink="http://www.w3.org/1999/xlink" width="10px" height="11px" xmlns="http://www.w3.org/2000/svg">
  <g transform="matrix(1 0 0 1 -1139 -39 )">
    <path d="M 4.27604166666667 6.6274843838728  C 4.53645833333333 6.31516183986371  4.66666666666667 5.93829263675942  4.66666666666667 5.49687677455991  C 4.66666666666667 5.0554609123604  4.53645833333333 4.6785917092561  4.27604166666667 4.36626916524702  C 4.015625 4.05394662123793  3.70138888888889 3.89778534923339  3.33333333333333 3.89778534923339  C 2.96527777777778 3.89778534923339  2.65104166666667 4.05394662123793  2.390625 4.36626916524702  C 2.13020833333333 4.6785917092561  2 5.0554609123604  2 5.49687677455991  C 2 5.93829263675942  2.13020833333333 6.31516183986371  2.390625 6.6274843838728  C 2.65104166666667 6.93980692788188  2.96527777777778 7.09596819988643  3.33333333333333 7.09596819988643  C 3.70138888888889 7.09596819988643  4.015625 6.93980692788188  4.27604166666667 6.6274843838728  Z M 8.47135416666667 9.26036342986939  C 8.6015625 9.10420215786485  8.66666666666667 8.9157675563127  8.66666666666667 8.69505962521295  C 8.66666666666667 8.47851599469998  8.60069444444445 8.29112246829453  8.46875 8.13287904599659  C 8.33680555555556 7.97463562369866  8.18055555555556 7.89551391254969  8 7.89551391254969  C 7.81944444444445 7.89551391254969  7.66319444444445 7.97463562369866  7.53125 8.13287904599659  C 7.39930555555556 8.29112246829453  7.33333333333333 8.47851599469998  7.33333333333333 8.69505962521295  C 7.33333333333333 8.9157675563127  7.3984375 9.10420215786485  7.52864583333333 9.26036342986939  C 7.65885416666667 9.41652470187393  7.81597222222222 9.49460533787621  8 9.49460533787621  C 8.18402777777778 9.49460533787621  8.34114583333333 9.41652470187393  8.47135416666667 9.26036342986939  Z M 8.47135416666667 2.86399772856332  C 8.6015625 2.70783645655877  8.66666666666667 2.51940185500662  8.66666666666667 2.29869392390687  C 8.66666666666667 2.0821502933939  8.60069444444445 1.89475676698845  8.46875 1.73651334469052  C 8.33680555555556 1.57826992239258  8.18055555555556 1.49914821124361  8 1.49914821124361  C 7.81944444444445 1.49914821124361  7.66319444444445 1.57826992239258  7.53125 1.73651334469052  C 7.39930555555556 1.89475676698845  7.33333333333333 2.0821502933939  7.33333333333333 2.29869392390687  C 7.33333333333333 2.51940185500662  7.3984375 2.70783645655877  7.52864583333333 2.86399772856332  C 7.65885416666667 3.02015900056786  7.81597222222222 3.09823963657013  8 3.09823963657013  C 8.18402777777778 3.09823963657013  8.34114583333333 3.02015900056786  8.47135416666667 2.86399772856332  Z M 6.63020833333333 4.80664395229983  C 6.65451388888889 4.84204050728753  6.66666666666667 4.88264243800871  6.66666666666667 4.92844974446337  L 6.66666666666667 6.08404315729699  C 6.66666666666667 6.12568616316487  6.65451388888889 6.16628809388605  6.63020833333333 6.20584894946053  C 6.60590277777778 6.24540980503502  6.578125 6.26727238311565  6.546875 6.27143668370244  L 5.73958333333333 6.4213515048268  C 5.70138888888889 6.56710202536438  5.64583333333333 6.72534544766231  5.57291666666667 6.89608177172061  C 5.69097222222222 7.09596819988643  5.84722222222222 7.33541548362673  6.04166666666667 7.61442362294151  C 6.06597222222222 7.66023092939618  6.078125 7.70187393526405  6.078125 7.73935264054514  C 6.078125 7.7893242475866  6.06597222222222 7.82888510316108  6.04166666666667 7.8580352072686  C 5.96180555555556 7.98296422487223  5.81857638888889 8.16931667613098  5.61197916666667 8.41709256104486  C 5.40538194444444 8.66486844595874  5.26909722222222 8.78875638841567  5.203125 8.78875638841567  C 5.16493055555556 8.78875638841567  5.12847222222222 8.77418133636192  5.09375 8.7450312322544  L 4.49479166666667 8.18285065303805  C 4.36631944444444 8.26197236418701  4.23263888888889 8.32651902328223  4.09375 8.37649063032368  C 4.05555555555556 8.82623509369676  4.015625 9.14896838917282  3.97395833333333 9.34469051675184  C 3.94965277777778 9.44463373083475  3.89756944444444 9.49460533787621  3.81770833333333 9.49460533787621  L 2.84895833333333 9.49460533787621  C 2.81076388888889 9.49460533787621  2.77604166666667 9.47898921067575  2.74479166666667 9.44775695627484  C 2.71354166666667 9.41652470187393  2.69618055555556 9.38008707173954  2.69270833333333 9.33844406587166  L 2.57291666666667 8.38273708120386  C 2.45486111111111 8.34109407533598  2.32465277777778 8.27654741624077  2.18229166666667 8.18909710391823  L 1.56770833333333 8.7450312322544  C 1.54340277777778 8.77418133636192  1.50868055555556 8.78875638841567  1.46354166666667 8.78875638841567  C 1.42534722222222 8.78875638841567  1.38888888888889 8.77209918606852  1.35416666666667 8.73878478137422  C 0.854166666666667 8.18493280333144  0.604166666666667 7.85178875638842  0.604166666666667 7.73935264054514  C 0.604166666666667 7.70187393526405  0.616319444444444 7.66231307968957  0.640625 7.62067007382169  C 0.675347222222222 7.56236986560666  0.746527777777778 7.45201590005679  0.854166666666667 7.28960817717206  C 0.961805555555556 7.12720045428734  1.04340277777778 7.00018928639031  1.09895833333333 6.90857467348098  C 1.01909722222222 6.72534544766231  0.958333333333333 6.55460912360401  0.916666666666667 6.39636570130608  L 0.125 6.24645088018172  C 0.0902777777777778 6.24228657959493  0.0607638888888889 6.22250615180769  0.0364583333333333 6.18710959681999  C 0.0121527777777778 6.15171304183229  0 6.11111111111111  0 6.06530380465644  L 0 4.90971039182283  C 0 4.86806738595495  0.0121527777777778 4.82746545523377  0.0364583333333333 4.78790459965928  C 0.0607638888888889 4.7483437440848  0.0885416666666667 4.72648116600416  0.119791666666667 4.72231686541738  L 0.927083333333333 4.57240204429301  C 0.965277777777778 4.42665152375544  1.02083333333333 4.26840810145751  1.09375 4.0976717773992  C 0.975694444444444 3.89778534923339  0.819444444444444 3.65833806549309  0.625 3.37932992617831  C 0.600694444444444 3.33352261972364  0.588541666666667 3.29187961385576  0.588541666666667 3.25440090857467  C 0.588541666666667 3.20442930153322  0.600694444444444 3.16278629566534  0.625 3.12947189097104  C 0.701388888888889 3.0045428733674  0.84375 2.81923149725535  1.05208333333333 2.57353776263487  C 1.26041666666667 2.32784402801438  1.39756944444444 2.20499716070415  1.46354166666667 2.20499716070415  C 1.50173611111111 2.20499716070415  1.53819444444444 2.2195722127579  1.57291666666667 2.24872231686542  L 2.171875 2.81090289608177  C 2.28993055555556 2.73594548551959  2.42361111111111 2.66931667613099  2.57291666666667 2.61101646791596  C 2.61111111111111 2.16127200454287  2.65104166666667 1.84062085936021  2.69270833333333 1.64906303236797  C 2.71701388888889 1.54911981828507  2.76909722222222 1.49914821124361  2.84895833333333 1.49914821124361  L 3.81770833333333 1.49914821124361  C 3.85590277777778 1.49914821124361  3.890625 1.51476433844407  3.921875 1.54599659284498  C 3.953125 1.57722884724588  3.97048611111111 1.61366647738028  3.97395833333333 1.65530948324815  L 4.09375 2.61101646791596  C 4.21180555555556 2.65265947378383  4.34201388888889 2.71720613287905  4.484375 2.80465644520159  L 5.09895833333333 2.24872231686542  C 5.12673611111111 2.2195722127579  5.16145833333333 2.20499716070415  5.203125 2.20499716070415  C 5.24131944444444 2.20499716070415  5.27777777777778 2.2216543630513  5.3125 2.2549687677456  C 5.8125 2.80882074578838  6.0625 3.1419647927314  6.0625 3.25440090857467  C 6.0625 3.28771531326898  6.05034722222222 3.32727616884346  6.02604166666667 3.37308347529813  C 5.984375 3.43971228468673  5.91145833333333 3.55214840053  5.80729166666667 3.71039182282794  C 5.703125 3.86863524512588  5.625 3.99356426272951  5.57291666666667 4.08517887563884  C 5.65277777777778 4.28506530380466  5.71180555555556 4.45580162786296  5.75 4.59738784781374  L 6.54166666666667 4.74105621805792  C 6.57638888888889 4.7493848192315  6.60590277777778 4.77124739731213  6.63020833333333 4.80664395229983  Z M 9.22395833333333 8.0641680863146  C 9.74131944444444 8.12663259511641  10 8.19117925421162  10 8.25780806360023  L 10 9.13231118682567  C 10 9.19893999621427  9.74131944444444 9.26348665530948  9.22395833333333 9.3259511641113  C 9.18229166666667 9.43838727995457  9.13020833333333 9.54665909521105  9.06770833333333 9.65076660988075  C 9.24479166666667 10.1213325761878  9.33333333333333 10.4086693166761  9.33333333333333 10.5127768313458  C 9.33333333333333 10.529434033693  9.32638888888889 10.5440090857467  9.3125 10.5565019875071  C 8.88888888888889 10.852167329169  8.67361111111111 11  8.66666666666667 11  C 8.63888888888889 11  8.55902777777778 10.9021389362105  8.42708333333333 10.7064168086315  C 8.29513888888889 10.5106946810524  8.20486111111111 10.3691084611016  8.15625 10.2816581487791  C 8.08680555555556 10.2899867499527  8.03472222222222 10.2941510505395  8 10.2941510505395  C 7.96527777777778 10.2941510505395  7.91319444444445 10.2899867499527  7.84375 10.2816581487791  C 7.79513888888889 10.3691084611016  7.70486111111111 10.5106946810524  7.57291666666667 10.7064168086315  C 7.44097222222222 10.9021389362105  7.36111111111111 11  7.33333333333333 11  C 7.32638888888889 11  7.11111111111111 10.852167329169  6.6875 10.5565019875071  C 6.67361111111111 10.5440090857467  6.66666666666667 10.529434033693  6.66666666666667 10.5127768313458  C 6.66666666666667 10.4086693166761  6.75520833333333 10.1213325761878  6.93229166666667 9.65076660988075  C 6.86979166666667 9.54665909521105  6.81770833333333 9.43838727995457  6.77604166666667 9.3259511641113  C 6.25868055555556 9.26348665530948  6 9.19893999621427  6 9.13231118682567  L 6 8.25780806360023  C 6 8.19117925421162  6.25868055555556 8.12663259511641  6.77604166666667 8.0641680863146  C 6.82118055555556 7.94340336929775  6.87326388888889 7.83513155404126  6.93229166666667 7.73935264054514  C 6.75520833333333 7.26878667423812  6.66666666666667 6.98144993374976  6.66666666666667 6.87734241908007  C 6.66666666666667 6.86068521673292  6.67361111111111 6.84611016467916  6.6875 6.8336172629188  C 6.70138888888889 6.82528866174522  6.76215277777778 6.78364565587734  6.86979166666667 6.70868824531516  C 6.97743055555556 6.63373083475298  7.07986111111111 6.56293772477759  7.17708333333333 6.49630891538898  C 7.27430555555556 6.42968010600038  7.32638888888889 6.39636570130608  7.33333333333333 6.39636570130608  C 7.36111111111111 6.39636570130608  7.44097222222222 6.49318568994889  7.57291666666667 6.68682566723453  C 7.70486111111111 6.88046564452016  7.79513888888889 7.02101078932425  7.84375 7.10846110164679  C 7.91319444444445 7.10013250047322  7.96527777777778 7.09596819988643  8 7.09596819988643  C 8.03472222222222 7.09596819988643  8.08680555555556 7.10013250047322  8.15625 7.10846110164679  C 8.33333333333334 6.81279575998486  8.49305555555556 6.57959492712474  8.63541666666667 6.40885860306644  L 8.66666666666667 6.39636570130608  C 8.68055555555556 6.39636570130608  8.89583333333334 6.54211622184365  9.3125 6.8336172629188  C 9.32638888888889 6.84611016467916  9.33333333333333 6.86068521673292  9.33333333333333 6.87734241908007  C 9.33333333333333 6.98144993374976  9.24479166666667 7.26878667423812  9.06770833333333 7.73935264054514  C 9.12673611111111 7.83513155404126  9.17881944444444 7.94340336929775  9.22395833333333 8.0641680863146  Z M 9.22395833333333 1.66780238500852  C 9.74131944444444 1.73026689381034  10 1.79481355290555  10 1.86144236229415  L 10 2.73594548551959  C 10 2.8025742949082  9.74131944444444 2.86712095400341  9.22395833333333 2.92958546280522  C 9.18229166666667 3.0420215786485  9.13020833333333 3.15029339390498  9.06770833333333 3.25440090857467  C 9.24479166666667 3.7249668748817  9.33333333333333 4.01230361537005  9.33333333333333 4.11641113003975  C 9.33333333333333 4.1330683323869  9.32638888888889 4.14764338444066  9.3125 4.16013628620102  C 8.88888888888889 4.45580162786296  8.67361111111111 4.60363429869392  8.66666666666667 4.60363429869392  C 8.63888888888889 4.60363429869392  8.55902777777778 4.50577323490441  8.42708333333333 4.31005110732538  C 8.29513888888889 4.11432897974636  8.20486111111111 3.97274275979557  8.15625 3.88529244747303  C 8.08680555555556 3.8936210486466  8.03472222222222 3.89778534923339  8 3.89778534923339  C 7.96527777777778 3.89778534923339  7.91319444444445 3.8936210486466  7.84375 3.88529244747303  C 7.79513888888889 3.97274275979557  7.70486111111111 4.11432897974636  7.57291666666667 4.31005110732538  C 7.44097222222222 4.50577323490441  7.36111111111111 4.60363429869392  7.33333333333333 4.60363429869392  C 7.32638888888889 4.60363429869392  7.11111111111111 4.45580162786296  6.6875 4.16013628620102  C 6.67361111111111 4.14764338444066  6.66666666666667 4.1330683323869  6.66666666666667 4.11641113003975  C 6.66666666666667 4.01230361537005  6.75520833333333 3.7249668748817  6.93229166666667 3.25440090857467  C 6.86979166666667 3.15029339390498  6.81770833333333 3.0420215786485  6.77604166666667 2.92958546280522  C 6.25868055555556 2.86712095400341  6 2.8025742949082  6 2.73594548551959  L 6 1.86144236229415  C 6 1.79481355290555  6.25868055555556 1.73026689381034  6.77604166666667 1.66780238500852  C 6.82118055555556 1.54703766799167  6.87326388888889 1.43876585273519  6.93229166666667 1.34298693923907  C 6.75520833333333 0.872420972932045  6.66666666666667 0.585084232443686  6.66666666666667 0.480976717773992  C 6.66666666666667 0.46431951542684  6.67361111111111 0.449744463373084  6.6875 0.43725156161272  C 6.70138888888889 0.428922960439143  6.76215277777778 0.387279954571267  6.86979166666667 0.312322544009086  C 6.97743055555556 0.237365133446905  7.07986111111111 0.166572023471511  7.17708333333333 0.0999432140829075  C 7.27430555555556 0.0333144046943017  7.32638888888889 0  7.33333333333333 0  C 7.36111111111111 0  7.44097222222222 0.096819988642816  7.57291666666667 0.290459965928449  C 7.70486111111111 0.484099943214083  7.79513888888889 0.624645088018172  7.84375 0.712095400340716  C 7.91319444444445 0.703766799167139  7.96527777777778 0.699602498580353  8 0.699602498580353  C 8.03472222222222 0.699602498580353  8.08680555555556 0.703766799167139  8.15625 0.712095400340716  C 8.33333333333334 0.41643005867878  8.49305555555556 0.183229225818663  8.63541666666667 0.0124929017603634  L 8.66666666666667 0  C 8.68055555555556 0  8.89583333333334 0.145750520537573  9.3125 0.43725156161272  C 9.32638888888889 0.449744463373084  9.33333333333333 0.46431951542684  9.33333333333333 0.480976717773992  C 9.33333333333333 0.585084232443686  9.24479166666667 0.872420972932045  9.06770833333333 1.34298693923907  C 9.12673611111111 1.43876585273519  9.17881944444444 1.54703766799167  9.22395833333333 1.66780238500852  Z " fill-rule="nonzero" fill="#ffffff" stroke="none" transform="matrix(1 0 0 1 1139 39 )" />
  </g>
</svg>