<?xml version="1.0" encoding="utf-8"?>
<svg version="1.1" xmlns:xlink="http://www.w3.org/1999/xlink" width="10px" height="10px" xmlns="http://www.w3.org/2000/svg">
  <g transform="matrix(1 0 0 1 -1139 -63 )">
    <path d="M 4.61081402257873 3.26633165829146  C 4.83264012675777 3.03182579564489  4.9435531788473 2.74706867671692  4.9435531788473 2.41206030150754  C 4.9435531788473 2.07705192629816  4.83264012675777 1.79229480737018  4.61081402257873 1.55778894472362  C 4.38898791839968 1.32328308207705  4.11962764903941 1.20603015075377  3.80273321449792 1.20603015075377  C 3.48583877995643 1.20603015075377  3.21647851059616 1.32328308207705  2.99465240641711 1.55778894472362  C 2.77282630223807 1.79229480737018  2.66191325014854 2.07705192629816  2.66191325014854 2.41206030150754  C 2.66191325014854 2.58793969849246  2.69954446425035 2.76172529313233  2.77480689245395 2.93341708542714  C 2.61239849475144 2.85385259631491  2.44800950683304 2.81407035175879  2.28163992869875 2.81407035175879  C 1.96474549415726 2.81407035175879  1.69538522479699 2.93132328308208  1.47355912061794 3.16582914572864  C 1.2517330164389 3.40033500837521  1.14081996434938 3.68509212730318  1.14081996434938 4.02010050251256  C 1.14081996434938 4.35510887772194  1.2517330164389 4.63986599664992  1.47355912061794 4.87437185929648  C 1.69538522479699 5.10887772194305  1.96474549415726 5.22613065326633  2.28163992869875 5.22613065326633  C 2.59853436324025 5.22613065326633  2.86789463260051 5.10887772194305  3.08972073677956 4.87437185929648  C 3.31154684095861 4.63986599664992  3.42245989304813 4.35510887772194  3.42245989304813 4.02010050251256  C 3.42245989304813 3.84422110552764  3.38482867894633 3.67043551088777  3.30956625074272 3.49874371859296  C 3.47197464844524 3.57830820770519  3.63636363636364 3.61809045226131  3.80273321449792 3.61809045226131  C 4.11962764903941 3.61809045226131  4.38898791839968 3.50083752093802  4.61081402257873 3.26633165829146  Z M 9.83065953654189 6.57663316582915  C 9.9435531788473 6.71482412060302  10 6.80067001675042  10 6.83417085427136  C 10 6.90536013400335  9.90295107942167 7.04355108877722  9.708853238265 7.24874371859296  C 9.51475539710834 7.45393634840871  9.38403644285997 7.55653266331658  9.31669637551991 7.55653266331658  C 9.28104575163399 7.55653266331658  9.22459893048128 7.52303182579564  9.14735591206179 7.45603015075377  C 9.07011289364231 7.38902847571189  8.99782135076253 7.31993299832496  8.93048128342246 7.24874371859296  C 8.86314121608239 7.17755443886097  8.78688849277085 7.09380234505863  8.70172311348782 6.99748743718593  C 8.61655773420479 6.90117252931323  8.56803327391563 6.84673366834171  8.55614973262032 6.83417085427136  L 7.98573975044563 7.43718592964824  L 9.29292929292929 8.81909547738693  C 9.40384234501882 8.93634840871022  9.45929887106358 9.07872696817421  9.45929887106358 9.24623115577889  C 9.45929887106358 9.42211055276382  9.38205585264409 9.59170854271357  9.22756981580511 9.75502512562814  C 9.07308377896613 9.91834170854271  8.9126559714795 10  8.74628639334522 10  C 8.58783917607447 10  8.45315904139434 9.94137353433836  8.34224598930481 9.82412060301507  L 4.35531788472965 5.60929648241206  C 3.65815012873836 6.15787269681742  2.93523469994058 6.4321608040201  2.1865715983363 6.4321608040201  C 1.54089918795801 6.4321608040201  1.01505248564072 6.21754606365159  0.609031491384433 5.78831658291457  C 0.203010497128144 5.35908710217755  0 4.80318257956449  0 4.12060301507538  C 0 3.45058626465662  0.188156070509012 2.79522613065327  0.564468211527035 2.15452261306533  C 0.940780352545059 1.51381909547739  1.43196672608437 0.994556113902847  2.03802733214498 0.596733668341709  C 2.64408793820559 0.198911222780569  3.26401267577738 0  3.89780154486037 0  C 4.54347395523866 0  5.06932065755595 0.214614740368508  5.47534165181224 0.643844221105527  C 5.88136264606853 1.07307370184255  6.08437314319667 1.62897822445561  6.08437314319667 2.31155778894472  C 6.08437314319667 3.10301507537688  5.82491582491583 3.86725293132328  5.30600118835413 4.60427135678392  L 7.41532976827095 6.83417085427136  L 7.98573975044563 6.23115577889447  C 7.97385620915033 6.21859296482412  7.92236086353734 6.16729480737018  7.83125371360665 6.07726130653266  C 7.74014656367598 5.98722780569514  7.6609229550406 5.90661641541038  7.59358288770053 5.83542713567839  C 7.52624282036047 5.7642378559464  7.46088334323629 5.68781407035176  7.39750445632799 5.60615577889447  C 7.33412556941969 5.52449748743719  7.30243612596554 5.46482412060302  7.30243612596554 5.42713567839196  C 7.30243612596554 5.35594639865997  7.39948504654387 5.2177554438861  7.59358288770053 5.01256281407035  C 7.7876807288572 4.80737018425461  7.91839968310557 4.70477386934673  7.98573975044563 4.70477386934673  C 8.03723509605863 4.70477386934673  8.08278867102397 4.72571189279732  8.12240047534165 4.76758793969849  C 8.14616755793226 4.7927135678392  8.23727470786294 4.8858877721943  8.39572192513369 5.04711055276382  C 8.55416914240444 5.20833333333333  8.71657754010695 5.37479061976549  8.88294711824124 5.5464824120603  C 9.04931669637552 5.71817420435511  9.22063775004952 5.89824120603015  9.39691027926322 6.08668341708543  C 9.57318280847693 6.2751256281407  9.71776589423648 6.43844221105528  9.83065953654189 6.57663316582915  Z " fill-rule="nonzero" fill="#ffffff" stroke="none" transform="matrix(1 0 0 1 1139 63 )" />
  </g>
</svg>