<?xml version="1.0" encoding="utf-8"?>
<svg version="1.1" xmlns:xlink="http://www.w3.org/1999/xlink" width="6px" height="9px" xmlns="http://www.w3.org/2000/svg">
  <g transform="matrix(1 0 0 1 -135 -637 )">
    <path d="M 5.80208333333333 4.1044921875  C 5.93402777777778 4.2158203125  6 4.34765625  6 4.5  C 6 4.65234375  5.93402777777778 4.7841796875  5.80208333333333 4.8955078125  L 1.13541666666667 8.8330078125  C 1.00347222222222 8.9443359375  0.847222222222222 9  0.666666666666667 9  C 0.486111111111111 9  0.329861111111111 8.9443359375  0.197916666666667 8.8330078125  C 0.0659722222222222 8.7216796875  0 8.58984375  0 8.4375  L 0 0.5625  C 0 0.410156249999999  0.0659722222222222 0.278320312499999  0.197916666666667 0.1669921875  C 0.329861111111111 0.0556640624999993  0.486111111111111 0  0.666666666666667 0  C 0.847222222222222 0  1.00347222222222 0.0556640624999993  1.13541666666667 0.1669921875  L 5.80208333333333 4.1044921875  Z " fill-rule="nonzero" fill="#000000" stroke="none" transform="matrix(1 0 0 1 135 637 )" />
  </g>
</svg>