<?xml version="1.0" encoding="utf-8"?>
<svg version="1.1" xmlns:xlink="http://www.w3.org/1999/xlink" width="6px" height="9px" xmlns="http://www.w3.org/2000/svg">
  <g transform="matrix(1 0 0 1 -166 -637 )">
    <path d="M 4.423828125 4.76298701298701  L 0.263671875 8.91233766233766  C 0.189453125 8.98636363636364  0.126953125 9.01168831168831  0.076171875 8.98831168831169  C 0.025390625 8.96493506493507  0 8.9025974025974  0 8.8012987012987  L 0 0.198701298701298  C 0 0.0974025974025966  0.025390625 0.0350649350649346  0.076171875 0.0116883116883112  C 0.126953125 -0.0116883116883122  0.189453125 0.0136363636363632  0.263671875 0.0876623376623374  L 4.423828125 4.23701298701299  C 4.458984375 4.27207792207792  4.484375 4.30909090909091  4.5 4.34805194805195  L 4.5 0.385714285714285  C 4.5 0.284415584415584  4.537109375 0.196753246753246  4.611328125 0.122727272727273  C 4.685546875 0.0487012987012978  4.7734375 0.0116883116883112  4.875 0.0116883116883112  L 5.625 0.0116883116883112  C 5.7265625 0.0116883116883112  5.814453125 0.0487012987012978  5.888671875 0.122727272727273  C 5.962890625 0.196753246753246  6 0.284415584415584  6 0.385714285714285  L 6 8.61428571428571  C 6 8.71558441558441  5.962890625 8.80324675324675  5.888671875 8.87727272727273  C 5.814453125 8.9512987012987  5.7265625 8.98831168831169  5.625 8.98831168831169  L 4.875 8.98831168831169  C 4.7734375 8.98831168831169  4.685546875 8.9512987012987  4.611328125 8.87727272727273  C 4.537109375 8.80324675324675  4.5 8.71558441558441  4.5 8.61428571428571  L 4.5 4.65194805194805  C 4.484375 4.69090909090909  4.458984375 4.72792207792208  4.423828125 4.76298701298701  Z " fill-rule="nonzero" fill="#000000" stroke="none" transform="matrix(1 0 0 1 166 637 )" />
  </g>
</svg>