<?xml version="1.0" encoding="utf-8"?>
<svg version="1.1" xmlns:xlink="http://www.w3.org/1999/xlink" width="10px" height="10px" xmlns="http://www.w3.org/2000/svg">
  <g transform="matrix(1 0 0 1 -1111 -220 )">
    <path d="M 9.76251604621309 5.86648685097775  C 9.92083868207103 5.69116655428186  10 5.48662620813666  10 5.25286581254214  C 10 5.01461002472466  9.92083868207103 4.81231737469094  9.76251604621309 4.645987862441  L 5.58408215661104 0.249494268374916  C 5.41720154043646 0.0831647561249715  5.22250748823278 0  5 0  C 4.7732135216089 0  4.58065896448438 0.0831647561249715  4.42233632862644 0.249494268374916  L 0.24390243902439 4.645987862441  C 0.0813008130081301 4.80782198246797  0 5.01011463250169  0 5.25286581254214  C 0 5.49112160035963  0.0813008130081301 5.69566194650483  0.24390243902439 5.86648685097775  L 0.718870346598203 6.37221847606204  C 0.885750962772786 6.53854798831198  1.08044501497647 6.62171274443695  1.30295250320924 6.62171274443695  C 1.52973898160034 6.62171274443695  1.72229353872486 6.53854798831198  1.8806161745828 6.37221847606204  L 3.76765083440308 4.38975050573162  L 3.76765083440308 9.13688469318948  C 3.76765083440308 9.370645088784  3.84895164741121 9.57293773881771  4.01155327342747 9.74376264329063  C 4.17415489944373 9.91458754776354  4.36670945656825 10  4.58921694480103 10  L 5.41078305519897 10  C 5.63329054343175 10  5.82584510055627 9.91458754776354  5.98844672657253 9.74376264329063  C 6.15104835258879 9.57293773881771  6.23234916559692 9.370645088784  6.23234916559692 9.13688469318948  L 6.23234916559692 4.38975050573162  L 8.1193838254172 6.37221847606204  C 8.27770646127514 6.53854798831198  8.47026101839966 6.62171274443695  8.69704749679076 6.62171274443695  C 8.91955498502353 6.62171274443695  9.11424903722721 6.53854798831198  9.2811296534018 6.37221847606204  L 9.76251604621309 5.86648685097775  Z " fill-rule="nonzero" fill="#ffffff" stroke="none" transform="matrix(1 0 0 1 1111 220 )" />
  </g>
</svg>