<?xml version="1.0" encoding="utf-8"?>
<svg version="1.1" xmlns:xlink="http://www.w3.org/1999/xlink" width="188px" height="23px" xmlns="http://www.w3.org/2000/svg">
  <defs>
    <mask fill="white" id="clip65">
      <path d="M 0 22  L 0 0  L 188 0  L 188 22  L 29.9061421670118 22  L 0 22  Z " fill-rule="evenodd" />
    </mask>
    <filter x="106px" y="11px" width="188px" height="23px" filterUnits="userSpaceOnUse" id="filter66">
      <feOffset dx="0" dy="-1" in="SourceAlpha" result="shadowOffsetInner" />
      <feGaussianBlur stdDeviation="0" in="shadowOffsetInner" result="shadowGaussian" />
      <feComposite in2="shadowGaussian" operator="atop" in="SourceAlpha" result="shadowComposite" />
      <feColorMatrix type="matrix" values="0 0 0 0 0.23921568627451  0 0 0 0 0.243137254901961  0 0 0 0 0.325490196078431  0 0 0 0.501960784313725 0  " in="shadowComposite" />
    </filter>
    <g id="widget67">
      <path d="M 0 22  L 0 0  L 188 0  L 188 22  L 29.9061421670118 22  L 0 22  Z " fill-rule="nonzero" fill="#ffffff" stroke="none" transform="matrix(1 0 0 1 106 12 )" />
      <path d="M 0 22  L 0 0  L 188 0  L 188 22  L 29.9061421670118 22  L 0 22  Z " stroke-width="2" stroke="#3d3e53" fill="none" stroke-opacity="0.23921568627451" transform="matrix(1 0 0 1 106 12 )" mask="url(#clip65)" />
    </g>
  </defs>
  <g transform="matrix(1 0 0 1 -106 -11 )">
    <use xlink:href="#widget67" filter="url(#filter66)" />
    <use xlink:href="#widget67" />
  </g>
</svg>