<?xml version="1.0" encoding="utf-8"?>
<svg version="1.1" xmlns:xlink="http://www.w3.org/1999/xlink" width="17px" height="16px" xmlns="http://www.w3.org/2000/svg">
  <g transform="matrix(1 0 0 1 -356 -129 )">
    <path d="M 1.30769230769231 12.2857142857143  L 1.30769230769231 14.8571428571429  L 4.25 14.8571428571429  L 4.25 12.2857142857143  L 1.30769230769231 12.2857142857143  Z M 4.90384615384615 12.2857142857143  L 4.90384615384615 14.8571428571429  L 8.17307692307692 14.8571428571429  L 8.17307692307692 12.2857142857143  L 4.90384615384615 12.2857142857143  Z M 1.30769230769231 8.85714285714286  L 1.30769230769231 11.7142857142857  L 4.25 11.7142857142857  L 4.25 8.85714285714286  L 1.30769230769231 8.85714285714286  Z M 4.90384615384615 8.85714285714286  L 4.90384615384615 11.7142857142857  L 8.17307692307692 11.7142857142857  L 8.17307692307692 8.85714285714286  L 4.90384615384615 8.85714285714286  Z M 1.30769230769231 5.71428571428571  L 1.30769230769231 8.28571428571428  L 4.25 8.28571428571428  L 4.25 5.71428571428571  L 1.30769230769231 5.71428571428571  Z M 8.82692307692308 12.2857142857143  L 8.82692307692308 14.8571428571429  L 12.0961538461538 14.8571428571429  L 12.0961538461538 12.2857142857143  L 8.82692307692308 12.2857142857143  Z M 4.90384615384615 5.71428571428571  L 4.90384615384615 8.28571428571428  L 8.17307692307692 8.28571428571428  L 8.17307692307692 5.71428571428571  L 4.90384615384615 5.71428571428571  Z M 12.75 12.2857142857143  L 12.75 14.8571428571429  L 15.6923076923077 14.8571428571429  L 15.6923076923077 12.2857142857143  L 12.75 12.2857142857143  Z M 8.82692307692308 8.85714285714286  L 8.82692307692308 11.7142857142857  L 12.0961538461538 11.7142857142857  L 12.0961538461538 8.85714285714286  L 8.82692307692308 8.85714285714286  Z M 5.13371394230769 4.20089285714286  C 5.19841746794872 4.14434523809524  5.23076923076923 4.07738095238095  5.23076923076923 4  L 5.23076923076923 1.42857142857143  C 5.23076923076923 1.35119047619048  5.19841746794872 1.28422619047619  5.13371394230769 1.22767857142857  C 5.06901041666667 1.17113095238095  4.99238782051282 1.14285714285714  4.90384615384615 1.14285714285714  L 4.25 1.14285714285714  C 4.16145833333333 1.14285714285714  4.08483573717949 1.17113095238095  4.02013221153846 1.22767857142857  C 3.95542868589744 1.28422619047619  3.92307692307692 1.35119047619048  3.92307692307692 1.42857142857143  L 3.92307692307692 4  C 3.92307692307692 4.07738095238095  3.95542868589744 4.14434523809524  4.02013221153846 4.20089285714286  C 4.08483573717949 4.25744047619048  4.16145833333333 4.28571428571429  4.25 4.28571428571429  L 4.90384615384615 4.28571428571429  C 4.99238782051282 4.28571428571429  5.06901041666667 4.25744047619048  5.13371394230769 4.20089285714286  Z M 12.75 8.85714285714286  L 12.75 11.7142857142857  L 15.6923076923077 11.7142857142857  L 15.6923076923077 8.85714285714286  L 12.75 8.85714285714286  Z M 8.82692307692308 5.71428571428571  L 8.82692307692308 8.28571428571428  L 12.0961538461538 8.28571428571428  L 12.0961538461538 5.71428571428571  L 8.82692307692308 5.71428571428571  Z M 12.75 5.71428571428571  L 12.75 8.28571428571428  L 15.6923076923077 8.28571428571428  L 15.6923076923077 5.71428571428571  L 12.75 5.71428571428571  Z M 12.9798677884615 4.20089285714286  C 13.0445713141026 4.14434523809524  13.0769230769231 4.07738095238095  13.0769230769231 4  L 13.0769230769231 1.42857142857143  C 13.0769230769231 1.35119047619048  13.0445713141026 1.28422619047619  12.9798677884615 1.22767857142857  C 12.9151642628205 1.17113095238095  12.8385416666667 1.14285714285714  12.75 1.14285714285714  L 12.0961538461538 1.14285714285714  C 12.0076121794872 1.14285714285714  11.9309895833333 1.17113095238095  11.8662860576923 1.22767857142857  C 11.8015825320513 1.28422619047619  11.7692307692308 1.35119047619048  11.7692307692308 1.42857142857143  L 11.7692307692308 4  C 11.7692307692308 4.07738095238095  11.8015825320513 4.14434523809524  11.8662860576923 4.20089285714286  C 11.9309895833333 4.25744047619048  12.0076121794872 4.28571428571429  12.0961538461538 4.28571428571429  L 12.75 4.28571428571429  C 12.8385416666667 4.28571428571429  12.9151642628205 4.25744047619048  12.9798677884615 4.20089285714286  Z M 16.6117788461538 2.625  C 16.8705929487179 2.85119047619048  17 3.11904761904762  17 3.42857142857143  L 17 14.8571428571429  C 17 15.1666666666667  16.8705929487179 15.4345238095238  16.6117788461538 15.6607142857143  C 16.3529647435897 15.8869047619048  16.0464743589744 16  15.6923076923077 16  L 1.30769230769231 16  C 0.953525641025641 16  0.647035256410257 15.8869047619048  0.388221153846154 15.6607142857143  C 0.129407051282051 15.4345238095238  0 15.1666666666667  0 14.8571428571429  L 0 3.42857142857143  C 0 3.11904761904762  0.129407051282051 2.85119047619048  0.388221153846154 2.625  C 0.647035256410257 2.39880952380952  0.953525641025641 2.28571428571429  1.30769230769231 2.28571428571429  L 2.61538461538462 2.28571428571429  L 2.61538461538462 1.42857142857143  C 2.61538461538462 1.03571428571429  2.77544070512821 0.699404761904761  3.09555288461538 0.419642857142858  C 3.41566506410256 0.139880952380953  3.80048076923077 0  4.25 0  L 4.90384615384615 0  C 5.35336538461538 0  5.73818108974359 0.139880952380953  6.05829326923077 0.419642857142858  C 6.37840544871795 0.699404761904761  6.53846153846154 1.03571428571429  6.53846153846154 1.42857142857143  L 6.53846153846154 2.28571428571429  L 10.4615384615385 2.28571428571429  L 10.4615384615385 1.42857142857143  C 10.4615384615385 1.03571428571429  10.6215945512821 0.699404761904761  10.9417067307692 0.419642857142858  C 11.2618189102564 0.139880952380953  11.6466346153846 0  12.0961538461538 0  L 12.75 0  C 13.1995192307692 0  13.5843349358974 0.139880952380953  13.9044471153846 0.419642857142858  C 14.2245592948718 0.699404761904761  14.3846153846154 1.03571428571429  14.3846153846154 1.42857142857143  L 14.3846153846154 2.28571428571429  L 15.6923076923077 2.28571428571429  C 16.0464743589744 2.28571428571429  16.3529647435897 2.39880952380952  16.6117788461538 2.625  Z " fill-rule="nonzero" fill="#7f7f7f" stroke="none" transform="matrix(1 0 0 1 356 129 )" />
  </g>
</svg>