<?xml version="1.0" encoding="utf-8"?>
<svg version="1.1" xmlns:xlink="http://www.w3.org/1999/xlink" width="10px" height="11px" xmlns="http://www.w3.org/2000/svg">
  <g transform="matrix(1 0 0 1 -1015 -3998 )">
    <path d="M 6.1328125 6.74609375  C 6.65965544871795 6.16656650641026  6.92307692307692 5.46915064102564  6.92307692307692 4.65384615384615  C 6.92307692307692 3.83854166666667  6.65965544871795 3.14112580128205  6.1328125 2.56159855769231  C 5.60596955128205 1.98207131410256  4.97195512820513 1.69230769230769  4.23076923076923 1.69230769230769  C 3.48958333333333 1.69230769230769  2.85556891025641 1.98207131410256  2.32872596153846 2.56159855769231  C 1.80188301282051 3.14112580128205  1.53846153846154 3.83854166666667  1.53846153846154 4.65384615384615  C 1.53846153846154 5.46915064102564  1.80188301282051 6.16656650641026  2.32872596153846 6.74609375  C 2.85556891025641 7.32562099358974  3.48958333333333 7.61538461538462  4.23076923076923 7.61538461538462  C 4.97195512820513 7.61538461538462  5.60596955128205 7.32562099358974  6.1328125 6.74609375  Z M 9.77764423076923 9.55889423076923  C 9.92588141025641 9.72195512820513  10 9.92027243589744  10 10.1538461538462  C 10 10.3830128205128  9.92387820512821 10.5813301282051  9.77163461538462 10.7487980769231  C 9.61939102564103 10.916266025641  9.43910256410257 11  9.23076923076923 11  C 9.01442307692308 11  8.83413461538462 10.916266025641  8.68990384615385 10.7487980769231  L 6.62860576923077 8.48798076923077  C 5.91145833333333 9.03445512820513  5.11217948717949 9.30769230769231  4.23076923076923 9.30769230769231  C 3.65785256410256 9.30769230769231  3.10997596153846 9.18539663461539  2.58713942307692 8.94080528846154  C 2.06430288461538 8.69621394230769  1.61358173076923 8.36568509615384  1.23497596153846 7.94921875  C 0.856370192307692 7.53275240384615  0.555889423076923 7.03695913461539  0.333533653846154 6.46183894230769  C 0.111177884615385 5.88671875  0 5.28405448717949  0 4.65384615384615  C 0 4.02363782051282  0.111177884615385 3.42097355769231  0.333533653846154 2.84585336538462  C 0.555889423076923 2.27073317307692  0.856370192307692 1.77493990384615  1.23497596153846 1.35847355769231  C 1.61358173076923 0.942007211538462  2.06430288461538 0.611478365384615  2.58713942307692 0.36688701923077  C 3.10997596153846 0.122295673076923  3.65785256410256 0  4.23076923076923 0  C 4.8036858974359 0  5.3515625 0.122295673076923  5.87439903846154 0.36688701923077  C 6.39723557692308 0.611478365384615  6.84795673076923 0.942007211538462  7.2265625 1.35847355769231  C 7.60516826923077 1.77493990384615  7.90564903846154 2.27073317307692  8.12800480769231 2.84585336538462  C 8.35036057692308 3.42097355769231  8.46153846153846 4.02363782051282  8.46153846153846 4.65384615384615  C 8.46153846153846 5.62339743589744  8.21314102564103 6.50260416666667  7.71634615384615 7.29146634615385  L 9.77764423076923 9.55889423076923  Z " fill-rule="nonzero" fill="#ffffff" stroke="none" transform="matrix(1 0 0 1 1015 3998 )" />
  </g>
</svg>