<?xml version="1.0" encoding="utf-8"?>
<svg version="1.1" xmlns:xlink="http://www.w3.org/1999/xlink" width="11px" height="11px" xmlns="http://www.w3.org/2000/svg">
  <g transform="matrix(1 0 0 1 -1065 -2820 )">
    <path d="M 0.908954326923077 10.0152994791667  C 0.950821314102564 10.0606553819444  1.00040064102564 10.0833333333333  1.05769230769231 10.0833333333333  L 5.07692307692308 10.0833333333333  L 5.07692307692308 1.83333333333333  L 0.846153846153846 1.83333333333333  L 0.846153846153846 9.85416666666667  C 0.846153846153846 9.91623263888889  0.86708733974359 9.96994357638889  0.908954326923077 10.0152994791667  Z M 10.0910456730769 10.0152994791667  C 10.1329126602564 9.96994357638889  10.1538461538462 9.91623263888889  10.1538461538462 9.85416666666667  L 10.1538461538462 1.83333333333333  L 5.92307692307692 1.83333333333333  L 5.92307692307692 10.0833333333333  L 9.94230769230769 10.0833333333333  C 9.99959935897436 10.0833333333333  10.0491786858974 10.0606553819444  10.0910456730769 10.0152994791667  Z M 10.6893028846154 0.336588541666667  C 10.8964342948718 0.560980902777777  11 0.830729166666667  11 1.14583333333333  L 11 9.85416666666667  C 11 10.1692708333333  10.8964342948718 10.4390190972222  10.6893028846154 10.6634114583333  C 10.482171474359 10.8878038194444  10.2331730769231 11  9.94230769230769 11  L 1.05769230769231 11  C 0.766826923076923 11  0.517828525641026 10.8878038194444  0.310697115384615 10.6634114583333  C 0.103565705128205 10.4390190972222  0 10.1692708333333  0 9.85416666666667  L 0 1.14583333333333  C 0 0.830729166666667  0.103565705128205 0.560980902777777  0.310697115384615 0.336588541666667  C 0.517828525641026 0.112196180555554  0.766826923076923 0  1.05769230769231 0  L 9.94230769230769 0  C 10.2331730769231 0  10.482171474359 0.112196180555554  10.6893028846154 0.336588541666667  Z " fill-rule="nonzero" fill="#ffffff" stroke="none" transform="matrix(1 0 0 1 1065 2820 )" />
  </g>
</svg>