<?xml version="1.0" encoding="utf-8"?>
<svg version="1.1" xmlns:xlink="http://www.w3.org/1999/xlink" width="10px" height="9px" xmlns="http://www.w3.org/2000/svg">
  <g transform="matrix(1 0 0 1 -1152 -2821 )">
    <path d="M 9.76251604621309 3.72016183412003  C 9.92083868207103 3.87795010114632  10 4.06203641267701  10 4.27242076871207  C 10 4.48685097774781  9.92083868207103 4.66891436277815  9.76251604621309 4.8186109238031  L 5.58408215661104 8.77545515846258  C 5.41720154043646 8.92515171948753  5.22250748823278 9  5 9  C 4.7732135216089 9  4.58065896448438 8.92515171948753  4.42233632862644 8.77545515846258  L 0.24390243902439 4.8186109238031  C 0.0813008130081301 4.67296021577883  0 4.49089683074848  0 4.27242076871207  C 0 4.05799055967633  0.0813008130081301 3.87390424814565  0.24390243902439 3.72016183412003  L 0.718870346598203 3.26500337154417  C 0.885750962772786 3.11530681051922  1.08044501497647 3.04045853000674  1.30295250320924 3.04045853000674  C 1.52973898160034 3.04045853000674  1.72229353872486 3.11530681051922  1.8806161745828 3.26500337154417  L 3.76765083440308 5.04922454484154  L 3.76765083440308 0.776803776129467  C 3.76765083440308 0.566419420094403  3.84895164741121 0.384356035064058  4.01155327342747 0.230613621038436  C 4.17415489944373 0.0768712070128107  4.36670945656825 0  4.58921694480103 0  L 5.41078305519897 0  C 5.63329054343175 0  5.82584510055627 0.0768712070128107  5.98844672657253 0.230613621038436  C 6.15104835258879 0.384356035064058  6.23234916559692 0.566419420094403  6.23234916559692 0.776803776129467  L 6.23234916559692 5.04922454484154  L 8.1193838254172 3.26500337154417  C 8.27770646127514 3.11530681051922  8.47026101839966 3.04045853000674  8.69704749679076 3.04045853000674  C 8.91955498502353 3.04045853000674  9.11424903722721 3.11530681051922  9.2811296534018 3.26500337154417  L 9.76251604621309 3.72016183412003  Z " fill-rule="nonzero" fill="#ffffff" stroke="none" transform="matrix(1 0 0 1 1152 2821 )" />
  </g>
</svg>