<?xml version="1.0" encoding="utf-8"?>
<svg version="1.1" xmlns:xlink="http://www.w3.org/1999/xlink" width="34px" height="29px" xmlns="http://www.w3.org/2000/svg">
  <g transform="matrix(1 0 0 1 -306 -211 )">
    <path d="M 9.06666666666667 10.3571428571429  C 9.06666666666667 11.8567708333333  9.54479166666667 13.2377232142857  10.5010416666667 14.5  C 8.58854166666667 14.553943452381  7.02430555555556 15.2444196428571  5.80833333333333 16.5714285714286  L 3.43541666666667 16.5714285714286  C 2.46736111111111 16.5714285714286  1.65277777777778 16.3529575892857  0.991666666666667 15.916015625  C 0.330555555555555 15.4790736607143  0 14.83984375  0 13.9983258928571  C 0 10.1899181547619  0.731944444444444 8.28571428571428  2.19583333333333 8.28571428571428  C 2.26666666666667 8.28571428571428  2.5234375 8.39899553571428  2.96614583333333 8.62555803571428  C 3.40885416666667 8.85212053571428  3.984375 9.08138020833333  4.69270833333333 9.31333705357143  C 5.40104166666667 9.54529389880952  6.10347222222222 9.66127232142857  6.8 9.66127232142857  C 7.59097222222222 9.66127232142857  8.37604166666667 9.53720238095238  9.15520833333333 9.2890625  C 9.09618055555556 9.68824404761904  9.06666666666667 10.0442708333333  9.06666666666667 10.3571428571429  Z M 29.4046875 23.1336495535714  C 29.4460069444444 23.678478422619  29.4666666666667 24.2367931547619  29.4666666666667 24.80859375  C 29.4666666666667 26.1032366071429  29.0357638888889 27.1254650297619  28.1739583333333 27.8752790178571  C 27.3121527777778 28.6250930059524  26.1670138888889 29  24.7385416666667 29  L 9.26145833333333 29  C 7.83298611111111 29  6.68784722222222 28.6250930059524  5.82604166666667 27.8752790178571  C 4.96423611111111 27.1254650297619  4.53333333333333 26.1032366071429  4.53333333333333 24.80859375  C 4.53333333333333 24.2367931547619  4.55399305555556 23.678478422619  4.5953125 23.1336495535714  C 4.63663194444445 22.5888206845238  4.71927083333333 22.0008370535714  4.84322916666667 21.3696986607143  C 4.9671875 20.7385602678571  5.12361111111111 20.1532738095238  5.3125 19.6138392857143  C 5.50138888888889 19.0744047619048  5.75520833333333 18.5484561011905  6.07395833333333 18.0359933035714  C 6.39270833333333 17.5235305059524  6.75868055555556 17.0865885416667  7.171875 16.7251674107143  C 7.58506944444444 16.3637462797619  8.08975694444445 16.0751488095238  8.6859375 15.859375  C 9.28211805555556 15.6436011904762  9.94027777777778 15.5357142857143  10.6604166666667 15.5357142857143  C 10.7784722222222 15.5357142857143  11.0322916666667 15.6516927083333  11.421875 15.8836495535714  C 11.8114583333333 16.1156063988095  12.2423611111111 16.3745349702381  12.7145833333333 16.6604352678571  C 13.1868055555556 16.9463355654762  13.8184027777778 17.2052641369048  14.609375 17.4372209821429  C 15.4003472222222 17.669177827381  16.1972222222222 17.78515625  17 17.78515625  C 17.8027777777778 17.78515625  18.5996527777778 17.669177827381  19.390625 17.4372209821429  C 20.1815972222222 17.2052641369048  20.8131944444444 16.9463355654762  21.2854166666667 16.6604352678571  C 21.7576388888889 16.3745349702381  22.1885416666667 16.1156063988095  22.578125 15.8836495535714  C 22.9677083333333 15.6516927083333  23.2215277777778 15.5357142857143  23.3395833333333 15.5357142857143  C 24.0597222222222 15.5357142857143  24.7178819444445 15.6436011904762  25.3140625 15.859375  C 25.9102430555556 16.0751488095238  26.4149305555556 16.3637462797619  26.828125 16.7251674107143  C 27.2413194444445 17.0865885416667  27.6072916666667 17.5235305059524  27.9260416666667 18.0359933035714  C 28.2447916666667 18.5484561011905  28.4986111111111 19.0744047619048  28.6875 19.6138392857143  C 28.8763888888889 20.1532738095238  29.0328125 20.7385602678571  29.1567708333333 21.3696986607143  C 29.2807291666667 22.0008370535714  29.3633680555556 22.5888206845238  29.4046875 23.1336495535714  Z M 10.0052083333333 1.21372767857143  C 10.890625 2.02287946428571  11.3333333333333 2.99925595238095  11.3333333333333 4.14285714285714  C 11.3333333333333 5.28645833333333  10.890625 6.26283482142857  10.0052083333333 7.07198660714286  C 9.11979166666667 7.88113839285714  8.05138888888889 8.28571428571428  6.8 8.28571428571428  C 5.54861111111111 8.28571428571428  4.48020833333333 7.88113839285714  3.59479166666667 7.07198660714286  C 2.709375 6.26283482142857  2.26666666666667 5.28645833333333  2.26666666666667 4.14285714285714  C 2.26666666666667 2.99925595238095  2.709375 2.02287946428571  3.59479166666667 1.21372767857143  C 4.48020833333333 0.404575892857144  5.54861111111111 0  6.8 0  C 8.05138888888889 0  9.11979166666667 0.404575892857144  10.0052083333333 1.21372767857143  Z M 21.8078125 5.96344866071429  C 23.1359375 7.17717633928571  23.8 8.64174107142857  23.8 10.3571428571429  C 23.8 12.0725446428571  23.1359375 13.537109375  21.8078125 14.7508370535714  C 20.4796875 15.9645647321429  18.8770833333333 16.5714285714286  17 16.5714285714286  C 15.1229166666667 16.5714285714286  13.5203125 15.9645647321429  12.1921875 14.7508370535714  C 10.8640625 13.537109375  10.2 12.0725446428571  10.2 10.3571428571429  C 10.2 8.64174107142857  10.8640625 7.17717633928571  12.1921875 5.96344866071429  C 13.5203125 4.74972098214286  15.1229166666667 4.14285714285714  17 4.14285714285714  C 18.8770833333333 4.14285714285714  20.4796875 4.74972098214286  21.8078125 5.96344866071429  Z M 31.8041666666667 8.28571428571428  C 33.2680555555556 8.28571428571428  34 10.1899181547619  34 13.9983258928571  C 34 14.83984375  33.6694444444444 15.4790736607143  33.0083333333333 15.916015625  C 32.3472222222222 16.3529575892857  31.5326388888889 16.5714285714286  30.5645833333333 16.5714285714286  L 28.1916666666667 16.5714285714286  C 26.9756944444445 15.2444196428571  25.4114583333333 14.553943452381  23.4989583333333 14.5  C 24.4552083333333 13.2377232142857  24.9333333333333 11.8567708333333  24.9333333333333 10.3571428571429  C 24.9333333333333 10.0442708333333  24.9038194444444 9.68824404761904  24.8447916666667 9.2890625  C 25.6239583333333 9.53720238095238  26.4090277777778 9.66127232142857  27.2 9.66127232142857  C 27.8965277777778 9.66127232142857  28.5989583333333 9.54529389880952  29.3072916666667 9.31333705357143  C 30.015625 9.08138020833333  30.5911458333333 8.85212053571428  31.0338541666667 8.62555803571428  C 31.4765625 8.39899553571428  31.7333333333333 8.28571428571428  31.8041666666667 8.28571428571428  Z M 30.4052083333333 1.21372767857143  C 31.290625 2.02287946428571  31.7333333333333 2.99925595238095  31.7333333333333 4.14285714285714  C 31.7333333333333 5.28645833333333  31.290625 6.26283482142857  30.4052083333333 7.07198660714286  C 29.5197916666667 7.88113839285714  28.4513888888889 8.28571428571428  27.2 8.28571428571428  C 25.9486111111111 8.28571428571428  24.8802083333333 7.88113839285714  23.9947916666667 7.07198660714286  C 23.109375 6.26283482142857  22.6666666666667 5.28645833333333  22.6666666666667 4.14285714285714  C 22.6666666666667 2.99925595238095  23.109375 2.02287946428571  23.9947916666667 1.21372767857143  C 24.8802083333333 0.404575892857144  25.9486111111111 0  27.2 0  C 28.4513888888889 0  29.5197916666667 0.404575892857144  30.4052083333333 1.21372767857143  Z " fill-rule="nonzero" fill="#027db4" stroke="none" transform="matrix(1 0 0 1 306 211 )" />
  </g>
</svg>