<?xml version="1.0" encoding="utf-8"?>
<svg version="1.1" xmlns:xlink="http://www.w3.org/1999/xlink" width="6px" height="6px" xmlns="http://www.w3.org/2000/svg">
  <g transform="matrix(1 0 0 1 -185 -200 )">
    <path d="M 5.59765625 1.494140625  C 5.86588541666667 1.95377604166667  6 2.45572916666667  6 3  C 6 3.54427083333333  5.86588541666667 4.04622395833333  5.59765625 4.505859375  C 5.32942708333333 4.96549479166667  4.96549479166667 5.32942708333333  4.505859375 5.59765625  C 4.04622395833333 5.86588541666667  3.54427083333333 6  3 6  C 2.45572916666667 6  1.95377604166667 5.86588541666667  1.494140625 5.59765625  C 1.03450520833333 5.32942708333333  0.670572916666667 4.96549479166667  0.40234375 4.505859375  C 0.134114583333333 4.04622395833333  0 3.54427083333333  0 3  C 0 2.45572916666667  0.134114583333333 1.95377604166667  0.40234375 1.494140625  C 0.670572916666667 1.03450520833333  1.03450520833333 0.670572916666666  1.494140625 0.40234375  C 1.95377604166667 0.134114583333333  2.45572916666667 0  3 0  C 3.54427083333333 0  4.04622395833333 0.134114583333333  4.505859375 0.40234375  C 4.96549479166667 0.670572916666666  5.32942708333333 1.03450520833333  5.59765625 1.494140625  Z " fill-rule="nonzero" fill="#027db4" stroke="none" transform="matrix(1 0 0 1 185 200 )" />
  </g>
</svg>