<?xml version="1.0" encoding="utf-8"?>
<svg version="1.1" xmlns:xlink="http://www.w3.org/1999/xlink" width="145px" height="23px" xmlns="http://www.w3.org/2000/svg">
  <defs>
    <mask fill="white" id="clip132">
      <path d="M 0 22  L 0 0  L 107.552631578947 0  L 145 0  L 145 22  L 0 22  Z " fill-rule="evenodd" />
    </mask>
    <filter x="128px" y="125px" width="145px" height="23px" filterUnits="userSpaceOnUse" id="filter133">
      <feOffset dx="0" dy="-1" in="SourceAlpha" result="shadowOffsetInner" />
      <feGaussianBlur stdDeviation="0" in="shadowOffsetInner" result="shadowGaussian" />
      <feComposite in2="shadowGaussian" operator="atop" in="SourceAlpha" result="shadowComposite" />
      <feColorMatrix type="matrix" values="0 0 0 0 0.23921568627451  0 0 0 0 0.243137254901961  0 0 0 0 0.325490196078431  0 0 0 0.501960784313725 0  " in="shadowComposite" />
    </filter>
    <g id="widget134">
      <path d="M 0 22  L 0 0  L 107.552631578947 0  L 145 0  L 145 22  L 0 22  Z " fill-rule="nonzero" fill="#f2f2f2" stroke="none" transform="matrix(1 0 0 1 128 126 )" />
      <path d="M 0 22  L 0 0  L 107.552631578947 0  L 145 0  L 145 22  L 0 22  Z " stroke-width="2" stroke="#3d3e53" fill="none" stroke-opacity="0.23921568627451" transform="matrix(1 0 0 1 128 126 )" mask="url(#clip132)" />
    </g>
  </defs>
  <g transform="matrix(1 0 0 1 -128 -125 )">
    <use xlink:href="#widget134" filter="url(#filter133)" />
    <use xlink:href="#widget134" />
  </g>
</svg>