<?xml version="1.0" encoding="utf-8"?>
<svg version="1.1" xmlns:xlink="http://www.w3.org/1999/xlink" width="11px" height="12px" xmlns="http://www.w3.org/2000/svg">
  <g transform="matrix(1 0 0 1 -1086 -2250 )">
    <path d="M 9.03059895833333 6.8515625  C 9.12131076388889 6.75260416666667  9.16666666666667 6.63541666666667  9.16666666666667 6.5  L 9.16666666666667 5.5  C 9.16666666666667 5.36458333333333  9.12131076388889 5.24739583333333  9.03059895833333 5.1484375  C 8.93988715277778 5.04947916666667  8.83246527777778 5  8.70833333333333 5  L 6.41666666666667 5  L 6.41666666666667 2.5  C 6.41666666666667 2.36458333333333  6.37131076388889 2.24739583333333  6.28059895833333 2.1484375  C 6.18988715277778 2.04947916666667  6.08246527777778 2  5.95833333333333 2  L 5.04166666666667 2  C 4.91753472222222 2  4.81011284722222 2.04947916666667  4.71940104166667 2.1484375  C 4.62868923611111 2.24739583333333  4.58333333333333 2.36458333333333  4.58333333333333 2.5  L 4.58333333333333 5  L 2.29166666666667 5  C 2.16753472222222 5  2.06011284722222 5.04947916666667  1.96940104166667 5.1484375  C 1.87868923611111 5.24739583333333  1.83333333333333 5.36458333333333  1.83333333333333 5.5  L 1.83333333333333 6.5  C 1.83333333333333 6.63541666666667  1.87868923611111 6.75260416666667  1.96940104166667 6.8515625  C 2.06011284722222 6.95052083333333  2.16753472222222 7  2.29166666666667 7  L 4.58333333333333 7  L 4.58333333333333 9.5  C 4.58333333333333 9.63541666666667  4.62868923611111 9.75260416666667  4.71940104166667 9.8515625  C 4.81011284722222 9.95052083333333  4.91753472222222 10  5.04166666666667 10  L 5.95833333333333 10  C 6.08246527777778 10  6.18988715277778 9.95052083333333  6.28059895833333 9.8515625  C 6.37131076388889 9.75260416666667  6.41666666666667 9.63541666666667  6.41666666666667 9.5  L 6.41666666666667 7  L 8.70833333333333 7  C 8.83246527777778 7  8.93988715277778 6.95052083333333  9.03059895833333 6.8515625  Z M 10.3948567708333 0.66015625  C 10.7982855902778 1.10026041666667  11 1.63020833333333  11 2.25  L 11 9.75  C 11 10.3697916666667  10.7982855902778 10.8997395833333  10.3948567708333 11.33984375  C 9.99142795138889 11.7799479166667  9.50564236111111 12  8.9375 12  L 2.0625 12  C 1.49435763888889 12  1.00857204861111 11.7799479166667  0.605143229166667 11.33984375  C 0.201714409722222 10.8997395833333  0 10.3697916666667  0 9.75  L 0 2.25  C 0 1.63020833333333  0.201714409722222 1.10026041666667  0.605143229166667 0.66015625  C 1.00857204861111 0.220052083333333  1.49435763888889 0  2.0625 0  L 8.9375 0  C 9.50564236111111 0  9.99142795138889 0.220052083333333  10.3948567708333 0.66015625  Z " fill-rule="nonzero" fill="#ffffff" stroke="none" transform="matrix(1 0 0 1 1086 2250 )" />
  </g>
</svg>