<?xml version="1.0" encoding="utf-8"?>
<svg version="1.1" xmlns:xlink="http://www.w3.org/1999/xlink" width="11px" height="11px" xmlns="http://www.w3.org/2000/svg">
  <g transform="matrix(1 0 0 1 -23 -63 )">
    <path d="M 10.8897795591182 9.79296066252588  C 10.9632598530394 9.86887508626639  11 9.95617667356798  11 10.0548654244306  C 11 10.1535541752933  10.9632598530394 10.2408557625949  10.8897795591182 10.3167701863354  L 10.3386773547094 10.8861283643892  C 10.2651970607882 10.9620427881297  10.1806947227789 11  10.0851703406814 11  C 9.98964595858383 11  9.90514362057448 10.9620427881297  9.83166332665331 10.8861283643892  L 5.5 6.41097308488613  L 1.16833667334669 10.8861283643892  C 1.09485637942552 10.9620427881297  1.01035404141617 11  0.914829659318637 11  C 0.819305277221109 11  0.734802939211757 10.9620427881297  0.661322645290581 10.8861283643892  L 0.110220440881764 10.3167701863354  C 0.036740146960588 10.2408557625949  0 10.1535541752933  0 10.0548654244306  C 0 9.95617667356798  0.036740146960588 9.86887508626639  0.110220440881764 9.79296066252588  L 5.24649298597194 4.48654244306418  C 5.31997327989312 4.41062801932367  5.40447561790247 4.37267080745342  5.5 4.37267080745342  C 5.59552438209753 4.37267080745342  5.68002672010688 4.41062801932367  5.75350701402806 4.48654244306418  L 10.8897795591182 9.79296066252588  Z M 10.8897795591182 5.42028985507246  C 10.9632598530394 5.49620427881297  11 5.58350586611456  11 5.68219461697723  C 11 5.78088336783989  10.9632598530394 5.86818495514148  10.8897795591182 5.94409937888199  L 10.3386773547094 6.51345755693582  C 10.2651970607882 6.58937198067633  10.1806947227789 6.62732919254658  10.0851703406814 6.62732919254658  C 9.98964595858383 6.62732919254658  9.90514362057448 6.58937198067633  9.83166332665331 6.51345755693582  L 5.5 2.03830227743271  L 1.16833667334669 6.51345755693582  C 1.09485637942552 6.58937198067633  1.01035404141617 6.62732919254658  0.914829659318637 6.62732919254658  C 0.819305277221109 6.62732919254658  0.734802939211757 6.58937198067633  0.661322645290581 6.51345755693582  L 0.110220440881764 5.94409937888199  C 0.036740146960588 5.86818495514148  0 5.78088336783989  0 5.68219461697723  C 0 5.58350586611456  0.036740146960588 5.49620427881297  0.110220440881764 5.42028985507246  L 5.24649298597194 0.113871635610766  C 5.31997327989312 0.0379572118702545  5.40447561790247 0  5.5 0  C 5.59552438209753 0  5.68002672010688 0.0379572118702545  5.75350701402806 0.113871635610766  L 10.8897795591182 5.42028985507246  Z " fill-rule="nonzero" fill="#000000" stroke="none" transform="matrix(1 0 0 1 23 63 )" />
  </g>
</svg>