<?xml version="1.0" encoding="utf-8"?>
<svg version="1.1" xmlns:xlink="http://www.w3.org/1999/xlink" width="10px" height="10px" xmlns="http://www.w3.org/2000/svg">
  <g transform="matrix(1 0 0 1 -367 -172 )">
    <path d="M 6.1328125 6.1328125  C 6.65965544871795 5.60596955128205  6.92307692307692 4.97195512820513  6.92307692307692 4.23076923076923  C 6.92307692307692 3.48958333333333  6.65965544871795 2.85556891025641  6.1328125 2.32872596153846  C 5.60596955128205 1.80188301282051  4.97195512820513 1.53846153846154  4.23076923076923 1.53846153846154  C 3.48958333333333 1.53846153846154  2.85556891025641 1.80188301282051  2.32872596153846 2.32872596153846  C 1.80188301282051 2.85556891025641  1.53846153846154 3.48958333333333  1.53846153846154 4.23076923076923  C 1.53846153846154 4.97195512820513  1.80188301282051 5.60596955128205  2.32872596153846 6.1328125  C 2.85556891025641 6.65965544871795  3.48958333333333 6.92307692307692  4.23076923076923 6.92307692307692  C 4.97195512820513 6.92307692307692  5.60596955128205 6.65965544871795  6.1328125 6.1328125  Z M 9.77764423076923 8.68990384615385  C 9.92588141025641 8.83814102564103  10 9.01842948717949  10 9.23076923076923  C 10 9.43910256410257  9.92387820512821 9.61939102564103  9.77163461538462 9.77163461538462  C 9.61939102564103 9.9238782051282  9.43910256410257 10  9.23076923076923 10  C 9.01442307692308 10  8.83413461538462 9.9238782051282  8.68990384615385 9.77163461538462  L 6.62860576923077 7.71634615384615  C 5.91145833333333 8.21314102564103  5.11217948717949 8.46153846153846  4.23076923076923 8.46153846153846  C 3.65785256410256 8.46153846153846  3.10997596153846 8.35036057692308  2.58713942307692 8.12800480769231  C 2.06430288461538 7.90564903846154  1.61358173076923 7.60516826923077  1.23497596153846 7.2265625  C 0.856370192307692 6.84795673076923  0.555889423076923 6.39723557692308  0.333533653846154 5.87439903846154  C 0.111177884615385 5.3515625  0 4.8036858974359  0 4.23076923076923  C 0 3.65785256410256  0.111177884615385 3.10997596153846  0.333533653846154 2.58713942307692  C 0.555889423076923 2.06430288461538  0.856370192307692 1.61358173076923  1.23497596153846 1.23497596153846  C 1.61358173076923 0.856370192307693  2.06430288461538 0.555889423076923  2.58713942307692 0.333533653846154  C 3.10997596153846 0.111177884615384  3.65785256410256 0  4.23076923076923 0  C 4.8036858974359 0  5.3515625 0.111177884615384  5.87439903846154 0.333533653846154  C 6.39723557692308 0.555889423076923  6.84795673076923 0.856370192307693  7.2265625 1.23497596153846  C 7.60516826923077 1.61358173076923  7.90564903846154 2.06430288461538  8.12800480769231 2.58713942307692  C 8.35036057692308 3.10997596153846  8.46153846153846 3.65785256410256  8.46153846153846 4.23076923076923  C 8.46153846153846 5.11217948717949  8.21314102564103 5.91145833333333  7.71634615384615 6.62860576923077  L 9.77764423076923 8.68990384615385  Z " fill-rule="nonzero" fill="#000000" stroke="none" transform="matrix(1 0 0 1 367 172 )" />
  </g>
</svg>