<?xml version="1.0" encoding="utf-8"?>
<svg version="1.1" xmlns:xlink="http://www.w3.org/1999/xlink" width="7px" height="9px" xmlns="http://www.w3.org/2000/svg">
  <g transform="matrix(1 0 0 1 -80 -9 )">
    <path d="M 4.29296875 5.51953125  C 4.66175881410256 5.04537259615385  4.84615384615385 4.47475961538462  4.84615384615385 3.80769230769231  C 4.84615384615385 3.140625  4.66175881410256 2.57001201923077  4.29296875 2.09585336538462  C 3.92417868589744 1.62169471153846  3.48036858974359 1.38461538461538  2.96153846153846 1.38461538461538  C 2.44270833333333 1.38461538461538  1.99889823717949 1.62169471153846  1.63010817307692 2.09585336538462  C 1.26131810897436 2.57001201923077  1.07692307692308 3.140625  1.07692307692308 3.80769230769231  C 1.07692307692308 4.47475961538462  1.26131810897436 5.04537259615385  1.63010817307692 5.51953125  C 1.99889823717949 5.99368990384615  2.44270833333333 6.23076923076923  2.96153846153846 6.23076923076923  C 3.48036858974359 6.23076923076923  3.92417868589744 5.99368990384615  4.29296875 5.51953125  Z M 6.84435096153846 7.82091346153846  C 6.94811698717949 7.95432692307692  7 8.11658653846154  7 8.30769230769231  C 7 8.49519230769231  6.94671474358974 8.65745192307692  6.84014423076923 8.79447115384615  C 6.73357371794872 8.93149038461539  6.6073717948718 9  6.46153846153846 9  C 6.31009615384615 9  6.18389423076923 8.93149038461539  6.08293269230769 8.79447115384615  L 4.64002403846154 6.94471153846154  C 4.13802083333333 7.39182692307692  3.57852564102564 7.61538461538462  2.96153846153846 7.61538461538462  C 2.5604967948718 7.61538461538462  2.17698317307692 7.51532451923077  1.81099759615385 7.31520432692308  C 1.44501201923077 7.11508413461539  1.12950721153846 6.84465144230769  0.864483173076923 6.50390625  C 0.599459134615385 6.16316105769231  0.389122596153846 5.75751201923077  0.233473557692308 5.28695913461539  C 0.0778245192307692 4.81640625  0 4.32331730769231  0 3.80769230769231  C 0 3.29206730769231  0.0778245192307692 2.79897836538462  0.233473557692308 2.32842548076923  C 0.389122596153846 1.85787259615385  0.599459134615385 1.45222355769231  0.864483173076923 1.11147836538462  C 1.12950721153846 0.770733173076923  1.44501201923077 0.500300480769231  1.81099759615385 0.300180288461539  C 2.17698317307692 0.100060096153846  2.5604967948718 0  2.96153846153846 0  C 3.36258012820513 0  3.74609375 0.100060096153846  4.11207932692308 0.300180288461539  C 4.47806490384615 0.500300480769231  4.79356971153846 0.770733173076923  5.05859375 1.11147836538462  C 5.32361778846154 1.45222355769231  5.53395432692308 1.85787259615385  5.68960336538462 2.32842548076923  C 5.84525240384615 2.79897836538462  5.92307692307692 3.29206730769231  5.92307692307692 3.80769230769231  C 5.92307692307692 4.60096153846154  5.74919871794872 5.3203125  5.40144230769231 5.96574519230769  L 6.84435096153846 7.82091346153846  Z " fill-rule="nonzero" fill="#3d3e53" stroke="none" transform="matrix(1 0 0 1 80 9 )" />
  </g>
</svg>