<?xml version="1.0" standalone="no"?><!DOCTYPE svg PUBLIC "-//W3C//DTD SVG 1.1//EN" "http://www.w3.org/Graphics/SVG/1.1/DTD/svg11.dtd"><svg t="1653282326093" class="icon" viewBox="0 0 1024 1024" version="1.1" xmlns="http://www.w3.org/2000/svg" p-id="3105" xmlns:xlink="http://www.w3.org/1999/xlink" width="200" height="200"><defs><style type="text/css">@font-face { font-family: feedback-iconfont; src: url("//at.alicdn.com/t/font_1031158_u69w8yhxdu.woff2?t=1630033759944") format("woff2"), url("//at.alicdn.com/t/font_1031158_u69w8yhxdu.woff?t=1630033759944") format("woff"), url("//at.alicdn.com/t/font_1031158_u69w8yhxdu.ttf?t=1630033759944") format("truetype"); }
</style></defs><path d="M511.777943 68.191078c-245.204631 0-443.586864 198.60429-443.586864 443.808922s198.382233 443.808922 443.586864 443.808922 444.030979-198.60429 444.030979-443.808922S756.982574 68.191078 511.777943 68.191078zM819.11568 334.476841 688.191838 334.476841c-14.423501-55.476499-34.617425-108.733447-61.245899-157.995407C708.606797 204.440206 776.509303 261.025968 819.11568 334.476841zM512 158.506037c37.058011 53.256948 65.906036 112.505353 84.767616 175.96978L427.232384 334.475817C446.093964 271.01139 474.941989 211.762985 512 158.506037zM168.491459 600.76158c-7.322779-28.40391-11.538801-58.139142-11.538801-88.76158s4.216022-60.35767 11.538801-88.76158l149.785421 0c-3.550873 29.069059-5.991458 58.582233-5.991458 88.76158s2.440585 59.69252 6.213515 88.76158L168.491459 600.76158zM204.662263 689.523159l130.923842 0c14.423501 55.476499 34.617425 108.733447 61.245899 158.217465C315.171146 819.780829 247.267617 762.974032 204.662263 689.523159zM335.586105 334.476841 204.662263 334.476841c42.605354-73.449849 110.508883-130.257669 192.168718-158.217465C370.202507 225.743394 350.009605 279.000342 335.586105 334.476841zM512 865.493963c-36.835953-53.256948-65.683978-112.505353-84.767616-175.96978l169.535231 0C577.682955 752.987586 548.835953 812.235992 512 865.493963zM615.851253 600.76158 408.148747 600.76158c-4.216022-29.069059-7.100722-58.582233-7.100722-88.76158s2.8847-59.69252 7.100722-88.76158l207.702506 0c4.216022 29.069059 7.100722 58.582233 7.100722 88.76158S620.067274 571.69252 615.851253 600.76158zM627.167996 847.51959c26.628474-49.485041 46.821375-102.519931 61.245899-157.995407l130.923842 0C776.510326 762.974032 708.606797 819.558771 627.167996 847.51959zM705.500039 600.76158c3.550873-29.069059 6.213515-58.582233 6.213515-88.76158s-2.440585-59.69252-6.213515-88.76158l149.785421 0c7.322779 28.40391 11.760858 58.139142 11.760858 88.76158s-4.216022 60.35767-11.760858 88.76158L705.500039 600.76158z" p-id="3106" fill="#65B4BB" data-spm-anchor-id="a313x.7781069.0.i0" class=""></path></svg>