<?xml version="1.0" encoding="utf-8"?>
<svg version="1.1" xmlns:xlink="http://www.w3.org/1999/xlink" width="12px" height="16px" xmlns="http://www.w3.org/2000/svg">
  <g transform="matrix(1 0 0 1 -1090 -96 )">
    <path d="M 0.923076923076923 12.2857142857143  L 0.923076923076923 14.8571428571429  L 3 14.8571428571429  L 3 12.2857142857143  L 0.923076923076923 12.2857142857143  Z M 3.46153846153846 12.2857142857143  L 3.46153846153846 14.8571428571429  L 5.76923076923077 14.8571428571429  L 5.76923076923077 12.2857142857143  L 3.46153846153846 12.2857142857143  Z M 0.923076923076923 8.85714285714286  L 0.923076923076923 11.7142857142857  L 3 11.7142857142857  L 3 8.85714285714286  L 0.923076923076923 8.85714285714286  Z M 3.46153846153846 8.85714285714286  L 3.46153846153846 11.7142857142857  L 5.76923076923077 11.7142857142857  L 5.76923076923077 8.85714285714286  L 3.46153846153846 8.85714285714286  Z M 0.923076923076923 5.71428571428571  L 0.923076923076923 8.28571428571428  L 3 8.28571428571428  L 3 5.71428571428571  L 0.923076923076923 5.71428571428571  Z M 6.23076923076923 12.2857142857143  L 6.23076923076923 14.8571428571429  L 8.53846153846154 14.8571428571429  L 8.53846153846154 12.2857142857143  L 6.23076923076923 12.2857142857143  Z M 3.46153846153846 5.71428571428571  L 3.46153846153846 8.28571428571428  L 5.76923076923077 8.28571428571428  L 5.76923076923077 5.71428571428571  L 3.46153846153846 5.71428571428571  Z M 9 12.2857142857143  L 9 14.8571428571429  L 11.0769230769231 14.8571428571429  L 11.0769230769231 12.2857142857143  L 9 12.2857142857143  Z M 6.23076923076923 8.85714285714286  L 6.23076923076923 11.7142857142857  L 8.53846153846154 11.7142857142857  L 8.53846153846154 8.85714285714286  L 6.23076923076923 8.85714285714286  Z M 3.62379807692308 4.20089285714286  C 3.66947115384615 4.14434523809524  3.69230769230769 4.07738095238095  3.69230769230769 4  L 3.69230769230769 1.42857142857143  C 3.69230769230769 1.35119047619048  3.66947115384615 1.28422619047619  3.62379807692308 1.22767857142857  C 3.578125 1.17113095238095  3.52403846153846 1.14285714285714  3.46153846153846 1.14285714285714  L 3 1.14285714285714  C 2.9375 1.14285714285714  2.88341346153846 1.17113095238095  2.83774038461538 1.22767857142857  C 2.79206730769231 1.28422619047619  2.76923076923077 1.35119047619048  2.76923076923077 1.42857142857143  L 2.76923076923077 4  C 2.76923076923077 4.07738095238095  2.79206730769231 4.14434523809524  2.83774038461538 4.20089285714286  C 2.88341346153846 4.25744047619048  2.9375 4.28571428571429  3 4.28571428571429  L 3.46153846153846 4.28571428571429  C 3.52403846153846 4.28571428571429  3.578125 4.25744047619048  3.62379807692308 4.20089285714286  Z M 9 8.85714285714286  L 9 11.7142857142857  L 11.0769230769231 11.7142857142857  L 11.0769230769231 8.85714285714286  L 9 8.85714285714286  Z M 6.23076923076923 5.71428571428571  L 6.23076923076923 8.28571428571428  L 8.53846153846154 8.28571428571428  L 8.53846153846154 5.71428571428571  L 6.23076923076923 5.71428571428571  Z M 9 5.71428571428571  L 9 8.28571428571428  L 11.0769230769231 8.28571428571428  L 11.0769230769231 5.71428571428571  L 9 5.71428571428571  Z M 9.16225961538462 4.20089285714286  C 9.20793269230769 4.14434523809524  9.23076923076923 4.07738095238095  9.23076923076923 4  L 9.23076923076923 1.42857142857143  C 9.23076923076923 1.35119047619048  9.20793269230769 1.28422619047619  9.16225961538462 1.22767857142857  C 9.11658653846154 1.17113095238095  9.0625 1.14285714285714  9 1.14285714285714  L 8.53846153846154 1.14285714285714  C 8.47596153846154 1.14285714285714  8.421875 1.17113095238095  8.37620192307692 1.22767857142857  C 8.33052884615385 1.28422619047619  8.30769230769231 1.35119047619048  8.30769230769231 1.42857142857143  L 8.30769230769231 4  C 8.30769230769231 4.07738095238095  8.33052884615385 4.14434523809524  8.37620192307692 4.20089285714286  C 8.421875 4.25744047619048  8.47596153846154 4.28571428571429  8.53846153846154 4.28571428571429  L 9 4.28571428571429  C 9.0625 4.28571428571429  9.11658653846154 4.25744047619048  9.16225961538462 4.20089285714286  Z M 11.7259615384615 2.625  C 11.9086538461538 2.85119047619048  12 3.11904761904762  12 3.42857142857143  L 12 14.8571428571429  C 12 15.1666666666667  11.9086538461538 15.4345238095238  11.7259615384615 15.6607142857143  C 11.5432692307692 15.8869047619048  11.3269230769231 16  11.0769230769231 16  L 0.923076923076923 16  C 0.673076923076923 16  0.456730769230769 15.8869047619048  0.274038461538462 15.6607142857143  C 0.0913461538461538 15.4345238095238  0 15.1666666666667  0 14.8571428571429  L 0 3.42857142857143  C 0 3.11904761904762  0.0913461538461538 2.85119047619048  0.274038461538462 2.625  C 0.456730769230769 2.39880952380952  0.673076923076923 2.28571428571429  0.923076923076923 2.28571428571429  L 1.84615384615385 2.28571428571429  L 1.84615384615385 1.42857142857143  C 1.84615384615385 1.03571428571429  1.95913461538462 0.699404761904761  2.18509615384615 0.419642857142858  C 2.41105769230769 0.139880952380953  2.68269230769231 0  3 0  L 3.46153846153846 0  C 3.77884615384615 0  4.05048076923077 0.139880952380953  4.27644230769231 0.419642857142858  C 4.50240384615385 0.699404761904761  4.61538461538462 1.03571428571429  4.61538461538462 1.42857142857143  L 4.61538461538462 2.28571428571429  L 7.38461538461539 2.28571428571429  L 7.38461538461539 1.42857142857143  C 7.38461538461539 1.03571428571429  7.49759615384615 0.699404761904761  7.72355769230769 0.419642857142858  C 7.94951923076923 0.139880952380953  8.22115384615385 0  8.53846153846154 0  L 9 0  C 9.31730769230769 0  9.58894230769231 0.139880952380953  9.81490384615385 0.419642857142858  C 10.0408653846154 0.699404761904761  10.1538461538462 1.03571428571429  10.1538461538462 1.42857142857143  L 10.1538461538462 2.28571428571429  L 11.0769230769231 2.28571428571429  C 11.3269230769231 2.28571428571429  11.5432692307692 2.39880952380952  11.7259615384615 2.625  Z " fill-rule="nonzero" fill="#7f7f7f" stroke="none" transform="matrix(1 0 0 1 1090 96 )" />
  </g>
</svg>