<?xml version="1.0" encoding="utf-8"?>
<svg version="1.1" xmlns:xlink="http://www.w3.org/1999/xlink" width="14px" height="15px" xmlns="http://www.w3.org/2000/svg">
  <g transform="matrix(1 0 0 1 -1415 -2543 )">
    <path d="M 10.8463541666667 6.25  C 10.8463541666667 6.41927083333333  10.7886284722222 6.56575520833333  10.6731770833333 6.689453125  L 6.82682291666667 10.810546875  C 6.71137152777778 10.9342447916667  6.57465277777778 10.99609375  6.41666666666667 10.99609375  C 6.25868055555556 10.99609375  6.12196180555556 10.9342447916667  6.00651041666667 10.810546875  L 3.32682291666667 7.939453125  C 3.21137152777778 7.81575520833333  3.15364583333333 7.66927083333333  3.15364583333333 7.5  C 3.15364583333333 7.33072916666667  3.21137152777778 7.18424479166667  3.32682291666667 7.060546875  L 4.25651041666667 6.064453125  C 4.37196180555556 5.94075520833333  4.50868055555556 5.87890625  4.66666666666667 5.87890625  C 4.82465277777778 5.87890625  4.96137152777778 5.94075520833333  5.07682291666667 6.064453125  L 6.41666666666667 7.5  L 8.92317708333333 4.814453125  C 9.03862847222222 4.69075520833333  9.17534722222222 4.62890625  9.33333333333333 4.62890625  C 9.49131944444444 4.62890625  9.62803819444444 4.69075520833333  9.74348958333333 4.814453125  L 10.6731770833333 5.810546875  C 10.7886284722222 5.93424479166667  10.8463541666667 6.08072916666667  10.8463541666667 6.25  Z M 11.29296875 10.166015625  C 11.7365451388889 9.35221354166666  11.9583333333333 8.46354166666667  11.9583333333333 7.5  C 11.9583333333333 6.53645833333333  11.7365451388889 5.64778645833333  11.29296875 4.833984375  C 10.8493923611111 4.02018229166667  10.2478298611111 3.37565104166667  9.48828125 2.900390625  C 8.72873263888889 2.42513020833333  7.89930555555556 2.1875  7 2.1875  C 6.10069444444444 2.1875  5.27126736111111 2.42513020833333  4.51171875 2.900390625  C 3.75217013888889 3.37565104166667  3.15060763888889 4.02018229166667  2.70703125 4.833984375  C 2.26345486111111 5.64778645833333  2.04166666666667 6.53645833333333  2.04166666666667 7.5  C 2.04166666666667 8.46354166666667  2.26345486111111 9.35221354166666  2.70703125 10.166015625  C 3.15060763888889 10.9798177083333  3.75217013888889 11.6243489583333  4.51171875 12.099609375  C 5.27126736111111 12.5748697916667  6.10069444444444 12.8125  7 12.8125  C 7.89930555555556 12.8125  8.72873263888889 12.5748697916667  9.48828125 12.099609375  C 10.2478298611111 11.6243489583333  10.8493923611111 10.9798177083333  11.29296875 10.166015625  Z M 13.0611979166667 3.7353515625  C 13.6870659722222 4.88444010416667  14 6.13932291666666  14 7.5  C 14 8.86067708333333  13.6870659722222 10.1155598958333  13.0611979166667 11.2646484375  C 12.4353298611111 12.4137369791667  11.5861545138889 13.3235677083333  10.513671875 13.994140625  C 9.44118923611111 14.6647135416667  8.26996527777778 15  7 15  C 5.73003472222222 15  4.55881076388889 14.6647135416667  3.486328125 13.994140625  C 2.41384548611111 13.3235677083333  1.56467013888889 12.4137369791667  0.938802083333333 11.2646484375  C 0.312934027777778 10.1155598958333  0 8.86067708333333  0 7.5  C 0 6.13932291666666  0.312934027777778 4.88444010416667  0.938802083333333 3.7353515625  C 1.56467013888889 2.58626302083333  2.41384548611111 1.67643229166667  3.486328125 1.005859375  C 4.55881076388889 0.335286458333332  5.73003472222222 0  7 0  C 8.26996527777778 0  9.44118923611111 0.335286458333332  10.513671875 1.005859375  C 11.5861545138889 1.67643229166667  12.4353298611111 2.58626302083333  13.0611979166667 3.7353515625  Z " fill-rule="nonzero" fill="#000000" stroke="none" transform="matrix(1 0 0 1 1415 2543 )" />
  </g>
</svg>