<?xml version="1.0" encoding="utf-8"?>
<svg version="1.1" xmlns:xlink="http://www.w3.org/1999/xlink" width="50px" height="48px" xmlns="http://www.w3.org/2000/svg">
  <g transform="matrix(1 0 0 1 -489 -3147 )">
    <path d="M 48.8125802310655 19.8408631153068  C 49.6041934103552 20.6824005394471  50 21.664194200944  50 22.7862440997977  C 50 23.9298718813216  49.6041934103552 24.9008766014835  48.8125802310655 25.6992582602832  L 27.9204107830552 46.8024275118004  C 27.0860077021823 47.6008091706001  26.1125374411639 48  25 48  C 23.8660676080445 48  22.9032948224219 47.6008091706001  22.1116816431322 46.8024275118004  L 1.21951219512195 25.6992582602832  C 0.406504065040651 24.9224544841537  0 23.9514497639919  0 22.7862440997977  C 0 21.6426163182738  0.406504065040651 20.6608226567768  1.21951219512195 19.8408631153068  L 3.59435173299101 17.4133513149022  C 4.42875481386393 16.6149696561025  5.40222507488233 16.2157788267026  6.51476251604621 16.2157788267026  C 7.64869490800171 16.2157788267026  8.61146769362431 16.6149696561025  9.40308087291399 17.4133513149022  L 19 26.9291975724882  L 19 4.14295347269049  C 18.8382541720154 3.02090357383682  19.2447582370561 2.04989885367498  20.0577663671374 1.22993931220499  C 20.8707744972187 0.40997977073499  21.8335472828413 0  22.9460847240051 0  L 27.0539152759949 0  C 28.1664527171588 0  29.1292255027813 0.40997977073499  29.9422336328626 1.22993931220499  C 30.7552417629439 2.04989885367498  31.1617458279846 3.02090357383682  31 4.14295347269049  L 31 26.9291975724882  L 40.596919127086 17.4133513149022  C 41.3885323063757 16.6149696561025  42.3513050919983 16.2157788267026  43.4852374839538 16.2157788267026  C 44.5977749251177 16.2157788267026  45.5712451861361 16.6149696561025  46.405648267009 17.4133513149022  L 48.8125802310655 19.8408631153068  Z " fill-rule="nonzero" fill="#d9001b" stroke="none" transform="matrix(1 0 0 1 489 3147 )" />
  </g>
</svg>