<?xml version="1.0" encoding="utf-8"?>
<svg version="1.1" xmlns:xlink="http://www.w3.org/1999/xlink" width="39px" height="43px" xmlns="http://www.w3.org/2000/svg">
  <g transform="matrix(1 0 0 1 -948 -1979 )">
    <path d="M 28.69140625 29.1145833333333  C 29.0130208333333 28.7599826388889  29.173828125 28.3307291666667  29.173828125 27.8268229166667  C 29.173828125 27.3415798611111  29.0130208333333 26.9216579861111  28.69140625 26.5670572916667  L 24.095703125 21.5  L 28.69140625 16.4329427083333  C 29.0130208333333 16.0783420138889  29.173828125 15.6584201388889  29.173828125 15.1731770833333  C 29.173828125 14.6692708333333  29.0130208333333 14.2400173611111  28.69140625 13.8854166666667  L 26.40625 11.3658854166667  C 26.0846354166667 11.0112847222222  25.6953125 10.833984375  25.23828125 10.833984375  C 24.7981770833333 10.833984375  24.4173177083333 11.0112847222222  24.095703125 11.3658854166667  L 19.5 16.4329427083333  L 14.904296875 11.3658854166667  C 14.5826822916667 11.0112847222222  14.2018229166667 10.833984375  13.76171875 10.833984375  C 13.3046875 10.833984375  12.9153645833333 11.0112847222222  12.59375 11.3658854166667  L 10.30859375 13.8854166666667  C 9.98697916666667 14.2400173611111  9.826171875 14.6692708333333  9.826171875 15.1731770833333  C 9.826171875 15.6584201388889  9.98697916666667 16.0783420138889  10.30859375 16.4329427083333  L 14.904296875 21.5  L 10.30859375 26.5670572916667  C 9.98697916666667 26.9216579861111  9.826171875 27.3415798611111  9.826171875 27.8268229166667  C 9.826171875 28.3307291666667  9.98697916666667 28.7599826388889  10.30859375 29.1145833333333  L 12.59375 31.6341145833333  C 12.9153645833333 31.9887152777778  13.3046875 32.166015625  13.76171875 32.166015625  C 14.2018229166667 32.166015625  14.5826822916667 31.9887152777778  14.904296875 31.6341145833333  L 19.5 26.5670572916667  L 24.095703125 31.6341145833333  C 24.4173177083333 31.9887152777778  24.7981770833333 32.166015625  25.23828125 32.166015625  C 25.6953125 32.166015625  26.0846354166667 31.9887152777778  26.40625 31.6341145833333  L 28.69140625 29.1145833333333  Z M 36.384765625 10.7080078125  C 38.1282552083333 14.0020616319444  39 17.5993923611111  39 21.5  C 39 25.4006076388889  38.1282552083333 28.9979383680556  36.384765625 32.2919921875  C 34.6412760416667 35.5860460069444  32.2757161458333 38.1942274305556  29.2880859375 40.1165364583333  C 26.3004557291667 42.0388454861111  23.0377604166667 43  19.5 43  C 15.9622395833333 43  12.6995442708333 42.0388454861111  9.7119140625 40.1165364583333  C 6.72428385416667 38.1942274305556  4.35872395833333 35.5860460069444  2.615234375 32.2919921875  C 0.871744791666667 28.9979383680556  0 25.4006076388889  0 21.5  C 0 17.5993923611111  0.871744791666667 14.0020616319444  2.615234375 10.7080078125  C 4.35872395833333 7.41395399305556  6.72428385416667 4.80577256944444  9.7119140625 2.88346354166667  C 12.6995442708333 0.961154513888885  15.9622395833333 0  19.5 0  C 23.0377604166667 0  26.3004557291667 0.961154513888885  29.2880859375 2.88346354166667  C 32.2757161458333 4.80577256944444  34.6412760416667 7.41395399305556  36.384765625 10.7080078125  Z " fill-rule="nonzero" fill="#d9001b" stroke="none" transform="matrix(1 0 0 1 948 1979 )" />
  </g>
</svg>