<?xml version="1.0" encoding="utf-8"?>
<svg version="1.1" xmlns:xlink="http://www.w3.org/1999/xlink" width="10px" height="8px" xmlns="http://www.w3.org/2000/svg">
  <g transform="matrix(1 0 0 1 -95 -710 )">
    <path d="M 9.81935483870968 1.1043771043771  C 9.93978494623656 1.2300785634119  10 1.38271604938272  10 1.56228956228956  C 10 1.74186307519641  9.93978494623656 1.89450056116723  9.81935483870968 2.02020202020202  L 5.14838709677419 6.8956228956229  L 4.27096774193548 7.81144781144781  C 4.1505376344086 7.9371492704826  4.00430107526882 8  3.83225806451613 8  C 3.66021505376344 8  3.51397849462366 7.9371492704826  3.39354838709677 7.81144781144781  L 2.51612903225806 6.8956228956229  L 0.180645161290323 4.45791245791246  C 0.0602150537634409 4.33221099887766  0 4.17957351290685  0 4  C 0 3.82042648709315  0.0602150537634409 3.66778900112233  0.180645161290323 3.54208754208754  L 1.05806451612903 2.62626262626263  C 1.17849462365591 2.50056116722783  1.3247311827957 2.43771043771044  1.49677419354839 2.43771043771044  C 1.66881720430108 2.43771043771044  1.81505376344086 2.50056116722783  1.93548387096774 2.62626262626263  L 3.83225806451613 4.61279461279461  L 8.06451612903226 0.188552188552189  C 8.18494623655914 0.0628507295173959  8.33118279569893 0  8.50322580645161 0  C 8.6752688172043 0  8.82150537634409 0.0628507295173959  8.94193548387097 0.188552188552189  L 9.81935483870968 1.1043771043771  Z " fill-rule="nonzero" fill="#ffffff" stroke="none" transform="matrix(1 0 0 1 95 710 )" />
  </g>
</svg>