<?xml version="1.0" encoding="utf-8"?>
<svg version="1.1" xmlns:xlink="http://www.w3.org/1999/xlink" width="24px" height="25px" xmlns="http://www.w3.org/2000/svg">
  <g transform="matrix(1 0 0 1 -61 -4183 )">
    <path d="M 73 4183.5  C 79.44 4183.5  84.5 4188.78  84.5 4195.5  C 84.5 4202.22  79.44 4207.5  73 4207.5  C 66.56 4207.5  61.5 4202.22  61.5 4195.5  C 61.5 4188.78  66.56 4183.5  73 4183.5  Z " fill-rule="nonzero" fill="#ffffff" stroke="none" />
    <path d="M 73 4183.5  C 79.44 4183.5  84.5 4188.78  84.5 4195.5  C 84.5 4202.22  79.44 4207.5  73 4207.5  C 66.56 4207.5  61.5 4202.22  61.5 4195.5  C 61.5 4188.78  66.56 4183.5  73 4183.5  Z " stroke-width="1" stroke-dasharray="3,1" stroke="#797979" fill="none" stroke-dashoffset="0.5" />
  </g>
</svg>