<?xml version="1.0" encoding="utf-8"?>
<svg version="1.1" xmlns:xlink="http://www.w3.org/1999/xlink" width="12px" height="9px" xmlns="http://www.w3.org/2000/svg">
  <g transform="matrix(1 0 0 1 -828 -213 )">
    <path d="M 6 4.90909090909091  L 6 2.45454545454545  L 3.75 2.45454545454545  L 3.75 4.90909090909091  L 6 4.90909090909091  Z M 3 6.54545454545455  L 6.75 6.54545454545455  L 6.75 7.36363636363636  L 3 7.36363636363636  L 3 6.54545454545455  Z M 3 1.63636363636364  L 6.75 1.63636363636364  L 6.75 5.72727272727273  L 3 5.72727272727273  L 3 1.63636363636364  Z M 7.5 6.54545454545455  L 10.5 6.54545454545455  L 10.5 7.36363636363636  L 7.5 7.36363636363636  L 7.5 6.54545454545455  Z M 7.5 4.90909090909091  L 10.5 4.90909090909091  L 10.5 5.72727272727273  L 7.5 5.72727272727273  L 7.5 4.90909090909091  Z M 7.5 3.27272727272727  L 10.5 3.27272727272727  L 10.5 4.09090909090909  L 7.5 4.09090909090909  L 7.5 3.27272727272727  Z M 7.5 1.63636363636364  L 10.5 1.63636363636364  L 10.5 2.45454545454545  L 7.5 2.45454545454545  L 7.5 1.63636363636364  Z M 1.388671875 8.06036931818182  C 1.462890625 7.97940340909091  1.5 7.88352272727273  1.5 7.77272727272727  L 1.5 1.63636363636364  L 0.75 1.63636363636364  L 0.75 7.77272727272727  C 0.75 7.88352272727273  0.787109375 7.97940340909091  0.861328125 8.06036931818182  C 0.935546875 8.14133522727273  1.0234375 8.18181818181818  1.125 8.18181818181818  C 1.2265625 8.18181818181818  1.314453125 8.14133522727273  1.388671875 8.06036931818182  Z M 11.138671875 8.06036931818182  C 11.212890625 7.97940340909091  11.25 7.88352272727273  11.25 7.77272727272727  L 11.25 0.818181818181818  L 2.25 0.818181818181818  L 2.25 7.77272727272727  C 2.25 7.91335227272727  2.228515625 8.04971590909091  2.185546875 8.18181818181818  L 10.875 8.18181818181818  C 10.9765625 8.18181818181818  11.064453125 8.14133522727273  11.138671875 8.06036931818182  Z M 1.5 0  L 12 0  L 12 7.77272727272727  C 12 8.11363636363636  11.890625 8.40340909090909  11.671875 8.64204545454546  C 11.453125 8.88068181818182  11.1875 9  10.875 9  L 1.125 9  C 0.8125 9  0.546875 8.88068181818182  0.328125 8.64204545454546  C 0.109375 8.40340909090909  0 8.11363636363636  0 7.77272727272727  L 0 0.818181818181818  L 1.5 0.818181818181818  L 1.5 0  Z " fill-rule="nonzero" fill="#ffffff" stroke="none" transform="matrix(1 0 0 1 828 213 )" />
  </g>
</svg>