<?xml version="1.0" encoding="utf-8"?>
<svg version="1.1" xmlns:xlink="http://www.w3.org/1999/xlink" width="14px" height="17px" xmlns="http://www.w3.org/2000/svg">
  <g transform="matrix(1 0 0 1 -278 -77 )">
    <path d="M 1.07692307692308 13.0535714285714  L 1.07692307692308 15.7857142857143  L 3.5 15.7857142857143  L 3.5 13.0535714285714  L 1.07692307692308 13.0535714285714  Z M 4.03846153846154 13.0535714285714  L 4.03846153846154 15.7857142857143  L 6.73076923076923 15.7857142857143  L 6.73076923076923 13.0535714285714  L 4.03846153846154 13.0535714285714  Z M 1.07692307692308 9.41071428571429  L 1.07692307692308 12.4464285714286  L 3.5 12.4464285714286  L 3.5 9.41071428571429  L 1.07692307692308 9.41071428571429  Z M 4.03846153846154 9.41071428571429  L 4.03846153846154 12.4464285714286  L 6.73076923076923 12.4464285714286  L 6.73076923076923 9.41071428571429  L 4.03846153846154 9.41071428571429  Z M 1.07692307692308 6.07142857142857  L 1.07692307692308 8.80357142857143  L 3.5 8.80357142857143  L 3.5 6.07142857142857  L 1.07692307692308 6.07142857142857  Z M 7.26923076923077 13.0535714285714  L 7.26923076923077 15.7857142857143  L 9.96153846153846 15.7857142857143  L 9.96153846153846 13.0535714285714  L 7.26923076923077 13.0535714285714  Z M 4.03846153846154 6.07142857142857  L 4.03846153846154 8.80357142857143  L 6.73076923076923 8.80357142857143  L 6.73076923076923 6.07142857142857  L 4.03846153846154 6.07142857142857  Z M 10.5 13.0535714285714  L 10.5 15.7857142857143  L 12.9230769230769 15.7857142857143  L 12.9230769230769 13.0535714285714  L 10.5 13.0535714285714  Z M 7.26923076923077 9.41071428571429  L 7.26923076923077 12.4464285714286  L 9.96153846153846 12.4464285714286  L 9.96153846153846 9.41071428571429  L 7.26923076923077 9.41071428571429  Z M 4.22776442307692 4.46344866071429  C 4.28104967948718 4.40336681547619  4.30769230769231 4.33221726190476  4.30769230769231 4.25  L 4.30769230769231 1.51785714285714  C 4.30769230769231 1.43563988095238  4.28104967948718 1.36449032738095  4.22776442307692 1.30440848214286  C 4.17447916666667 1.24432663690476  4.11137820512821 1.21428571428571  4.03846153846154 1.21428571428571  L 3.5 1.21428571428571  C 3.42708333333333 1.21428571428571  3.36398237179487 1.24432663690476  3.31069711538462 1.30440848214286  C 3.25741185897436 1.36449032738095  3.23076923076923 1.43563988095238  3.23076923076923 1.51785714285714  L 3.23076923076923 4.25  C 3.23076923076923 4.33221726190476  3.25741185897436 4.40336681547619  3.31069711538462 4.46344866071429  C 3.36398237179487 4.52353050595238  3.42708333333333 4.55357142857143  3.5 4.55357142857143  L 4.03846153846154 4.55357142857143  C 4.11137820512821 4.55357142857143  4.17447916666667 4.52353050595238  4.22776442307692 4.46344866071429  Z M 10.5 9.41071428571429  L 10.5 12.4464285714286  L 12.9230769230769 12.4464285714286  L 12.9230769230769 9.41071428571429  L 10.5 9.41071428571429  Z M 7.26923076923077 6.07142857142857  L 7.26923076923077 8.80357142857143  L 9.96153846153846 8.80357142857143  L 9.96153846153846 6.07142857142857  L 7.26923076923077 6.07142857142857  Z M 10.5 6.07142857142857  L 10.5 8.80357142857143  L 12.9230769230769 8.80357142857143  L 12.9230769230769 6.07142857142857  L 10.5 6.07142857142857  Z M 10.6893028846154 4.46344866071429  C 10.7425881410256 4.40336681547619  10.7692307692308 4.33221726190476  10.7692307692308 4.25  L 10.7692307692308 1.51785714285714  C 10.7692307692308 1.43563988095238  10.7425881410256 1.36449032738095  10.6893028846154 1.30440848214286  C 10.6360176282051 1.24432663690476  10.5729166666667 1.21428571428571  10.5 1.21428571428571  L 9.96153846153846 1.21428571428571  C 9.8886217948718 1.21428571428571  9.82552083333333 1.24432663690476  9.77223557692308 1.30440848214286  C 9.71895032051282 1.36449032738095  9.69230769230769 1.43563988095238  9.69230769230769 1.51785714285714  L 9.69230769230769 4.25  C 9.69230769230769 4.33221726190476  9.71895032051282 4.40336681547619  9.77223557692308 4.46344866071429  C 9.82552083333333 4.52353050595238  9.8886217948718 4.55357142857143  9.96153846153846 4.55357142857143  L 10.5 4.55357142857143  C 10.5729166666667 4.55357142857143  10.6360176282051 4.52353050595238  10.6893028846154 4.46344866071429  Z M 13.6802884615385 2.7890625  C 13.8934294871795 3.02938988095238  14 3.31398809523809  14 3.64285714285714  L 14 15.7857142857143  C 14 16.1145833333333  13.8934294871795 16.399181547619  13.6802884615385 16.6395089285714  C 13.4671474358974 16.8798363095238  13.2147435897436 17  12.9230769230769 17  L 1.07692307692308 17  C 0.78525641025641 17  0.532852564102564 16.8798363095238  0.319711538461538 16.6395089285714  C 0.106570512820513 16.399181547619  0 16.1145833333333  0 15.7857142857143  L 0 3.64285714285714  C 0 3.31398809523809  0.106570512820513 3.02938988095238  0.319711538461538 2.7890625  C 0.532852564102564 2.54873511904762  0.78525641025641 2.42857142857143  1.07692307692308 2.42857142857143  L 2.15384615384615 2.42857142857143  L 2.15384615384615 1.51785714285714  C 2.15384615384615 1.10044642857143  2.28565705128205 0.743117559523809  2.54927884615385 0.445870535714286  C 2.81290064102564 0.148623511904762  3.12980769230769 0  3.5 0  L 4.03846153846154 0  C 4.40865384615385 0  4.7255608974359 0.148623511904762  4.98918269230769 0.445870535714286  C 5.25280448717949 0.743117559523809  5.38461538461539 1.10044642857143  5.38461538461539 1.51785714285714  L 5.38461538461539 2.42857142857143  L 8.61538461538462 2.42857142857143  L 8.61538461538462 1.51785714285714  C 8.61538461538462 1.10044642857143  8.74719551282051 0.743117559523809  9.01081730769231 0.445870535714286  C 9.2744391025641 0.148623511904762  9.59134615384615 0  9.96153846153846 0  L 10.5 0  C 10.8701923076923 0  11.1870993589744 0.148623511904762  11.4507211538462 0.445870535714286  C 11.714342948718 0.743117559523809  11.8461538461538 1.10044642857143  11.8461538461538 1.51785714285714  L 11.8461538461538 2.42857142857143  L 12.9230769230769 2.42857142857143  C 13.2147435897436 2.42857142857143  13.4671474358974 2.54873511904762  13.6802884615385 2.7890625  Z " fill-rule="nonzero" fill="#7f7f7f" stroke="none" transform="matrix(1 0 0 1 278 77 )" />
  </g>
</svg>