<?xml version="1.0" encoding="utf-8"?>
<svg version="1.1" xmlns:xlink="http://www.w3.org/1999/xlink" width="165px" height="24px" xmlns="http://www.w3.org/2000/svg">
  <defs>
    <mask fill="white" id="clip2337">
      <path d="M 0 23  L 0 0  L 44.7358490566038 0  L 122.387477313975 0  L 165 0  L 165 23  L 44.7358490566038 23  L 0 23  Z " fill-rule="evenodd" />
    </mask>
    <filter x="137px" y="107px" width="165px" height="24px" filterUnits="userSpaceOnUse" id="filter2338">
      <feOffset dx="0" dy="-1" in="SourceAlpha" result="shadowOffsetInner" />
      <feGaussianBlur stdDeviation="0" in="shadowOffsetInner" result="shadowGaussian" />
      <feComposite in2="shadowGaussian" operator="atop" in="SourceAlpha" result="shadowComposite" />
      <feColorMatrix type="matrix" values="0 0 0 0 0.23921568627451  0 0 0 0 0.243137254901961  0 0 0 0 0.325490196078431  0 0 0 0.501960784313725 0  " in="shadowComposite" />
    </filter>
    <g id="widget2339">
      <path d="M 0 23  L 0 0  L 44.7358490566038 0  L 122.387477313975 0  L 165 0  L 165 23  L 44.7358490566038 23  L 0 23  Z " fill-rule="nonzero" fill="#fff6c8" stroke="none" transform="matrix(1 0 0 1 137 108 )" />
      <path d="M 0 23  L 0 0  L 44.7358490566038 0  L 122.387477313975 0  L 165 0  L 165 23  L 44.7358490566038 23  L 0 23  Z " stroke-width="2" stroke="#3d3e53" fill="none" stroke-opacity="0.23921568627451" transform="matrix(1 0 0 1 137 108 )" mask="url(#clip2337)" />
    </g>
  </defs>
  <g transform="matrix(1 0 0 1 -137 -107 )">
    <use xlink:href="#widget2339" filter="url(#filter2338)" />
    <use xlink:href="#widget2339" />
  </g>
</svg>