<?xml version="1.0" encoding="utf-8"?>
<svg version="1.1" xmlns:xlink="http://www.w3.org/1999/xlink" width="11px" height="11px" xmlns="http://www.w3.org/2000/svg">
  <g transform="matrix(1 0 0 1 -765 -212 )">
    <path d="M 6.74609375 6.74609375  C 7.32562099358974 6.16656650641026  7.61538461538462 5.46915064102564  7.61538461538462 4.65384615384615  C 7.61538461538462 3.83854166666667  7.32562099358974 3.14112580128205  6.74609375 2.56159855769231  C 6.16656650641026 1.98207131410256  5.46915064102564 1.69230769230769  4.65384615384615 1.69230769230769  C 3.83854166666667 1.69230769230769  3.14112580128205 1.98207131410256  2.56159855769231 2.56159855769231  C 1.98207131410256 3.14112580128205  1.69230769230769 3.83854166666667  1.69230769230769 4.65384615384615  C 1.69230769230769 5.46915064102564  1.98207131410256 6.16656650641026  2.56159855769231 6.74609375  C 3.14112580128205 7.32562099358974  3.83854166666667 7.61538461538462  4.65384615384615 7.61538461538462  C 5.46915064102564 7.61538461538462  6.16656650641026 7.32562099358974  6.74609375 6.74609375  Z M 10.7554086538462 9.55889423076923  C 10.9184695512821 9.72195512820513  11 9.92027243589744  11 10.1538461538462  C 11 10.3830128205128  10.916266025641 10.5813301282051  10.7487980769231 10.7487980769231  C 10.5813301282051 10.916266025641  10.3830128205128 11  10.1538461538462 11  C 9.91586538461539 11  9.71754807692308 10.916266025641  9.55889423076923 10.7487980769231  L 7.29146634615385 8.48798076923077  C 6.50260416666667 9.03445512820513  5.62339743589744 9.30769230769231  4.65384615384615 9.30769230769231  C 4.02363782051282 9.30769230769231  3.42097355769231 9.18539663461539  2.84585336538462 8.94080528846154  C 2.27073317307692 8.69621394230769  1.77493990384615 8.36568509615384  1.35847355769231 7.94921875  C 0.942007211538462 7.53275240384615  0.611478365384616 7.03695913461539  0.366887019230769 6.46183894230769  C 0.122295673076923 5.88671875  0 5.28405448717949  0 4.65384615384615  C 0 4.02363782051282  0.122295673076923 3.42097355769231  0.366887019230769 2.84585336538462  C 0.611478365384616 2.27073317307692  0.942007211538462 1.77493990384615  1.35847355769231 1.35847355769231  C 1.77493990384615 0.942007211538462  2.27073317307692 0.611478365384615  2.84585336538462 0.36688701923077  C 3.42097355769231 0.122295673076923  4.02363782051282 0  4.65384615384615 0  C 5.28405448717949 0  5.88671875 0.122295673076923  6.46183894230769 0.36688701923077  C 7.03695913461539 0.611478365384615  7.53275240384615 0.942007211538462  7.94921875 1.35847355769231  C 8.36568509615384 1.77493990384615  8.69621394230769 2.27073317307692  8.94080528846154 2.84585336538462  C 9.18539663461539 3.42097355769231  9.30769230769231 4.02363782051282  9.30769230769231 4.65384615384615  C 9.30769230769231 5.62339743589744  9.03445512820513 6.50260416666667  8.48798076923077 7.29146634615385  L 10.7554086538462 9.55889423076923  Z " fill-rule="nonzero" fill="#ffffff" stroke="none" transform="matrix(1 0 0 1 765 212 )" />
  </g>
</svg>