<?xml version="1.0" encoding="utf-8"?>
<svg version="1.1" xmlns:xlink="http://www.w3.org/1999/xlink" width="13px" height="12px" xmlns="http://www.w3.org/2000/svg">
  <g transform="matrix(1 0 0 1 -1020 -211 )">
    <path d="M 0.232142857142857 6  L 12.7678571428571 6  C 12.8355654761905 6  12.8911830357143 6.0234375  12.9347098214286 6.0703125  C 12.9782366071429 6.1171875  13 6.17708333333333  13 6.25  L 13 6.75  C 13 6.82291666666667  12.9782366071429 6.8828125  12.9347098214286 6.9296875  C 12.8911830357143 6.9765625  12.8355654761905 7  12.7678571428571 7  L 0.232142857142857 7  C 0.164434523809524 7  0.108816964285714 6.9765625  0.0652901785714286 6.9296875  C 0.0217633928571429 6.8828125  0 6.82291666666667  0 6.75  L 0 6.25  C 0 6.17708333333333  0.0217633928571429 6.1171875  0.0652901785714286 6.0703125  C 0.108816964285714 6.0234375  0.164434523809524 6  0.232142857142857 6  Z M 8.89397321428571 5.5  L 3.50390625 5.5  C 3.36848958333333 5.31770833333333  3.24516369047619 5.109375  3.13392857142857 4.875  C 2.90178571428571 4.36458333333333  2.78571428571429 3.875  2.78571428571429 3.40625  C 2.78571428571429 2.46354166666667  3.10974702380952 1.65885416666667  3.7578125 0.9921875  C 4.40104166666667 0.330729166666666  5.35137648809524 0  6.60881696428571 0  C 6.85063244047619 0  7.25446428571429 0.0494791666666661  7.8203125 0.1484375  C 8.13950892857143 0.2109375  8.56752232142857 0.3359375  9.10435267857143 0.5234375  C 9.15271577380952 0.721354166666667  9.20349702380952 1.02864583333333  9.25669642857143 1.4453125  C 9.32440476190476 2.0859375  9.35825892857143 2.5625  9.35825892857143 2.875  C 9.35825892857143 2.96875  9.34616815476191 3.0859375  9.32198660714286 3.2265625  L 9.23493303571429 3.25  L 8.62555803571429 3.203125  L 8.52399553571429 3.1875  C 8.28218005952381 2.41145833333333  8.03311011904762 1.87760416666667  7.77678571428571 1.5859375  C 7.35119047619048 1.11197916666667  6.84337797619048 0.875  6.25334821428571 0.875  C 5.70200892857143 0.875  5.26190476190476 1.02864583333333  4.93303571428571 1.3359375  C 4.60900297619048 1.63802083333333  4.44698660714286 2.01822916666667  4.44698660714286 2.4765625  C 4.44698660714286 2.85677083333333  4.60658482142857 3.22135416666667  4.92578125 3.5703125  C 5.24497767857143 3.91927083333333  5.91964285714286 4.25520833333333  6.94977678571429 4.578125  C 7.28348214285714 4.68229166666667  7.70182291666667 4.85416666666667  8.20479910714286 5.09375  C 8.48530505952381 5.23958333333333  8.71502976190476 5.375  8.89397321428571 5.5  Z M 8.17578125 8.0546875  C 8.01134672619048 7.90364583333333  7.68005952380952 7.71875  7.18191964285714 7.5  L 10.1635044642857 7.5  C 10.1973586309524 7.703125  10.2142857142857 7.94270833333333  10.2142857142857 8.21875  C 10.2142857142857 8.796875  10.1151413690476 9.34895833333333  9.91685267857143 9.875  C 9.80561755952381 10.1666666666667  9.63392857142857 10.4375  9.40178571428571 10.6875  C 9.22284226190476 10.8697916666667  8.95926339285714 11.0807291666667  8.61104910714286 11.3203125  C 8.22414434523809 11.5703125  7.85416666666667 11.7421875  7.50111607142857 11.8359375  C 7.11421130952381 11.9453125  6.62332589285714 12  6.02845982142857 12  C 5.47712053571429 12  5.00558035714286 11.9401041666667  4.61383928571429 11.8203125  L 3.59821428571429 11.5078125  C 3.32254464285714 11.4244791666667  3.1484375 11.3515625  3.07589285714286 11.2890625  C 3.03720238095238 11.2473958333333  3.01785714285714 11.1901041666667  3.01785714285714 11.1171875  L 3.01785714285714 11.015625  C 3.01785714285714 10.453125  3.01302083333333 10.046875  3.00334821428571 9.796875  C 2.99851190476191 9.640625  2.99851190476191 9.46354166666667  3.00334821428571 9.265625  L 3.01785714285714 8.9765625  L 3.01785714285714 8.6328125  L 3.7578125 8.6171875  C 3.83035714285714 8.79427083333333  3.90290178571429 8.97916666666667  3.97544642857143 9.171875  C 4.04799107142857 9.36458333333333  4.10239955357143 9.51041666666667  4.138671875 9.609375  C 4.17494419642857 9.70833333333333  4.20517113095238 9.77864583333333  4.22935267857143 9.8203125  C 4.39862351190476 10.1171875  4.59207589285714 10.3619791666667  4.80970982142857 10.5546875  C 5.01767113095238 10.7421875  5.27157738095238 10.890625  5.57142857142857 11  C 5.85677083333333 11.1145833333333  6.17596726190476 11.171875  6.52901785714286 11.171875  C 6.83854166666667 11.171875  7.17466517857143 11.1015625  7.53738839285714 10.9609375  C 7.90978422619048 10.8255208333333  8.20479910714286 10.6015625  8.42243303571429 10.2890625  C 8.64973958333333 9.97135416666667  8.76339285714286 9.63541666666667  8.76339285714286 9.28125  C 8.76339285714286 8.84375  8.56752232142857 8.43489583333333  8.17578125 8.0546875  Z " fill-rule="nonzero" fill="#ffffff" stroke="none" transform="matrix(1 0 0 1 1020 211 )" />
  </g>
</svg>