<?xml version="1.0" encoding="utf-8"?>
<svg version="1.1" xmlns:xlink="http://www.w3.org/1999/xlink" width="11px" height="11px" xmlns="http://www.w3.org/2000/svg">
  <g transform="matrix(1 0 0 1 -893 -213 )">
    <path d="M 9.03059895833333 6.28059895833333  C 9.12131076388889 6.18988715277778  9.16666666666667 6.08246527777778  9.16666666666667 5.95833333333333  L 9.16666666666667 5.04166666666667  C 9.16666666666667 4.91753472222222  9.12131076388889 4.81011284722222  9.03059895833333 4.71940104166667  C 8.93988715277778 4.62868923611111  8.83246527777778 4.58333333333333  8.70833333333333 4.58333333333333  L 6.41666666666667 4.58333333333333  L 6.41666666666667 2.29166666666667  C 6.41666666666667 2.16753472222222  6.37131076388889 2.06011284722222  6.28059895833333 1.96940104166667  C 6.18988715277778 1.87868923611111  6.08246527777778 1.83333333333333  5.95833333333333 1.83333333333333  L 5.04166666666667 1.83333333333333  C 4.91753472222222 1.83333333333333  4.81011284722222 1.87868923611111  4.71940104166667 1.96940104166667  C 4.62868923611111 2.06011284722222  4.58333333333333 2.16753472222222  4.58333333333333 2.29166666666667  L 4.58333333333333 4.58333333333333  L 2.29166666666667 4.58333333333333  C 2.16753472222222 4.58333333333333  2.06011284722222 4.62868923611111  1.96940104166667 4.71940104166667  C 1.87868923611111 4.81011284722222  1.83333333333333 4.91753472222222  1.83333333333333 5.04166666666667  L 1.83333333333333 5.95833333333333  C 1.83333333333333 6.08246527777778  1.87868923611111 6.18988715277778  1.96940104166667 6.28059895833333  C 2.06011284722222 6.37131076388889  2.16753472222222 6.41666666666667  2.29166666666667 6.41666666666667  L 4.58333333333333 6.41666666666667  L 4.58333333333333 8.70833333333333  C 4.58333333333333 8.83246527777778  4.62868923611111 8.93988715277778  4.71940104166667 9.03059895833333  C 4.81011284722222 9.12131076388889  4.91753472222222 9.16666666666667  5.04166666666667 9.16666666666667  L 5.95833333333333 9.16666666666667  C 6.08246527777778 9.16666666666667  6.18988715277778 9.12131076388889  6.28059895833333 9.03059895833333  C 6.37131076388889 8.93988715277778  6.41666666666667 8.83246527777778  6.41666666666667 8.70833333333333  L 6.41666666666667 6.41666666666667  L 8.70833333333333 6.41666666666667  C 8.83246527777778 6.41666666666667  8.93988715277778 6.37131076388889  9.03059895833333 6.28059895833333  Z M 10.3948567708333 0.605143229166667  C 10.7982855902778 1.00857204861111  11 1.49435763888889  11 2.0625  L 11 8.9375  C 11 9.50564236111111  10.7982855902778 9.99142795138889  10.3948567708333 10.3948567708333  C 9.99142795138889 10.7982855902778  9.50564236111111 11  8.9375 11  L 2.0625 11  C 1.49435763888889 11  1.00857204861111 10.7982855902778  0.605143229166667 10.3948567708333  C 0.201714409722222 9.99142795138889  0 9.50564236111111  0 8.9375  L 0 2.0625  C 0 1.49435763888889  0.201714409722222 1.00857204861111  0.605143229166667 0.605143229166667  C 1.00857204861111 0.201714409722222  1.49435763888889 0  2.0625 0  L 8.9375 0  C 9.50564236111111 0  9.99142795138889 0.201714409722222  10.3948567708333 0.605143229166667  Z " fill-rule="nonzero" fill="#ffffff" stroke="none" transform="matrix(1 0 0 1 893 213 )" />
  </g>
</svg>