<?xml version="1.0" encoding="utf-8"?>
<svg version="1.1" xmlns:xlink="http://www.w3.org/1999/xlink" width="11px" height="10px" xmlns="http://www.w3.org/2000/svg">
  <g transform="matrix(1 0 0 1 -548 -1279 )">
    <path d="M 2.75 6.66666666666667  L 2.75 9.16666666666667  L 8.25 9.16666666666667  L 8.25 6.66666666666667  L 2.75 6.66666666666667  Z M 9.16666666666667 6.45833333333333  L 9.16666666666667 9.16666666666667  L 10.0833333333333 9.16666666666667  L 10.0833333333333 3.33333333333333  C 10.0833333333333 3.27256944444444  10.0594618055556 3.18901909722222  10.01171875 3.08268229166667  C 9.96397569444445 2.97634548611111  9.91623263888889 2.90147569444444  9.86848958333333 2.85807291666667  L 7.85611979166667 1.02864583333333  C 7.80837673611111 0.985243055555555  7.72721354166667 0.941840277777777  7.61263020833333 0.8984375  C 7.498046875 0.855034722222222  7.40494791666667 0.833333333333334  7.33333333333333 0.833333333333334  L 7.33333333333333 3.54166666666667  C 7.33333333333333 3.71527777777778  7.26649305555556 3.86284722222222  7.1328125 3.984375  C 6.99913194444444 4.10590277777778  6.83680555555556 4.16666666666667  6.64583333333333 4.16666666666667  L 2.52083333333333 4.16666666666667  C 2.32986111111111 4.16666666666667  2.16753472222222 4.10590277777778  2.03385416666667 3.984375  C 1.90017361111111 3.86284722222222  1.83333333333333 3.71527777777778  1.83333333333333 3.54166666666667  L 1.83333333333333 0.833333333333334  L 0.916666666666667 0.833333333333334  L 0.916666666666667 9.16666666666667  L 1.83333333333333 9.16666666666667  L 1.83333333333333 6.45833333333333  C 1.83333333333333 6.28472222222222  1.90017361111111 6.13715277777778  2.03385416666667 6.015625  C 2.16753472222222 5.89409722222222  2.32986111111111 5.83333333333333  2.52083333333333 5.83333333333333  L 8.47916666666667 5.83333333333333  C 8.67013888888889 5.83333333333333  8.83246527777778 5.89409722222222  8.96614583333333 6.015625  C 9.09982638888889 6.13715277777778  9.16666666666667 6.28472222222222  9.16666666666667 6.45833333333333  Z M 6.3486328125 3.271484375  C 6.39398871527778 3.23025173611111  6.41666666666667 3.18142361111111  6.41666666666667 3.125  L 6.41666666666667 1.04166666666667  C 6.41666666666667 0.985243055555555  6.39398871527778 0.936414930555555  6.3486328125 0.895182291666666  C 6.30327690972222 0.853949652777777  6.24956597222222 0.833333333333334  6.1875 0.833333333333334  L 4.8125 0.833333333333334  C 4.75043402777778 0.833333333333334  4.69672309027778 0.853949652777777  4.6513671875 0.895182291666666  C 4.60601128472222 0.936414930555555  4.58333333333333 0.985243055555555  4.58333333333333 1.04166666666667  L 4.58333333333333 3.125  C 4.58333333333333 3.18142361111111  4.60601128472222 3.23025173611111  4.6513671875 3.271484375  C 4.69672309027778 3.31271701388889  4.75043402777778 3.33333333333333  4.8125 3.33333333333333  L 6.1875 3.33333333333333  C 6.24956597222222 3.33333333333333  6.30327690972222 3.31271701388889  6.3486328125 3.271484375  Z M 10.8567708333333 2.76041666666667  C 10.9522569444444 2.96875  11 3.15972222222222  11 3.33333333333333  L 11 9.375  C 11 9.54861111111111  10.9331597222222 9.69618055555556  10.7994791666667 9.81770833333333  C 10.6657986111111 9.93923611111111  10.5034722222222 10  10.3125 10  L 0.6875 10  C 0.496527777777778 10  0.334201388888889 9.93923611111111  0.200520833333333 9.81770833333333  C 0.0668402777777778 9.69618055555556  0 9.54861111111111  0 9.375  L 0 0.625  C 0 0.451388888888888  0.0668402777777778 0.303819444444443  0.200520833333333 0.182291666666666  C 0.334201388888889 0.0607638888888884  0.496527777777778 0  0.6875 0  L 7.33333333333333 0  C 7.52430555555556 0  7.734375 0.0434027777777768  7.96354166666667 0.130208333333334  C 8.19270833333333 0.217013888888888  8.37413194444445 0.321180555555555  8.5078125 0.442708333333334  L 10.5130208333333 2.265625  C 10.6467013888889 2.38715277777778  10.7612847222222 2.55208333333333  10.8567708333333 2.76041666666667  Z " fill-rule="nonzero" fill="#ffffff" stroke="none" transform="matrix(1 0 0 1 548 1279 )" />
  </g>
</svg>