<?xml version="1.0" encoding="utf-8"?>
<svg version="1.1" xmlns:xlink="http://www.w3.org/1999/xlink" width="42px" height="34px" xmlns="http://www.w3.org/2000/svg">
  <g transform="matrix(1 0 0 1 -27 -666 )">
    <path d="M 31.609375 1.2901785714286  L 40.140625 7.2098214285714  C 40.6510416666667 7.56398809523801  41.0885416666667 8.04464285714281  41.453125 8.65178571428579  C 41.8177083333333 9.2589285714286  42 9.8154761904762  42 10.3214285714286  L 42 32.1785714285714  C 42 32.6845238095238  41.7447916666667 33.1145833333334  41.234375 33.46875  C 40.7239583333334 33.8229166666666  40.1041666666667 34  39.375 34  L 2.625 34  C 1.89583333333333 34  1.27604166666667 33.8229166666666  0.765625000000001 33.46875  C 0.255208333333334 33.1145833333334  0 32.6845238095238  0 32.1785714285714  L 0 1.8214285714286  C 0 1.3154761904762  0.255208333333334 0.885416666666608  0.765625000000001 0.53125  C 1.27604166666667 0.177083333333392  1.89583333333333 0  2.625 0  L 27.125 0  C 27.8541666666667 0  28.65625 0.126488095238012  29.53125 0.37946428571421  C 30.40625 0.632440476190409  31.0989583333333 0.936011904761988  31.609375 1.2901785714286  Z M 29.12109375 2.99776785714281  C 28.90234375 2.84598214285719  28.5286458333333 2.7068452380952  28 2.58035714285719  L 28 10  L 38.28125 10  C 38.0989583333334 9.3474702380952  37.8984375 9.08816964285719  37.6796875 8.9363839285714  L 29.12109375 2.99776785714281  Z M 4 31  L 38 31  L 38 12.1428571428572  L 27.125 12.1428571428572  C 26.3958333333333 12.1428571428572  25.7760416666667 11.9657738095238  25.265625 11.6116071428572  C 24.7552083333333 11.2574404761904  24.5 10.827380952381  24.5 10.3214285714286  L 24.5 3  L 4 3  L 4 31  Z M 13.58984375 27.1316964285714  L 11.73046875 27.1316964285714  L 11.73046875 29.1428571428572  L 19.4140625 29.1428571428572  L 19.4140625 27.1316964285714  L 17.36328125 27.1316964285714  L 20.1796875 24.0770089285714  C 20.2708333333333 23.9884672619048  20.3619791666667 23.8841145833334  20.453125 23.7639508928572  C 20.5442708333333 23.643787202381  20.6126302083333 23.5584077380952  20.658203125 23.5078125  C 20.7037760416667 23.4572172619048  20.7356770833333 23.4319196428572  20.75390625 23.4319196428572  L 20.80859375 23.4319196428572  C 20.8268229166667 23.4825148809524  20.8723958333333 23.5457589285714  20.9453125 23.6216517857142  C 20.9817708333333 23.6722470238096  21.0227864583333 23.7196800595238  21.068359375 23.7639508928572  C 21.1139322916667 23.8082217261904  21.1686197916667 23.8588169642858  21.232421875 23.9157366071428  C 21.2962239583333 23.97265625  21.35546875 24.0264136904762  21.41015625 24.0770089285714  L 24.3359375 27.1316964285714  L 22.2578125 27.1316964285714  L 22.2578125 29.1428571428572  L 30.21484375 29.1428571428572  L 30.21484375 27.1316964285714  L 28.35546875 27.1316964285714  L 23.10546875 21.9520089285714  L 28.4375 16.6015625  L 30.26953125 16.6015625  L 30.26953125 14.5714285714286  L 22.640625 14.5714285714286  L 22.640625 16.6015625  L 24.6640625 16.6015625  L 21.84765625 19.6183035714286  C 21.7747395833333 19.7068452380952  21.68359375 19.8111979166666  21.57421875 19.9313616071428  C 21.46484375 20.051525297619  21.3828125 20.1369047619048  21.328125 20.1875  L 21.2734375 20.2444196428572  L 21.21875 20.2444196428572  C 21.2005208333333 20.193824404762  21.1549479166667 20.1305803571428  21.08203125 20.0546875  C 20.97265625 19.915550595238  20.8177083333333 19.7700892857142  20.6171875 19.6183035714286  L 17.71875 16.6015625  L 19.796875 16.6015625  L 19.796875 14.5714285714286  L 11.8671875 14.5714285714286  L 11.8671875 16.6015625  L 13.7265625 16.6015625  L 18.89453125 21.7622767857142  L 18.6562307681175 22.0034852053096  L 13.58984375 27.1316964285714  Z " fill-rule="nonzero" fill="#000000" stroke="none" transform="matrix(1 0 0 1 27 666 )" />
  </g>
</svg>