<?xml version="1.0" encoding="utf-8"?>
<svg version="1.1" xmlns:xlink="http://www.w3.org/1999/xlink" width="27px" height="14px" xmlns="http://www.w3.org/2000/svg">
  <g transform="matrix(1 0 0 1 -226 -677 )">
    <path d="M 27 10.895652173913  C 27 11.1346215780998  26.8939205955335 11.3397745571659  26.6817617866005 11.5111111111111  L 23.901364764268 13.7429951690821  C 23.689205955335 13.9143317230274  23.4379652605459 14  23.1476426799007 14  C 22.8573200992556 14  22.6060794044665 13.9143317230274  22.3939205955335 13.7429951690821  L 13.5 6.56038647342995  L 4.6060794044665 13.7429951690821  C 4.3939205955335 13.9143317230274  4.14267990074442 14  3.85235732009926 14  C 3.5620347394541 14  3.31079404466501 13.9143317230274  3.09863523573201 13.7429951690821  L 0.318238213399504 11.5111111111111  C 0.106079404466501 11.3397745571659  0 11.1346215780998  0 10.895652173913  C 0 10.6566827697262  0.106079404466501 10.4515297906602  0.318238213399504 10.280193236715  L 12.7462779156328 0.257004830917874  C 12.9584367245658 0.0856682769726242  13.2096774193548 0  13.5 0  C 13.7903225806452 0  14.0415632754342 0.0856682769726242  14.2537220843672 0.257004830917874  L 26.6817617866005 10.280193236715  C 26.8939205955335 10.4515297906602  27 10.6566827697262  27 10.895652173913  Z " fill-rule="nonzero" fill="#000000" stroke="none" transform="matrix(1 0 0 1 226 677 )" />
  </g>
</svg>