<?xml version="1.0" encoding="utf-8"?>
<svg version="1.1" xmlns:xlink="http://www.w3.org/1999/xlink" width="15px" height="14px" xmlns="http://www.w3.org/2000/svg">
  <g transform="matrix(1 0 0 1 -1210 -188 )">
    <path d="M 14.8496993987976 6.43478260869565  C 14.9498997995992 6.53140096618357  15 6.64251207729468  15 6.76811594202899  C 15 6.89371980676328  14.9498997995992 7.0048309178744  14.8496993987976 7.10144927536232  L 7.84569138276553 13.8550724637681  C 7.74549098196393 13.951690821256  7.63026052104208 14  7.5 14  C 7.36973947895792 14  7.25450901803607 13.951690821256  7.15430861723447 13.8550724637681  L 0.150300601202405 7.10144927536232  C 0.0501002004008018 7.0048309178744  0 6.89371980676328  0 6.76811594202899  C 0 6.64251207729468  0.0501002004008018 6.53140096618357  0.150300601202405 6.43478260869565  L 0.901803607214429 5.71014492753623  C 1.00200400801603 5.61352657004831  1.11723446893788 5.56521739130435  1.24749498997996 5.56521739130435  C 1.37775551102204 5.56521739130435  1.49298597194389 5.61352657004831  1.59318637274549 5.71014492753623  L 7.5 11.4057971014493  L 13.4068136272545 5.71014492753623  C 13.5070140280561 5.61352657004831  13.622244488978 5.56521739130435  13.75250501002 5.56521739130435  C 13.8827655310621 5.56521739130435  13.997995991984 5.61352657004831  14.0981963927856 5.71014492753623  L 14.8496993987976 6.43478260869565  Z M 14.8496993987976 0.869565217391304  C 14.9498997995992 0.966183574879225  15 1.07729468599034  15 1.20289855072464  C 15 1.32850241545893  14.9498997995992 1.43961352657005  14.8496993987976 1.53623188405797  L 7.84569138276553 8.28985507246377  C 7.74549098196393 8.38647342995169  7.63026052104208 8.43478260869565  7.5 8.43478260869565  C 7.36973947895792 8.43478260869565  7.25450901803607 8.38647342995169  7.15430861723447 8.28985507246377  L 0.150300601202405 1.53623188405797  C 0.0501002004008018 1.43961352657005  0 1.32850241545893  0 1.20289855072464  C 0 1.07729468599034  0.0501002004008018 0.966183574879225  0.150300601202405 0.869565217391304  L 0.901803607214429 0.144927536231884  C 1.00200400801603 0.0483091787439602  1.11723446893788 0  1.24749498997996 0  C 1.37775551102204 0  1.49298597194389 0.0483091787439602  1.59318637274549 0.144927536231884  L 7.5 5.84057971014493  L 13.4068136272545 0.144927536231884  C 13.5070140280561 0.0483091787439602  13.622244488978 0  13.75250501002 0  C 13.8827655310621 0  13.997995991984 0.0483091787439602  14.0981963927856 0.144927536231884  L 14.8496993987976 0.869565217391304  Z " fill-rule="nonzero" fill="#3b3c51" stroke="none" transform="matrix(1 0 0 1 1210 188 )" />
  </g>
</svg>