<?xml version="1.0" encoding="utf-8"?>
<svg version="1.1" xmlns:xlink="http://www.w3.org/1999/xlink" width="14px" height="11px" xmlns="http://www.w3.org/2000/svg">
  <g transform="matrix(1 0 0 1 -829 -212 )">
    <path d="M 0.933333333333333 9.9  L 6.53333333333333 9.9  L 8.98333333333333 6.6  L 3.38333333333333 6.6  L 0.933333333333333 9.9  Z M 13.5734375 0.176171875  C 13.7265625 0.293619791666666  13.8420138888889 0.449739583333332  13.9197916666667 0.64453125  C 13.9927083333333 0.839322916666665  14.0157986111111 1.044140625  13.9890625 1.258984375  C 13.9623263888889 1.473828125  13.8881944444444 1.66145833333333  13.7666666666667 1.821875  L 7.23333333333333 10.621875  C 7.04861111111111 10.8739583333333  6.81527777777778 11  6.53333333333333 11  L 0.933333333333333 11  C 0.748611111111111 11  0.5796875 10.9412760416667  0.4265625 10.823828125  C 0.2734375 10.7063802083333  0.157986111111111 10.5502604166667  0.0802083333333333 10.35546875  C 0.00729166666666666 10.1606770833333  -0.0157986111111111 9.955859375  0.0109375 9.741015625  C 0.0376736111111111 9.526171875  0.111805555555556 9.33854166666667  0.233333333333333 9.178125  L 6.76666666666667 0.378125  C 6.95138888888889 0.126041666666666  7.18472222222222 0  7.46666666666667 0  L 13.0666666666667 0  C 13.2513888888889 0  13.4203125 0.0587239583333324  13.5734375 0.176171875  Z " fill-rule="nonzero" fill="#ffffff" stroke="none" transform="matrix(1 0 0 1 829 212 )" />
  </g>
</svg>