<?xml version="1.0" encoding="utf-8"?>
<svg version="1.1" xmlns:xlink="http://www.w3.org/1999/xlink" width="10px" height="9px" xmlns="http://www.w3.org/2000/svg">
  <g transform="matrix(1 0 0 1 -167 -709 )">
    <path d="M 9.70424107142857 4.066875  C 9.90141369047619 4.569375  10 5.19375  10 5.94  C 10 6.5625  9.76376488095238 7.408125  9.29129464285714 8.476875  C 9.28013392857143 8.503125  9.26060267857143 8.548125  9.23270089285714 8.611875  C 9.20479910714286 8.675625  9.1796875 8.731875  9.15736607142857 8.780625  C 9.13504464285714 8.829375  9.1108630952381 8.870625  9.08482142857143 8.904375  C 9.04017857142857 8.968125  8.98809523809524 9  8.92857142857143 9  C 8.87276785714286 9  8.82905505952381 8.98125  8.79743303571429 8.94375  C 8.76581101190476 8.90625  8.75 8.859375  8.75 8.803125  C 8.75 8.769375  8.75465029761905 8.7196875  8.76395089285714 8.6540625  C 8.77325148809524 8.5884375  8.77790178571429 8.544375  8.77790178571429 8.521875  C 8.79650297619048 8.266875  8.80580357142857 8.03625  8.80580357142857 7.83  C 8.80580357142857 7.45125  8.77325148809524 7.111875  8.70814732142857 6.811875  C 8.64304315476191 6.511875  8.55282738095238 6.2521875  8.4375 6.0328125  C 8.32217261904762 5.8134375  8.17336309523809 5.6240625  7.99107142857143 5.4646875  C 7.80877976190476 5.3053125  7.61253720238095 5.175  7.40234375 5.07375  C 7.19215029761905 4.9725  6.94475446428571 4.8928125  6.66015625 4.8346875  C 6.37555803571429 4.7765625  6.08909970238095 4.73625  5.80078125 4.71375  C 5.51246279761905 4.69125  5.18601190476191 4.68  4.82142857142857 4.68  L 3.57142857142857 4.68  L 3.57142857142857 6.12  C 3.57142857142857 6.2175  3.53608630952381 6.301875  3.46540178571429 6.373125  C 3.39471726190476 6.444375  3.31101190476191 6.48  3.21428571428571 6.48  C 3.11755952380952 6.48  3.03385416666667 6.444375  2.96316964285714 6.373125  L 0.106026785714286 3.493125  C 0.0353422619047619 3.421875  0 3.3375  0 3.24  C 0 3.1425  0.0353422619047619 3.058125  0.106026785714286 2.986875  L 2.96316964285714 0.106875  C 3.03385416666667 0.0356249999999996  3.11755952380952 0  3.21428571428571 0  C 3.31101190476191 0  3.39471726190476 0.0356249999999996  3.46540178571429 0.106875  C 3.53608630952381 0.178124999999999  3.57142857142857 0.262499999999999  3.57142857142857 0.36  L 3.57142857142857 1.8  L 4.82142857142857 1.8  C 7.47395833333333 1.8  9.1015625 2.555625  9.70424107142857 4.066875  Z " fill-rule="nonzero" fill="#ffffff" stroke="none" fill-opacity="0.976470588235294" transform="matrix(1 0 0 1 167 709 )" />
  </g>
</svg>