<?xml version="1.0" encoding="utf-8"?>
<svg version="1.1" xmlns:xlink="http://www.w3.org/1999/xlink" width="25px" height="31px" xmlns="http://www.w3.org/2000/svg">
  <g transform="matrix(1 0 0 1 -20 -15 )">
    <path d="M 18.8151041666667 1.17633928571429  L 23.8932291666667 6.57366071428571  C 24.1970486111111 6.89657738095238  24.4574652777778 7.33482142857143  24.6744791666667 7.88839285714286  C 24.8914930555556 8.44196428571429  25 8.94940476190476  25 9.41071428571429  L 25 29.3392857142857  C 25 29.8005952380952  24.8480902777778 30.1927083333333  24.5442708333333 30.515625  C 24.2404513888889 30.8385416666667  23.8715277777778 31  23.4375 31  L 1.5625 31  C 1.12847222222222 31  0.759548611111111 30.8385416666667  0.455729166666667 30.515625  C 0.151909722222222 30.1927083333333  0 29.8005952380952  0 29.3392857142857  L 0 1.66071428571429  C 0 1.19940476190476  0.151909722222222 0.807291666666666  0.455729166666667 0.484375  C 0.759548611111111 0.161458333333334  1.12847222222222 0  1.5625 0  L 16.1458333333333 0  C 16.5798611111111 0  17.0572916666667 0.115327380952382  17.578125 0.345982142857143  C 18.0989583333333 0.576636904761904  18.5112847222222 0.853422619047618  18.8151041666667 1.17633928571429  Z M 17.333984375 2.73325892857143  C 17.2037760416667 2.59486607142857  16.9813368055556 2.46800595238095  16.6666666666667 2.35267857142857  L 16.6666666666667 8.85714285714286  L 22.7864583333333 8.85714285714286  C 22.6779513888889 8.52269345238095  22.55859375 8.28627232142857  22.4283854166667 8.14787946428571  L 17.333984375 2.73325892857143  Z M 2 28.7857142857143  L 23 28.7857142857143  L 23 11.0714285714286  L 16.1458333333333 11.0714285714286  C 15.7118055555556 11.0714285714286  15.3428819444444 10.9099702380952  15.0390625 10.5870535714286  C 14.7352430555556 10.2641369047619  14.5833333333333 9.8720238095238  14.5833333333333 9.41071428571429  L 14.5833333333333 2.21428571428571  L 2 2.21428571428571  L 2 28.7857142857143  Z " fill-rule="nonzero" fill="#027db4" stroke="none" fill-opacity="0.976470588235294" transform="matrix(1 0 0 1 20 15 )" />
  </g>
</svg>